<svg width="64" height="65" viewBox="0 0 64 65" fill="none" xmlns="http://www.w3.org/2000/svg">
<path d="M64 32C64 49.6735 49.6743 64.0018 32.0009 64.0018C14.3274 64.0018 0 49.6735 0 32C0 14.3265 14.3274 0 32.0009 0C49.6743 0 64 14.3265 64 32Z" fill="#FE753E"/>
<path d="M39.3668 25.8813H25.6313L27.5093 18H37.4884L39.3668 25.8813Z" fill="white"/>
<path d="M46.6824 35.9832H32.9478L34.8263 28.1019H44.8046L46.6824 35.9832Z" fill="white"/>
<path d="M32.0516 35.9832H18.3154L20.1934 28.1019H30.1732L32.0516 35.9832Z" fill="white"/>
<path d="M53.9999 46.0851H40.2637L42.1429 38.2039H52.1212L53.9999 46.0851Z" fill="white"/>
<path d="M39.3668 46.0851H25.6313L27.5093 38.2039H37.4884L39.3668 46.0851Z" fill="white"/>
<path d="M24.7362 46.0851H11L12.8786 38.2039H22.8569L24.7362 46.0851Z" fill="white"/>
</svg>
