<svg width="64" height="64" viewBox="0 0 64 64" fill="none" xmlns="http://www.w3.org/2000/svg">
<path d="M64 31.9991C64 49.6721 49.6739 63.9982 31.9982 63.9982C14.327 63.9982 0 49.6721 0 31.9991C0 14.327 14.327 0 31.9982 0C49.6739 0 64 14.327 64 31.9991Z" fill="#EC5B60"/>
<path d="M33.9542 36.322C37.0477 31.1072 43.4513 30.4524 43.4513 30.4524C37.9547 33.3378 35.5683 37.0011 35.2287 39.2479C49.3316 41.5446 50 26.8868 50 26.8868C36.6216 24.5042 34.4798 33.0906 33.9542 36.3216V36.322ZM27.9523 26.4745C27.9523 26.4745 28.0605 21.7646 24.6395 18.8138C24.6395 18.8138 28.377 20.3903 29.9444 24.3412C30.104 21.9644 29.7825 15.7122 19.9066 15.1976C19.9057 15.1976 18.9288 25.2133 27.9524 26.4744L27.9523 26.4745ZM34.14 47.448C33.0691 43.8843 29.5491 28.9154 39.3521 11C39.3521 11 25.4749 25.5274 29.3278 47.4701C21.1952 47.6893 15 48.8148 15 50.1718C15 51.6855 22.7103 52.9127 32.2209 52.9127C41.7315 52.9127 49.4419 51.6854 49.4419 50.1718C49.4419 48.7608 42.7473 47.5998 34.1403 47.4475L34.14 47.448Z" fill="white"/>
</svg>
