<svg width="64" height="64" viewBox="0 0 64 64" fill="none" xmlns="http://www.w3.org/2000/svg">
<path d="M64 31.9991C64 49.6721 49.6721 63.9973 31.9991 63.9973C14.327 63.9973 0 49.6721 0 31.9991C0 14.3261 14.327 0 31.9991 0C49.6721 0 64 14.3261 64 31.9991Z" fill="#6288E9"/>
<path d="M42.1537 39.934C43.3489 35.273 49.6033 33.0022 47.6114 23.5209C45.5797 14.0396 34.4251 13.0835 28.6487 14.5575C22.673 16.1111 17.8925 22.4852 19.486 27.7836C19.6055 28.1821 19.5257 28.6203 19.2868 28.9788C18.5698 30.0942 16.5779 32.564 16.06 33.9982C15.8607 34.5162 16.1795 35.0739 16.6974 35.2331C16.8567 35.2729 17.8926 35.6714 18.0519 35.7111C19.4463 36.1493 19.1673 39.2169 19.1673 42.0054C19.1673 44.9135 22.2746 44.5153 23.2706 44.316C24.3063 44.0771 26.5771 43.8778 26.5771 46.6664C26.5771 47.0249 26.5771 47.3436 26.6168 47.5826C26.6566 48.1403 27.0153 48.6183 27.533 48.8175C29.5647 49.6142 35.5006 50.8491 42.6714 48.2598C43.1096 48.1005 43.2688 47.6223 43.0698 47.2241C42.4324 45.9494 41.2375 43.3998 42.1536 39.9338L42.1537 39.934ZM33.8675 38.8586H33.7082C32.5928 38.8586 31.6766 37.9424 31.6766 36.827C31.6766 35.7115 32.5928 34.7953 33.7082 34.7953H33.8675C34.9829 34.7953 35.8991 35.7115 35.8991 36.827C35.8991 37.9422 34.9829 38.8586 33.8675 38.8586ZM37.8115 23.7602L36.0186 30.3335C35.7396 31.2897 34.8634 31.9669 33.8274 31.9669C32.7917 31.9667 31.8755 31.2895 31.5966 30.3335L29.7639 23.7605C29.047 21.2108 31.0389 18.701 33.7874 18.701C36.5366 18.7007 38.5285 21.2106 37.8115 23.7602Z" fill="white"/>
</svg>
