<svg width="64" height="64" viewBox="0 0 64 64" fill="none" xmlns="http://www.w3.org/2000/svg">
<path d="M64 31.9991C64 49.6721 49.6739 63.9982 31.9982 63.9982C14.327 63.9982 0 49.6721 0 31.9991C0 14.327 14.327 0 31.9982 0C49.6739 0 64 14.327 64 31.9991Z" fill="#33BF8D"/>
<path d="M50.9997 31.627C50.9997 30.0601 50.1848 28.6184 48.9939 27.8035C49.4955 27.0512 49.8088 26.1737 49.8088 25.2335C49.8088 23.165 48.4297 21.4099 46.6121 20.7832C46.2987 22.1623 45.7345 23.165 45.6719 23.2903C45.5467 23.5411 45.2333 23.6037 45.0451 23.4785C44.857 23.3532 44.7317 23.1025 44.857 22.8517C44.857 22.8517 45.4211 21.9115 45.6719 20.5951V20.5324C45.86 19.4667 45.9226 18.1506 45.2959 16.9597C44.481 15.4554 42.9764 14.5152 41.2213 14.5152C40.9705 14.5152 40.7197 14.5152 40.469 14.5778C39.0275 11.6945 35.204 11.1929 33.1355 13.2614V27.0514C33.4489 26.8007 33.637 26.4873 33.7623 26.1739C33.8249 25.9231 34.1383 25.7979 34.3264 25.9231C34.5772 25.9857 34.7024 26.2991 34.5772 26.4873C34.3264 27.2396 33.7623 27.8034 33.0729 28.1171V36.5165C33.8878 36.8299 34.6398 37.5193 34.8906 38.3342C35.0787 38.8983 34.2012 39.2117 34.013 38.6476C33.8249 38.2089 33.4489 37.77 33.0103 37.5193V49.6169C34.7653 53.127 40.1558 52.8763 41.5345 48.9901C44.5432 49.6169 47.4266 46.9216 46.9876 43.8504C46.7369 43.913 46.2982 43.9756 45.9219 43.9756C44.9817 43.9756 44.1668 43.7875 43.4774 43.5996C43.2267 43.537 43.1014 43.2862 43.164 43.0355C43.2267 42.7847 43.4774 42.6595 43.7282 42.7221C44.7939 43.0355 46.2982 43.2862 47.7399 42.7847C50.7486 41.5311 51.5008 37.645 49.3068 35.3257C50.3723 34.4481 50.9993 33.132 50.9993 31.6276L50.9997 31.627ZM46.1105 24.9201C46.1731 25.0454 47.7403 27.2394 46.4239 29.3079C46.2986 29.4957 46.1731 29.5586 46.0479 29.5586C45.9852 29.5586 45.8597 29.5586 45.7971 29.496C45.6089 29.3708 45.5463 29.0574 45.6719 28.8692C46.6746 27.3023 45.4211 25.5472 45.4211 25.4846C44.9822 24.9828 45.7345 24.4813 46.1105 24.9202L46.1105 24.9201ZM44.6688 27.1138C44.6061 28.1166 43.1018 26.7378 40.3437 28.9315C42.1613 29.7464 43.8539 30.5613 44.3554 31.8775C44.418 32.1282 44.2928 32.379 44.1046 32.4416H43.9794C43.7912 32.4416 43.6034 32.3164 43.5408 32.1282C43.1021 30.8747 40.4066 29.9346 39.4038 29.433C37.5862 28.4928 37.022 26.5497 36.8967 25.0453C36.8967 24.7945 37.0848 24.5438 37.3353 24.5438C37.5861 24.5438 37.8369 24.7319 37.8369 24.9824C37.9621 26.1733 38.3384 27.6776 39.5919 28.4926C41.6601 26.5496 44.7313 26.0484 44.6688 27.1138L44.6688 27.1138ZM38.7142 21.8486C38.3382 21.3471 39.0902 20.8458 39.4665 21.3471C39.5291 21.4723 41.0963 23.6663 39.7799 25.7348C39.7173 25.86 39.5291 25.9229 39.4039 25.9229C39.3413 25.9229 39.2157 25.9229 39.1531 25.8603C38.965 25.7351 38.9023 25.4217 39.0279 25.2335C40.0303 23.6666 38.7768 21.9115 38.7142 21.8486L38.7142 21.8486ZM34.3891 14.9538C34.2638 14.7657 34.3265 14.4523 34.5143 14.327C35.5171 13.6376 36.8336 13.951 37.6485 14.5778C39.2154 15.7687 39.5288 17.9624 40.9079 19.0281C41.472 19.4667 42.3496 19.7175 42.9763 19.2789C43.1645 19.1536 43.4779 19.2162 43.6031 19.4041C43.7283 19.5923 43.6657 19.9056 43.4779 20.0309C42.5377 20.6577 41.2212 20.4069 40.3437 19.7175C39.7169 19.216 39.3409 18.5892 38.9646 17.9624C38.4005 19.4667 37.2095 19.5922 36.6454 19.9056C36.0812 20.219 35.6426 20.8458 35.6426 21.5355C35.6426 21.7862 35.4544 21.9741 35.204 21.9741C34.9532 21.9741 34.7653 21.7859 34.7653 21.5355C34.828 19.3418 36.8965 18.9028 37.3353 18.6521C38.0247 18.2761 38.401 17.3985 38.2129 16.6463V16.5836C37.0846 14.7033 35.7684 14.5778 35.0787 15.0167C34.8279 15.2046 34.5772 15.1419 34.389 14.9538L34.3891 14.9538ZM34.452 31.376C34.7027 30.8744 35.2669 30.6236 35.8937 30.6866C37.2098 30.8747 37.5861 32.2535 38.3382 32.5669C38.7142 32.6921 39.2157 32.5669 39.4039 32.1909C39.7173 31.6893 40.4696 32.1282 40.2188 32.6295C39.7802 33.3818 38.7771 33.6952 38.0251 33.3818C36.9594 32.9432 36.646 31.6894 35.7685 31.5642C35.5803 31.5642 35.3299 31.6268 35.2669 31.7523C35.1417 32.0031 34.8909 32.0657 34.6402 31.9405C34.452 31.8773 34.3265 31.6268 34.452 31.376L34.452 31.376ZM34.7654 35.8263C34.7027 35.5755 34.828 35.3247 35.0161 35.2621C37.1472 34.5098 38.8397 35.5129 39.7172 37.4558C41.2215 36.6409 42.7885 36.7664 43.2274 35.7633C43.4156 35.3873 43.3527 34.9484 43.1022 34.4472C42.9769 34.1964 43.1022 33.9457 43.2903 33.8204C43.5411 33.6952 43.7919 33.8204 43.9171 34.0086C44.2931 34.8235 44.3557 35.5129 44.0423 36.1397C43.6037 37.0172 42.6006 37.4558 41.8487 37.644C40.2189 38.0826 38.2759 39.0231 38.3385 40.7152C38.3385 40.966 38.1503 41.1538 37.8999 41.2167C37.6491 41.2167 37.4612 41.0286 37.4612 40.7781C37.3986 39.5872 38.0254 38.7097 38.9655 38.0203C38.2761 36.3905 37.0852 35.5758 35.3928 36.14C35.0788 36.2023 34.828 36.077 34.7654 35.8263L34.7654 35.8263ZM43.4152 45.7298C43.6034 45.5416 43.9168 45.5416 44.042 45.7298C44.2302 45.9179 44.2302 46.2313 44.042 46.3566C43.1018 47.2341 41.472 47.9864 39.9677 47.7983C39.2154 49.6786 37.8993 51.0577 35.956 50.6816C35.7053 50.619 35.5174 50.3683 35.58 50.1175C35.6426 49.8667 35.8934 49.7415 36.1442 49.7415C37.3977 49.9923 38.4008 49.24 39.0902 47.5478C37.7111 47.0463 36.5202 45.8554 35.58 43.9124C35.4548 43.6616 35.58 43.4109 35.7681 43.2856C36.0189 43.1604 36.2697 43.2856 36.3949 43.4738C38.2126 47.4849 41.096 47.7983 43.4152 45.7298L43.4152 45.7298ZM44.6688 40.2141C43.8539 40.9664 42.5377 40.7156 42.0988 41.4676C41.9736 41.6558 41.9736 41.9063 42.0988 42.0318C42.2241 42.2199 42.2241 42.5333 42.0362 42.6586C41.911 42.7212 41.7854 42.7212 41.7228 42.7212C41.5976 42.7212 41.472 42.6586 41.3468 42.533C41.0334 42.0944 40.9708 41.4676 41.2842 40.9661C41.9736 39.8378 43.4153 40.0885 44.042 39.5244C44.3554 39.2736 44.418 38.7095 44.1673 38.3961C43.7913 37.8946 44.5433 37.3933 44.9196 37.8946C45.4211 38.5842 45.2956 39.587 44.6688 40.214L44.6688 40.2141ZM46.8628 40.8408C46.7376 40.6527 46.7376 40.3393 46.9254 40.2141C47.9282 39.4617 48.4297 38.0204 47.803 36.4532C47.6777 36.1398 47.4896 35.8264 47.3014 35.513C46.7999 35.8263 46.1731 36.0771 45.4838 36.2653H45.3585C45.1704 36.2653 44.9825 36.1401 44.9199 35.8893C44.8573 35.6385 44.9825 35.3878 45.2333 35.3251C46.4868 35.0117 47.3644 34.3849 47.9285 33.5075C48.8687 31.8777 48.3045 29.8092 48.3045 29.8092C48.2419 29.5584 48.3671 29.3077 48.6179 29.245C48.8686 29.1824 49.1194 29.3077 49.182 29.5584C49.182 29.6837 49.8714 32.0029 48.7434 34.0087C48.5553 34.3221 48.3048 34.6355 48.054 34.9489C48.3048 35.3249 48.5556 35.7013 48.7434 36.1399C49.8715 39.1485 47.4895 41.5929 46.8628 40.841L46.8628 40.8408Z" fill="white"/>
<path d="M24.5487 14.578C22.8563 14.202 20.7252 15.0795 19.7224 16.9598C19.1582 18.2134 19.1582 19.467 19.3464 20.5326V20.5952C19.5972 21.9113 20.0987 22.7889 20.1613 22.8518C20.2865 23.04 20.2239 23.3534 19.9732 23.4786C19.9105 23.5412 19.8479 23.5412 19.7224 23.5412C19.5342 23.5412 19.409 23.4786 19.3464 23.2905C19.2838 23.2278 18.7196 22.2248 18.4062 20.7833C15.4602 21.7235 14.2693 25.1711 15.9617 27.8036C13.4544 29.5587 13.3288 33.3193 15.7107 35.2627C13.517 37.5819 14.2689 41.4681 17.2776 42.7217C19.9728 43.6619 21.5397 42.0323 21.8532 42.9725C21.9158 43.2232 21.7906 43.474 21.5398 43.5366C20.0981 43.9752 18.8446 44.0382 17.8415 43.7874C17.4029 46.9216 20.286 49.5541 23.2946 48.9271C24.4855 52.2491 28.8106 53.1267 31.1924 50.494C31.4432 50.1806 31.694 49.8672 31.8818 49.5538L31.8824 37.519C31.4438 37.7698 31.0675 38.1458 30.8797 38.6473C30.817 38.8981 30.5036 39.0233 30.3155 38.8981C30.0647 38.8355 29.9395 38.5221 30.0647 38.3339C30.3781 37.519 31.0675 36.8296 31.8824 36.5163V28.1168C31.193 27.7408 30.6288 27.1766 30.3781 26.487C30.3155 26.2362 30.4407 25.9855 30.6289 25.9229C30.8796 25.8602 31.1304 25.9855 31.193 26.1736C31.3183 26.5496 31.569 26.8004 31.8198 27.0512V13.2611C29.814 11.1927 25.9904 11.6942 24.5487 14.5776L24.5487 14.578ZM20.7878 26.6128C22.8563 26.4875 24.4861 27.4903 25.6141 28.4304C26.8677 27.6155 27.2439 26.1112 27.3692 24.9202C27.3692 24.6695 27.62 24.4816 27.8708 24.4816C28.1215 24.4816 28.3094 24.7324 28.3094 24.9832C27.996 28.6814 25.4886 29.4961 25.426 29.5588C23.7336 30.3111 21.9785 31.1257 21.6025 32.1287C21.2891 33.1315 18.5312 31.6901 24.7366 28.8694C23.7964 28.117 22.48 27.4276 20.8505 27.4903C20.5997 27.4903 20.4119 27.3021 20.349 27.0517C20.3493 26.8632 20.5371 26.6127 20.7879 26.6127L20.7878 26.6128ZM25.9904 25.2337C26.1157 25.4218 26.0531 25.7352 25.8652 25.8605C25.8026 25.9231 25.6771 25.9231 25.6144 25.9231C25.4892 25.9231 25.3011 25.8605 25.2384 25.7349C23.9223 23.6665 25.4892 21.4098 25.5518 21.3472C25.6771 21.1591 25.9905 21.0964 26.1786 21.222C26.3668 21.3472 26.4294 21.6606 26.3038 21.8487C26.2412 21.9116 24.9877 23.6667 25.9905 25.2336L25.9904 25.2337ZM18.9075 24.9203C19.0327 24.7322 19.3461 24.6695 19.5343 24.7951C19.7224 24.9203 19.785 25.2337 19.6595 25.4218C19.5969 25.4845 18.4059 27.2395 19.4087 28.8064C19.534 28.9946 19.4714 29.308 19.2835 29.4332C19.1583 29.5587 19.0956 29.5587 18.9701 29.5587C18.8449 29.5587 18.6567 29.4961 18.5941 29.3706C17.2777 27.2395 18.8449 25.0455 18.9075 24.9203L18.9075 24.9203ZM19.4717 36.2651C18.7823 36.077 18.1555 35.8265 17.654 35.5128C16.4004 37.3304 16.7764 39.2737 18.03 40.2139C18.2181 40.3391 18.2808 40.6525 18.0926 40.8407C17.9674 41.0288 17.654 41.0914 17.4658 40.9033C15.836 39.6497 15.3347 37.205 16.9017 34.9487C15.46 33.507 15.2719 31.2504 15.7108 29.6208C15.7734 29.3701 16.0242 29.2448 16.2749 29.3074C16.5257 29.3701 16.6509 29.6208 16.5883 29.8716C16.5883 29.8716 16.0242 31.9401 16.9643 33.5699C17.4658 34.4474 18.406 35.0742 19.6595 35.3875C19.9103 35.4501 20.0355 35.7009 19.9729 35.9517C19.9103 36.1398 19.7221 36.3277 19.5343 36.3277C19.5969 36.2651 19.5343 36.2651 19.4717 36.2651L19.4717 36.2651ZM20.3492 40.2142C19.7224 39.65 19.5969 38.5844 20.0984 37.8949C20.2237 37.7068 20.5371 37.6441 20.7252 37.7697C20.9134 37.8949 20.976 38.2083 20.8504 38.3964C20.5997 38.7098 20.6623 39.274 20.9757 39.5247C21.6025 40.0889 23.0442 39.8381 23.7335 40.9664C24.0469 41.468 24.0469 42.0947 23.6709 42.5334C23.2949 42.972 22.6052 42.4708 22.9186 41.9692C23.1067 41.7185 22.9812 41.2169 22.2292 40.9665C21.7282 40.778 20.9134 40.7154 20.3492 40.2141L20.3492 40.2142ZM29.5007 43.9748C28.5605 45.918 27.3696 47.109 25.9905 47.6102C26.6799 49.3026 27.6829 50.0547 28.9365 49.8039C29.1873 49.7413 29.438 49.9291 29.5007 50.1799C29.5633 50.4306 29.3754 50.6814 29.1247 50.744C27.1188 51.12 25.8026 49.8038 25.1129 47.8607C23.6087 48.0488 21.9788 47.2965 21.0387 46.4189C20.8505 46.2308 20.8505 45.9803 21.0387 45.7922C21.2268 45.604 21.4773 45.604 21.6654 45.7922C21.6654 45.7922 23.3579 47.2965 25.2382 46.9831H25.3008C26.6169 46.7323 27.8079 45.604 28.7484 43.6611C28.8736 43.4103 29.1244 43.3477 29.3751 43.4729C29.5633 43.4735 29.6259 43.7869 29.5007 43.9747L29.5007 43.9748ZM30.2527 35.8265C30.1901 36.0773 29.9393 36.2025 29.6886 36.0773C27.9961 35.4505 26.7426 36.2654 26.1158 37.9576C27.056 38.647 27.6201 39.5245 27.6201 40.7154C27.6201 40.9662 27.432 41.1541 27.1815 41.1541C26.9307 41.1541 26.7429 40.9033 26.7429 40.6525C26.8055 38.9601 24.8625 38.0199 23.2327 37.5813C22.4803 37.3932 21.4776 36.9545 21.039 36.077C20.7256 35.4502 20.7882 34.7609 21.1642 33.9459C21.2895 33.6951 21.5402 33.6325 21.791 33.7578C22.0418 33.883 22.1044 34.1338 21.9791 34.3845C20.9134 36.6411 23.7342 36.5156 25.3637 37.3932C26.2413 35.3874 27.9337 34.4472 30.0649 35.1995C30.1901 35.325 30.3156 35.5758 30.2527 35.8266L30.2527 35.8265ZM30.5661 31.3762C30.6913 31.627 30.5661 31.8777 30.378 32.003C30.1272 32.1282 29.8764 32.003 29.7512 31.8148C29.6886 31.6896 29.4378 31.5641 29.2496 31.6267C28.2469 31.7519 27.9335 33.5699 26.3663 33.5699C25.7395 33.5699 25.1127 33.2565 24.7993 32.6924C24.6741 32.5042 24.7367 32.1909 24.9875 32.0656C25.1756 31.9404 25.489 32.003 25.6143 32.2538C25.8024 32.6298 26.3037 32.7553 26.68 32.6298C27.4323 32.3164 27.8082 30.9373 29.1245 30.7495C29.7515 30.6239 30.3157 30.8747 30.5662 31.3762L30.5661 31.3762ZM30.629 14.9541C30.5038 15.1422 30.1904 15.2048 30.0022 15.0793C29.3129 14.5778 27.9964 14.7659 26.8681 16.6462C26.6799 18.5895 27.7456 18.5895 28.8113 19.2162C29.6889 19.6549 30.253 20.658 30.3156 21.5981C30.3156 21.8488 30.1275 22.0367 29.877 22.0367C29.6262 22.0367 29.4384 21.8485 29.4384 21.5981C29.4384 20.9713 28.9997 20.2819 28.4356 19.9683C27.8088 19.6549 26.6805 19.5296 26.1163 18.025C24.612 20.595 22.7317 20.7829 21.6034 20.0308C21.4152 19.9056 21.3526 19.5922 21.4781 19.4041C21.6034 19.2159 21.9168 19.1533 22.1049 19.2788C22.7317 19.6548 23.6092 19.467 24.1734 19.0281C25.5525 17.9624 25.8658 15.7687 27.4328 14.5778C28.2477 13.951 29.5639 13.6376 30.5669 14.327C30.6916 14.4525 30.7542 14.7659 30.629 14.9541L30.629 14.9541Z" fill="white"/>
<path d="M50.9997 31.627C50.9997 30.0601 50.1848 28.6184 48.9939 27.8035C49.4955 27.0512 49.8088 26.1737 49.8088 25.2335C49.8088 23.165 48.4297 21.4099 46.6121 20.7832C46.2987 22.1623 45.7345 23.165 45.6719 23.2903C45.5467 23.5411 45.2333 23.6037 45.0451 23.4785C44.857 23.3532 44.7317 23.1025 44.857 22.8517C44.857 22.8517 45.4211 21.9115 45.6719 20.5951V20.5324C45.86 19.4667 45.9226 18.1506 45.2959 16.9597C44.481 15.4554 42.9764 14.5152 41.2213 14.5152C40.9705 14.5152 40.7197 14.5152 40.469 14.5778C39.0275 11.6945 35.204 11.1929 33.1355 13.2614V27.0514C33.4489 26.8007 33.637 26.4873 33.7623 26.1739C33.8249 25.9231 34.1383 25.7979 34.3264 25.9231C34.5772 25.9857 34.7024 26.2991 34.5772 26.4873C34.3264 27.2396 33.7623 27.8034 33.0729 28.1171V36.5165C33.8878 36.8299 34.6398 37.5193 34.8906 38.3342C35.0787 38.8983 34.2012 39.2117 34.013 38.6476C33.8249 38.2089 33.4489 37.77 33.0103 37.5193V49.6169C34.7653 53.127 40.1558 52.8763 41.5345 48.9901C44.5432 49.6169 47.4266 46.9216 46.9876 43.8504C46.7369 43.913 46.2982 43.9756 45.9219 43.9756C44.9817 43.9756 44.1668 43.7875 43.4774 43.5996C43.2267 43.537 43.1014 43.2862 43.164 43.0355C43.2267 42.7847 43.4774 42.6595 43.7282 42.7221C44.7939 43.0355 46.2982 43.2862 47.7399 42.7847C50.7486 41.5311 51.5008 37.645 49.3068 35.3257C50.3723 34.4481 50.9993 33.132 50.9993 31.6276L50.9997 31.627ZM46.1105 24.9201C46.1731 25.0454 47.7403 27.2394 46.4239 29.3079C46.2986 29.4957 46.1731 29.5586 46.0479 29.5586C45.9852 29.5586 45.8597 29.5586 45.7971 29.496C45.6089 29.3708 45.5463 29.0574 45.6719 28.8692C46.6746 27.3023 45.4211 25.5472 45.4211 25.4846C44.9822 24.9828 45.7345 24.4813 46.1105 24.9202L46.1105 24.9201ZM44.6688 27.1138C44.6061 28.1166 43.1018 26.7378 40.3437 28.9315C42.1613 29.7464 43.8539 30.5613 44.3554 31.8775C44.418 32.1282 44.2928 32.379 44.1046 32.4416H43.9794C43.7912 32.4416 43.6034 32.3164 43.5408 32.1282C43.1021 30.8747 40.4066 29.9346 39.4038 29.433C37.5862 28.4928 37.022 26.5497 36.8967 25.0453C36.8967 24.7945 37.0848 24.5438 37.3353 24.5438C37.5861 24.5438 37.8369 24.7319 37.8369 24.9824C37.9621 26.1733 38.3384 27.6776 39.5919 28.4926C41.6601 26.5496 44.7313 26.0484 44.6688 27.1138L44.6688 27.1138ZM38.7142 21.8486C38.3382 21.3471 39.0902 20.8458 39.4665 21.3471C39.5291 21.4723 41.0963 23.6663 39.7799 25.7348C39.7173 25.86 39.5291 25.9229 39.4039 25.9229C39.3413 25.9229 39.2157 25.9229 39.1531 25.8603C38.965 25.7351 38.9023 25.4217 39.0279 25.2335C40.0303 23.6666 38.7768 21.9115 38.7142 21.8486L38.7142 21.8486ZM34.3891 14.9538C34.2638 14.7657 34.3265 14.4523 34.5143 14.327C35.5171 13.6376 36.8336 13.951 37.6485 14.5778C39.2154 15.7687 39.5288 17.9624 40.9079 19.0281C41.472 19.4667 42.3496 19.7175 42.9763 19.2789C43.1645 19.1536 43.4779 19.2162 43.6031 19.4041C43.7283 19.5923 43.6657 19.9056 43.4779 20.0309C42.5377 20.6577 41.2212 20.4069 40.3437 19.7175C39.7169 19.216 39.3409 18.5892 38.9646 17.9624C38.4005 19.4667 37.2095 19.5922 36.6454 19.9056C36.0812 20.219 35.6426 20.8458 35.6426 21.5355C35.6426 21.7862 35.4544 21.9741 35.204 21.9741C34.9532 21.9741 34.7653 21.7859 34.7653 21.5355C34.828 19.3418 36.8965 18.9028 37.3353 18.6521C38.0247 18.2761 38.401 17.3985 38.2129 16.6463V16.5836C37.0846 14.7033 35.7684 14.5778 35.0787 15.0167C34.8279 15.2046 34.5772 15.1419 34.389 14.9538L34.3891 14.9538ZM34.452 31.376C34.7027 30.8744 35.2669 30.6236 35.8937 30.6866C37.2098 30.8747 37.5861 32.2535 38.3382 32.5669C38.7142 32.6921 39.2157 32.5669 39.4039 32.1909C39.7173 31.6893 40.4696 32.1282 40.2188 32.6295C39.7802 33.3818 38.7771 33.6952 38.0251 33.3818C36.9594 32.9432 36.646 31.6894 35.7685 31.5642C35.5803 31.5642 35.3299 31.6268 35.2669 31.7523C35.1417 32.0031 34.8909 32.0657 34.6402 31.9405C34.452 31.8773 34.3265 31.6268 34.452 31.376L34.452 31.376ZM34.7654 35.8263C34.7027 35.5755 34.828 35.3247 35.0161 35.2621C37.1472 34.5098 38.8397 35.5129 39.7172 37.4558C41.2215 36.6409 42.7885 36.7664 43.2274 35.7633C43.4156 35.3873 43.3527 34.9484 43.1022 34.4472C42.9769 34.1964 43.1022 33.9457 43.2903 33.8204C43.5411 33.6952 43.7919 33.8204 43.9171 34.0086C44.2931 34.8235 44.3557 35.5129 44.0423 36.1397C43.6037 37.0172 42.6006 37.4558 41.8487 37.644C40.2189 38.0826 38.2759 39.0231 38.3385 40.7152C38.3385 40.966 38.1503 41.1538 37.8999 41.2167C37.6491 41.2167 37.4612 41.0286 37.4612 40.7781C37.3986 39.5872 38.0254 38.7097 38.9655 38.0203C38.2761 36.3905 37.0852 35.5758 35.3928 36.14C35.0788 36.2023 34.828 36.077 34.7654 35.8263L34.7654 35.8263ZM43.4152 45.7298C43.6034 45.5416 43.9168 45.5416 44.042 45.7298C44.2302 45.9179 44.2302 46.2313 44.042 46.3566C43.1018 47.2341 41.472 47.9864 39.9677 47.7983C39.2154 49.6786 37.8993 51.0577 35.956 50.6816C35.7053 50.619 35.5174 50.3683 35.58 50.1175C35.6426 49.8667 35.8934 49.7415 36.1442 49.7415C37.3977 49.9923 38.4008 49.24 39.0902 47.5478C37.7111 47.0463 36.5202 45.8554 35.58 43.9124C35.4548 43.6616 35.58 43.4109 35.7681 43.2856C36.0189 43.1604 36.2697 43.2856 36.3949 43.4738C38.2126 47.4849 41.096 47.7983 43.4152 45.7298L43.4152 45.7298ZM44.6688 40.2141C43.8539 40.9664 42.5377 40.7156 42.0988 41.4676C41.9736 41.6558 41.9736 41.9063 42.0988 42.0318C42.2241 42.2199 42.2241 42.5333 42.0362 42.6586C41.911 42.7212 41.7854 42.7212 41.7228 42.7212C41.5976 42.7212 41.472 42.6586 41.3468 42.533C41.0334 42.0944 40.9708 41.4676 41.2842 40.9661C41.9736 39.8378 43.4153 40.0885 44.042 39.5244C44.3554 39.2736 44.418 38.7095 44.1673 38.3961C43.7913 37.8946 44.5433 37.3933 44.9196 37.8946C45.4211 38.5842 45.2956 39.587 44.6688 40.214L44.6688 40.2141ZM46.8628 40.8408C46.7376 40.6527 46.7376 40.3393 46.9254 40.2141C47.9282 39.4617 48.4297 38.0204 47.803 36.4532C47.6777 36.1398 47.4896 35.8264 47.3014 35.513C46.7999 35.8263 46.1731 36.0771 45.4838 36.2653H45.3585C45.1704 36.2653 44.9825 36.1401 44.9199 35.8893C44.8573 35.6385 44.9825 35.3878 45.2333 35.3251C46.4868 35.0117 47.3644 34.3849 47.9285 33.5075C48.8687 31.8777 48.3045 29.8092 48.3045 29.8092C48.2419 29.5584 48.3671 29.3077 48.6179 29.245C48.8686 29.1824 49.1194 29.3077 49.182 29.5584C49.182 29.6837 49.8714 32.0029 48.7434 34.0087C48.5553 34.3221 48.3048 34.6355 48.054 34.9489C48.3048 35.3249 48.5556 35.7013 48.7434 36.1399C49.8715 39.1485 47.4895 41.5929 46.8628 40.841L46.8628 40.8408Z" fill="white"/>
<path d="M24.5487 14.578C22.8563 14.202 20.7252 15.0795 19.7224 16.9598C19.1582 18.2134 19.1582 19.467 19.3464 20.5326V20.5952C19.5972 21.9113 20.0987 22.7889 20.1613 22.8518C20.2865 23.04 20.2239 23.3534 19.9732 23.4786C19.9105 23.5412 19.8479 23.5412 19.7224 23.5412C19.5342 23.5412 19.409 23.4786 19.3464 23.2905C19.2838 23.2278 18.7196 22.2248 18.4062 20.7833C15.4602 21.7235 14.2693 25.1711 15.9617 27.8036C13.4544 29.5587 13.3288 33.3193 15.7107 35.2627C13.517 37.5819 14.2689 41.4681 17.2776 42.7217C19.9728 43.6619 21.5397 42.0323 21.8532 42.9725C21.9158 43.2232 21.7906 43.474 21.5398 43.5366C20.0981 43.9752 18.8446 44.0382 17.8415 43.7874C17.4029 46.9216 20.286 49.5541 23.2946 48.9271C24.4855 52.2491 28.8106 53.1267 31.1924 50.494C31.4432 50.1806 31.694 49.8672 31.8818 49.5538L31.8824 37.519C31.4438 37.7698 31.0675 38.1458 30.8797 38.6473C30.817 38.8981 30.5036 39.0233 30.3155 38.8981C30.0647 38.8355 29.9395 38.5221 30.0647 38.3339C30.3781 37.519 31.0675 36.8296 31.8824 36.5163V28.1168C31.193 27.7408 30.6288 27.1766 30.3781 26.487C30.3155 26.2362 30.4407 25.9855 30.6289 25.9229C30.8796 25.8602 31.1304 25.9855 31.193 26.1736C31.3183 26.5496 31.569 26.8004 31.8198 27.0512V13.2611C29.814 11.1927 25.9904 11.6942 24.5487 14.5776L24.5487 14.578ZM20.7878 26.6128C22.8563 26.4875 24.4861 27.4903 25.6141 28.4304C26.8677 27.6155 27.2439 26.1112 27.3692 24.9202C27.3692 24.6695 27.62 24.4816 27.8708 24.4816C28.1215 24.4816 28.3094 24.7324 28.3094 24.9832C27.996 28.6814 25.4886 29.4961 25.426 29.5588C23.7336 30.3111 21.9785 31.1257 21.6025 32.1287C21.2891 33.1315 18.5312 31.6901 24.7366 28.8694C23.7964 28.117 22.48 27.4276 20.8505 27.4903C20.5997 27.4903 20.4119 27.3021 20.349 27.0517C20.3493 26.8632 20.5371 26.6127 20.7879 26.6127L20.7878 26.6128ZM25.9904 25.2337C26.1157 25.4218 26.0531 25.7352 25.8652 25.8605C25.8026 25.9231 25.6771 25.9231 25.6144 25.9231C25.4892 25.9231 25.3011 25.8605 25.2384 25.7349C23.9223 23.6665 25.4892 21.4098 25.5518 21.3472C25.6771 21.1591 25.9905 21.0964 26.1786 21.222C26.3668 21.3472 26.4294 21.6606 26.3038 21.8487C26.2412 21.9116 24.9877 23.6667 25.9905 25.2336L25.9904 25.2337ZM18.9075 24.9203C19.0327 24.7322 19.3461 24.6695 19.5343 24.7951C19.7224 24.9203 19.785 25.2337 19.6595 25.4218C19.5969 25.4845 18.4059 27.2395 19.4087 28.8064C19.534 28.9946 19.4714 29.308 19.2835 29.4332C19.1583 29.5587 19.0956 29.5587 18.9701 29.5587C18.8449 29.5587 18.6567 29.4961 18.5941 29.3706C17.2777 27.2395 18.8449 25.0455 18.9075 24.9203L18.9075 24.9203ZM19.4717 36.2651C18.7823 36.077 18.1555 35.8265 17.654 35.5128C16.4004 37.3304 16.7764 39.2737 18.03 40.2139C18.2181 40.3391 18.2808 40.6525 18.0926 40.8407C17.9674 41.0288 17.654 41.0914 17.4658 40.9033C15.836 39.6497 15.3347 37.205 16.9017 34.9487C15.46 33.507 15.2719 31.2504 15.7108 29.6208C15.7734 29.3701 16.0242 29.2448 16.2749 29.3074C16.5257 29.3701 16.6509 29.6208 16.5883 29.8716C16.5883 29.8716 16.0242 31.9401 16.9643 33.5699C17.4658 34.4474 18.406 35.0742 19.6595 35.3875C19.9103 35.4501 20.0355 35.7009 19.9729 35.9517C19.9103 36.1398 19.7221 36.3277 19.5343 36.3277C19.5969 36.2651 19.5343 36.2651 19.4717 36.2651L19.4717 36.2651ZM20.3492 40.2142C19.7224 39.65 19.5969 38.5844 20.0984 37.8949C20.2237 37.7068 20.5371 37.6441 20.7252 37.7697C20.9134 37.8949 20.976 38.2083 20.8504 38.3964C20.5997 38.7098 20.6623 39.274 20.9757 39.5247C21.6025 40.0889 23.0442 39.8381 23.7335 40.9664C24.0469 41.468 24.0469 42.0947 23.6709 42.5334C23.2949 42.972 22.6052 42.4708 22.9186 41.9692C23.1067 41.7185 22.9812 41.2169 22.2292 40.9665C21.7282 40.778 20.9134 40.7154 20.3492 40.2141L20.3492 40.2142ZM29.5007 43.9748C28.5605 45.918 27.3696 47.109 25.9905 47.6102C26.6799 49.3026 27.6829 50.0547 28.9365 49.8039C29.1873 49.7413 29.438 49.9291 29.5007 50.1799C29.5633 50.4306 29.3754 50.6814 29.1247 50.744C27.1188 51.12 25.8026 49.8038 25.1129 47.8607C23.6087 48.0488 21.9788 47.2965 21.0387 46.4189C20.8505 46.2308 20.8505 45.9803 21.0387 45.7922C21.2268 45.604 21.4773 45.604 21.6654 45.7922C21.6654 45.7922 23.3579 47.2965 25.2382 46.9831H25.3008C26.6169 46.7323 27.8079 45.604 28.7484 43.6611C28.8736 43.4103 29.1244 43.3477 29.3751 43.4729C29.5633 43.4735 29.6259 43.7869 29.5007 43.9747L29.5007 43.9748ZM30.2527 35.8265C30.1901 36.0773 29.9393 36.2025 29.6886 36.0773C27.9961 35.4505 26.7426 36.2654 26.1158 37.9576C27.056 38.647 27.6201 39.5245 27.6201 40.7154C27.6201 40.9662 27.432 41.1541 27.1815 41.1541C26.9307 41.1541 26.7429 40.9033 26.7429 40.6525C26.8055 38.9601 24.8625 38.0199 23.2327 37.5813C22.4803 37.3932 21.4776 36.9545 21.039 36.077C20.7256 35.4502 20.7882 34.7609 21.1642 33.9459C21.2895 33.6951 21.5402 33.6325 21.791 33.7578C22.0418 33.883 22.1044 34.1338 21.9791 34.3845C20.9134 36.6411 23.7342 36.5156 25.3637 37.3932C26.2413 35.3874 27.9337 34.4472 30.0649 35.1995C30.1901 35.325 30.3156 35.5758 30.2527 35.8266L30.2527 35.8265ZM30.5661 31.3762C30.6913 31.627 30.5661 31.8777 30.378 32.003C30.1272 32.1282 29.8764 32.003 29.7512 31.8148C29.6886 31.6896 29.4378 31.5641 29.2496 31.6267C28.2469 31.7519 27.9335 33.5699 26.3663 33.5699C25.7395 33.5699 25.1127 33.2565 24.7993 32.6924C24.6741 32.5042 24.7367 32.1909 24.9875 32.0656C25.1756 31.9404 25.489 32.003 25.6143 32.2538C25.8024 32.6298 26.3037 32.7553 26.68 32.6298C27.4323 32.3164 27.8082 30.9373 29.1245 30.7495C29.7515 30.6239 30.3157 30.8747 30.5662 31.3762L30.5661 31.3762ZM30.629 14.9541C30.5038 15.1422 30.1904 15.2048 30.0022 15.0793C29.3129 14.5778 27.9964 14.7659 26.8681 16.6462C26.6799 18.5895 27.7456 18.5895 28.8113 19.2162C29.6889 19.6549 30.253 20.658 30.3156 21.5981C30.3156 21.8488 30.1275 22.0367 29.877 22.0367C29.6262 22.0367 29.4384 21.8485 29.4384 21.5981C29.4384 20.9713 28.9997 20.2819 28.4356 19.9683C27.8088 19.6549 26.6805 19.5296 26.1163 18.025C24.612 20.595 22.7317 20.7829 21.6034 20.0308C21.4152 19.9056 21.3526 19.5922 21.4781 19.4041C21.6034 19.2159 21.9168 19.1533 22.1049 19.2788C22.7317 19.6548 23.6092 19.467 24.1734 19.0281C25.5525 17.9624 25.8658 15.7687 27.4328 14.5778C28.2477 13.951 29.5639 13.6376 30.5669 14.327C30.6916 14.4525 30.7542 14.7659 30.629 14.9541L30.629 14.9541Z" fill="white"/>
</svg>
