<svg width="64" height="64" viewBox="0 0 64 64" fill="none" xmlns="http://www.w3.org/2000/svg">
<path d="M64 31.9991C64 49.6721 49.6721 63.9973 31.9991 63.9973C14.327 63.9973 0 49.6721 0 31.9991C0 14.3261 14.327 0 31.9991 0C49.6721 0 64 14.3261 64 31.9991Z" fill="#FF3CB1"/>
<path d="M38.9425 41.2571L39.8543 41.4545C40.1217 40.2174 40.5604 39.0209 41.1577 37.898L40.3342 37.4597C39.6967 38.6582 39.2282 39.936 38.9424 41.2571L38.9425 41.2571Z" fill="white"/>
<path d="M40.9478 36.4139L41.732 36.9189C41.93 36.6112 42.1413 36.3101 42.3603 36.0235L41.6193 35.4573C41.3848 35.7637 41.159 36.0855 40.9478 36.4139V36.4139Z" fill="white"/>
<path d="M22.3649 36.0454L21.5884 36.5625C21.8278 36.922 22.0536 37.2924 22.2593 37.6637L23.075 37.2115C22.8569 36.8182 22.6182 36.426 22.3649 36.0454L22.3649 36.0454Z" fill="white"/>
<path d="M22.9116 38.991C23.4654 40.2769 23.8172 41.6087 23.9578 42.9496L24.8856 42.8526C24.7352 41.4175 24.3593 39.9945 23.7684 38.6218L22.9116 38.991Z" fill="white"/>
<path d="M31.3218 9.95557H32.2546V14.0625H31.3218V9.95557Z" fill="white"/>
<path d="M23.4096 12.0751L25.4631 15.6316L24.655 16.098L22.6016 12.5415L23.4096 12.0751Z" fill="white"/>
<path d="M19.8998 21.1964L16.3433 19.1429L16.8097 18.3348L20.3662 20.3883L19.8998 21.1964Z" fill="white"/>
<path d="M14.2222 27.0548H18.3291V27.9876H14.2222V27.0548Z" fill="white"/>
<path d="M16.8097 36.709L16.3433 35.9009L19.9003 33.8478L20.3667 34.6558L16.8097 36.709Z" fill="white"/>
<path d="M46.7699 36.7089L43.2134 34.6555L43.6798 33.8474L47.2363 35.9009L46.7699 36.7089Z" fill="white"/>
<path d="M45.2471 27.0548H49.354V27.9876H45.2471V27.0548Z" fill="white"/>
<path d="M46.767 18.3354L47.2334 19.1435L43.6764 21.1966L43.21 20.3886L46.767 18.3354Z" fill="white"/>
<path d="M40.1679 12.0751L40.9759 12.5415L38.9228 16.0985L38.1147 15.6321L40.1679 12.0751Z" fill="white"/>
<path d="M23.9159 26.9987C23.5335 26.9987 23.2163 27.3112 23.2163 27.6983C23.2629 28.165 23.5666 28.3979 23.9159 28.3979C24.303 28.3979 24.6155 28.0903 24.6155 27.6983C24.6155 27.3113 24.303 26.9987 23.9159 26.9987Z" fill="white"/>
<path d="M23.9155 26.0656C24.1302 26.0656 24.3353 26.1076 24.5218 26.187L26.2475 24.3213C26.2009 24.1675 26.1635 24.0041 26.1635 23.8364C26.1635 23.5939 26.2241 23.3607 26.322 23.146L24.0412 20.8652C22.3714 22.6888 21.3313 25.1003 21.2798 27.7542L22.3059 27.4697C22.423 26.6768 23.0945 26.0655 23.9155 26.0655L23.9155 26.0656Z" fill="white"/>
<path d="M23.5427 34.5217L26.4391 32.2549C26.2958 31.8731 26.2902 31.5583 26.3925 31.2053L24.5222 29.209C24.331 29.2838 24.1256 29.3304 23.9159 29.3304C23.2722 29.3304 22.7079 28.9527 22.4466 28.3976L21.3037 28.7148C21.4436 30.7158 22.1386 32.6048 23.3374 34.2234C23.4122 34.321 23.4727 34.4238 23.5428 34.5218L23.5427 34.5217Z" fill="white"/>
<path d="M28.4964 23.8365C28.4964 23.4538 28.1838 23.1368 27.7968 23.1368C27.4237 23.1368 27.0972 23.4417 27.0972 23.8365C27.0972 24.2235 27.4144 24.5361 27.7968 24.5361C28.1684 24.5361 28.4964 24.2463 28.4964 23.8365Z" fill="white"/>
<path d="M27.3447 31.3224C27.2023 31.5951 27.2388 31.8756 27.4053 32.0921C27.6338 32.3812 28.0722 32.4464 28.3708 32.2274C28.7091 31.976 28.7329 31.5161 28.5108 31.2387C28.1809 30.8205 27.577 30.9023 27.3447 31.3224L27.3447 31.3224Z" fill="white"/>
<path d="M30.6181 28.9858C30.5341 28.79 30.4875 28.5849 30.4875 28.3656C30.4875 28.0764 30.5761 27.7966 30.7207 27.5445L28.4866 25.3104C28.2719 25.4083 28.0387 25.4689 27.7962 25.4689C27.4138 25.4689 27.0685 25.3289 26.7886 25.1096L25.2541 26.7655C25.4407 27.0314 25.5479 27.3533 25.5479 27.6983C25.5479 28.0341 25.4361 28.3559 25.2495 28.6265L26.9193 30.4035C27.4759 29.9473 28.2744 29.8905 28.8924 30.3383L30.6181 28.9858Z" fill="white"/>
<path d="M31.6541 27.8472C31.3758 28.1076 31.3393 28.5147 31.584 28.8128C31.8403 29.1254 32.3583 29.1439 32.6428 28.8313C32.8625 28.5858 32.8804 28.2117 32.6849 27.9544C32.4297 27.6112 31.9519 27.5714 31.6541 27.8472L31.6541 27.8472Z" fill="white"/>
<path d="M24.7037 20.2071L26.9471 22.4505C27.2034 22.2967 27.4929 22.2034 27.7958 22.2034C28.2156 22.2034 28.6122 22.3668 28.9106 22.642L32.0822 20.944C32.0636 20.8461 32.0448 20.7436 32.0448 20.641C32.0448 20.0579 32.3481 19.5448 32.8238 19.2557L32.1801 17.4645C29.2979 17.3619 26.6626 18.4161 24.7036 20.2071L24.7037 20.2071Z" fill="white"/>
<path d="M31.7892 53.3334C32.7733 53.3334 33.5989 52.643 33.8136 51.7195H29.7651C29.9795 52.6431 30.8002 53.3334 31.7893 53.3334H31.7892Z" fill="white"/>
<path d="M33.9861 21.2706C34.2239 21.1539 34.3778 20.9068 34.3778 20.6411C34.3778 20.2538 34.0652 19.9415 33.6781 19.9415C33.3112 19.9415 32.9785 20.2415 32.9785 20.6411C32.9785 21.1455 33.5305 21.4952 33.9861 21.2706H33.9861Z" fill="white"/>
<path d="M32.9783 36.1735C32.9178 36.2575 32.8384 36.4021 32.8384 36.5933C32.8384 37.2308 33.6294 37.5347 34.0557 37.0643C34.1397 36.9757 34.2376 36.8172 34.2376 36.5933C34.2376 35.9313 33.3913 35.6324 32.9783 36.1735H32.9783Z" fill="white"/>
<path d="M33.8228 31.4339C33.8228 31.2099 33.8741 30.9909 33.9627 30.7902L32.9413 29.764C32.6892 29.9086 32.4097 29.9972 32.1202 29.9972C31.7891 29.9972 31.4765 29.8901 31.2106 29.7081L29.471 31.0653C29.5457 31.2519 29.5877 31.457 29.5877 31.6624C29.5877 31.9843 29.4852 32.2876 29.3125 32.5486L32.5916 35.2723C32.94 35.0243 33.2443 34.9646 33.5992 34.9646L34.35 32.6184C34.0232 32.3154 33.8228 31.891 33.8228 31.4338L33.8228 31.4339Z" fill="white"/>
<path d="M31.4017 26.9054C31.6256 26.7982 31.8681 26.7327 32.1201 26.7327C32.4701 26.7327 32.8058 26.8541 33.081 27.0592L34.1677 26.2058C34.0509 25.9726 33.9765 25.7205 33.9765 25.4549C33.9765 24.9511 34.2097 24.4893 34.5874 24.1863L33.8924 22.2506C33.8223 22.2598 33.7525 22.2741 33.6778 22.2741C33.2253 22.2741 32.8101 22.0875 32.5071 21.7749L29.3821 23.4494C29.4102 23.5754 29.4287 23.7057 29.4287 23.8364C29.4287 24.1443 29.3401 24.4335 29.1816 24.6852L31.4017 26.9054Z" fill="white"/>
<path d="M35.2229 49.4199H28.3525C27.9793 49.4199 27.6714 49.7232 27.6714 50.101C27.6714 50.4788 27.9793 50.7867 28.3525 50.7867H35.2229C35.6007 50.7867 35.9087 50.4791 35.9087 50.101C35.9083 49.7229 35.6007 49.4199 35.2229 49.4199Z" fill="white"/>
<path d="M35.2229 47.1158H28.3525C27.9793 47.1158 27.6714 47.4235 27.6714 47.8016C27.6714 48.1793 27.9793 48.4873 28.3525 48.4873H35.2229C35.6007 48.4873 35.9087 48.1796 35.9087 47.8016C35.9087 47.4238 35.6007 47.1158 35.2229 47.1158Z" fill="white"/>
<path d="M35.2229 44.8163H28.3525C27.9793 44.8163 27.6714 45.1242 27.6714 45.502C27.6714 45.8798 27.9793 46.1831 28.3525 46.1831H35.2229C35.6007 46.1831 35.9087 45.8798 35.9087 45.502C35.9083 45.1239 35.6007 44.8163 35.2229 44.8163Z" fill="white"/>
<path d="M34.9092 31.0006C34.8066 31.1267 34.7554 31.2712 34.7554 31.4343C34.7554 31.9986 35.4238 32.3523 35.889 31.9847C36.1725 31.7623 36.2507 31.3475 36.0196 31.0192C35.758 30.6649 35.1844 30.6556 34.9092 31.0006V31.0006Z" fill="white"/>
<path d="M36.3094 25.4544C36.3094 25.0606 35.9916 24.7548 35.6098 24.7548C35.2314 24.7548 34.9102 25.0661 34.9102 25.4544C34.9102 25.8176 35.1968 26.154 35.6098 26.154C35.9968 26.154 36.3094 25.8417 36.3094 25.4544Z" fill="white"/>
<path d="M33.5394 38.2255C33.1344 38.2255 32.7517 38.0346 32.4589 37.755C31.8479 37.1719 31.8155 36.5516 32.0184 36.0102L28.5948 33.1605C28.0262 33.3986 27.469 33.3087 27.0182 32.9878L24.0752 35.2921C25.6286 37.7128 26.5441 40.3565 26.7563 43.0555C26.7933 43.5259 27.1952 43.8836 27.6672 43.8836H35.9003C36.3834 43.8836 36.781 43.5062 36.8131 43.0244C36.8795 42.0301 37.0231 41.1445 37.2236 40.3386L34.3878 37.9784C34.136 38.1369 33.8469 38.2252 33.5393 38.2255L33.5394 38.2255Z" fill="white"/>
<path d="M36.0995 32.9269C35.899 33.0155 35.6844 33.0668 35.4558 33.0668C35.3718 33.0668 35.2831 33.0483 35.1994 33.0341L34.481 35.2635C34.9054 35.5573 35.1713 36.0518 35.1713 36.5929C35.1713 36.8354 35.1154 37.0686 35.0129 37.2833L37.5083 39.359C37.942 38.0298 38.5251 36.9383 39.1269 35.9541L36.0995 32.9269Z" fill="white"/>
<path d="M39.495 28.2955L36.6592 26.6958C36.3747 26.9383 36.0108 27.0875 35.6096 27.0875C35.3298 27.0875 35.0638 27.0127 34.8214 26.8774L33.6507 27.7963C33.7159 27.9783 33.7532 28.1695 33.7532 28.3653C33.7532 28.6173 33.6881 28.8598 33.5806 29.0837L34.5693 30.0771C34.8306 29.9044 35.1336 29.8019 35.4555 29.8019C35.8286 29.8019 36.1786 29.9325 36.463 30.1565L39.495 28.2955Z" fill="white"/>
<path d="M35.3113 20.6411C35.3113 21.1168 35.1016 21.5647 34.7516 21.8723L35.4559 23.8359C35.5071 23.8312 35.5584 23.822 35.6097 23.822C36.0156 23.822 36.3933 23.9758 36.6871 24.2325L40.0826 21.5693C38.4267 19.433 35.9782 17.9359 33.2075 17.5579L33.7298 19.0133C34.6068 19.0411 35.3113 19.7595 35.3113 20.6411L35.3113 20.6411Z" fill="white"/>
<path d="M37.1858 25.0306C37.2231 25.1659 37.2417 25.3104 37.2417 25.455C37.2417 25.6134 37.2136 25.7676 37.1719 25.9121L40.4043 27.7357L42.2141 26.6303C42.009 25.0726 41.4493 23.6125 40.6237 22.3344L37.1858 25.0306Z" fill="white"/>
<path d="M37.0882 31.4339C37.0882 31.7558 36.9857 32.0591 36.813 32.3248L39.635 35.1467C39.7143 35.0207 39.7934 34.8996 39.8728 34.7782C41.2254 32.7026 42.3915 30.8975 42.2981 27.6699L37.0043 30.9163C37.0602 31.0843 37.0883 31.2567 37.0883 31.434L37.0882 31.4339Z" fill="white"/>
</svg>
