<svg width="64" height="64" viewBox="0 0 64 64" fill="none" xmlns="http://www.w3.org/2000/svg">
<path d="M64 32C64 49.6743 49.6726 64 32 64C14.3248 64 0 49.6743 0 32C0 14.3274 14.3248 0 32 0C49.6726 0 64 14.3274 64 32Z" fill="#F6B354"/>
<path d="M16.5487 35.1925L19.2708 35.181C18.9938 34.7645 18.8443 34.276 18.8399 33.7758C18.8314 32.0608 20.591 30.6608 22.7703 30.6274C24.9494 30.5937 26.72 31.9909 26.712 33.7104L26.7121 33.7101C26.7091 34.2095 26.563 34.6975 26.2915 35.1167L29.3744 35.1048L29.3563 31.4742L29.356 31.4741C29.3551 31.3272 29.4447 31.195 29.5813 31.1412C29.717 31.0868 29.8724 31.1223 29.9708 31.2307C30.3491 31.6685 30.8961 31.9248 31.4747 31.9349C32.7992 31.9267 33.8669 30.4728 33.8559 28.692L33.8558 28.6923C33.8667 27.8604 33.606 27.0479 33.1126 26.3782C32.7253 25.8251 32.0988 25.4884 31.4239 25.4698C30.8453 25.4841 30.3007 25.7466 29.9287 26.1901C29.8353 26.308 29.673 26.3452 29.5372 26.2802C29.4003 26.2288 29.3101 26.0977 29.3103 25.9515L29.2926 22.261L18.3543 22.3494C17.8641 22.3593 17.3971 22.5591 17.0512 22.9066C16.7053 23.2541 16.5074 23.7222 16.4999 24.2122L16.5487 35.1925Z" fill="white"/>
<path d="M36.2784 19.2959C37.1228 19.0105 38.0526 19.1454 38.781 19.6591C39.5884 20.2255 40.1983 21.0297 40.5265 21.9598C40.8542 22.8897 40.8833 23.8987 40.6098 24.846C40.3633 25.7006 39.7304 26.39 38.9005 26.709C38.4287 26.8701 37.9205 26.8927 37.4362 26.774L38.3739 29.4956L42.538 28.0345L42.5376 28.0344C42.6747 27.9822 42.83 28.0239 42.9229 28.1373C43.0179 28.2473 43.0355 28.4049 42.9665 28.533C42.6769 29.034 42.6136 29.6341 42.7916 30.1847C43.2315 31.433 44.9542 31.9677 46.6354 31.3765C48.3163 30.7853 49.3198 29.2994 48.8844 28.0381L48.8841 28.0379C48.6797 27.497 48.2534 27.0691 47.7132 26.8627C47.5826 26.803 47.5015 26.6698 47.5086 26.5267C47.5147 26.3807 47.6081 26.2527 47.7457 26.2031L50.4872 25.2373L46.8484 14.8952C46.6781 14.4317 46.3331 14.0531 45.8877 13.8404C45.4418 13.6278 44.931 13.5974 44.4634 13.7562L34.1198 17.3993L35.0901 20.157C35.3949 19.7615 35.8075 19.4626 36.2785 19.2958L36.2784 19.2959Z" fill="white"/>
<path d="M29.8924 40.2442C29.7569 40.299 29.6016 40.2653 29.501 40.159C29.122 39.7195 28.5745 39.4613 27.9944 39.4486C27.325 39.4787 26.709 39.8227 26.3323 40.3767C25.8437 41.0496 25.5906 41.8649 25.6116 42.6962C25.6182 44.4755 26.7012 45.9207 28.0076 45.9062C28.5862 45.8919 29.1311 45.6295 29.5028 45.1859C29.5262 45.1587 29.5545 45.1363 29.5859 45.1192L29.6127 45.1285C29.6325 45.1178 29.6537 45.1098 29.6759 45.1053C29.7042 45.0982 29.7337 45.0966 29.7625 45.1002L29.843 45.128C29.9799 45.1795 30.0705 45.3106 30.07 45.4567L30.0862 48.7011L41.0481 48.6456L41.0484 48.6457C41.5386 48.6358 42.0058 48.4364 42.3517 48.0889C42.6977 47.7414 42.8952 47.2733 42.9028 46.7829L42.9245 35.7726L40.7784 35.7825C41.0576 36.2009 41.2118 36.6899 41.2226 37.1926C41.201 38.0795 40.7658 38.9052 40.0465 39.4248C39.2452 40.0044 38.2822 40.3186 37.2932 40.323C36.3039 40.3271 35.3381 40.0213 34.532 39.4483C33.8064 38.9363 33.3622 38.1143 33.3315 37.2268C33.3347 36.7271 33.4805 36.239 33.7519 35.8198L30.093 35.8333L30.1109 39.9145C30.1142 40.0596 30.0269 40.1911 29.8919 40.2444L29.8924 40.2442Z" fill="white"/>
<path d="M25.2123 35.6347C25.1576 35.4989 25.1933 35.3436 25.3017 35.2452C25.7372 34.8647 25.9929 34.3193 26.0061 33.741C25.9978 32.4165 24.5439 31.3489 22.7693 31.3571C20.9944 31.3652 19.5433 32.451 19.5549 33.7515L19.5545 33.7517C19.5736 34.3306 19.8371 34.8742 20.2796 35.2483C20.3851 35.3472 20.4203 35.5004 20.3681 35.6353C20.3159 35.7703 20.1871 35.8602 20.0425 35.8624L16.5568 35.8805L16.6123 46.8423L16.6122 46.8426C16.6221 47.3328 16.822 47.7999 17.1694 48.1458C17.5169 48.4917 17.9851 48.6893 18.475 48.6971L29.4368 48.6416L29.4351 46.138C29.0179 46.412 28.5306 46.5601 28.0315 46.5644C26.3165 46.573 24.9105 44.8162 24.8816 42.6384L24.8815 42.6387C24.8624 41.6503 25.168 40.683 25.7516 39.8855C26.2591 39.1548 27.0841 38.7091 27.9735 38.6851C28.4732 38.6841 28.9624 38.8285 29.3817 39.1011L29.3866 35.8388L25.5451 35.8591L25.5448 35.859C25.3986 35.8574 25.2678 35.769 25.2121 35.6342L25.2123 35.6347Z" fill="white"/>
</svg>
