<svg width="34" height="26" viewBox="0 0 34 26" fill="none" xmlns="http://www.w3.org/2000/svg">
<path d="M10.2646 17.1812C10.96 17.703 11.3588 18.4754 11.3588 19.3006V22.4564L12.9544 25.6013H20.1495L21.7451 22.4564V19.3084C21.7451 18.479 22.1456 17.7023 22.844 17.1777C25.292 15.3386 26.696 12.5863 26.696 9.62678C26.696 4.31859 22.1453 0 16.5519 0C16.4212 0 16.2887 0.0024455 16.1578 0.00709194C13.5299 0.101896 11.0729 1.1533 9.23945 2.96769C7.40708 4.78103 6.40139 7.1543 6.40774 9.65034C6.4153 12.6028 7.82102 15.3477 10.2646 17.1812ZM18.5301 23.1558H14.5735L13.9357 21.8984V20.5233H19.168V21.8984L18.5301 23.1558ZM11.0994 4.66038C12.4679 3.30615 14.2991 2.52139 16.2556 2.45088C16.354 2.44737 16.4538 2.4455 16.5519 2.4455C20.7244 2.4455 24.119 5.66703 24.119 9.6267C24.119 11.8344 23.0712 13.8877 21.2445 15.2601C20.2754 15.9881 19.6115 16.9775 19.3263 18.0778H13.7792C13.4951 16.9783 12.8316 15.9896 11.8629 15.2628C10.0394 13.8945 8.99043 11.8467 8.98477 9.64447C8.97996 7.78467 9.73096 6.01454 11.0994 4.66038Z" fill="white"/>
<path d="M0 8.4248H3.83057V10.8704H0V8.4248Z" fill="white"/>
<path d="M1.57324 2.85352L2.86171 0.735787L6.17895 2.5533L4.89048 4.67103L1.57324 2.85352Z" fill="white"/>
<path d="M1.57275 16.4414L4.89 14.6239L6.17847 16.7416L2.86122 18.5591L1.57275 16.4414Z" fill="white"/>
<path d="M29.2725 8.4248H33.103V10.8704H29.2725V8.4248Z" fill="white"/>
<path d="M26.9233 2.55273L30.2406 0.735221L31.5291 2.85295L28.2118 4.67046L26.9233 2.55273Z" fill="white"/>
<path d="M26.9238 16.7432L28.2123 14.6253L31.5296 16.4429L30.2411 18.5608L26.9238 16.7432Z" fill="white"/>
</svg>
