<svg width="433" height="483" viewBox="0 0 433 483" fill="none" xmlns="http://www.w3.org/2000/svg">
<circle cx="17.1031" cy="347.103" r="6.10311" fill="#F6AF49"/>
<circle cx="40.5767" cy="347.103" r="6.10311" fill="#F6AF49"/>
<circle cx="64.0504" cy="347.103" r="6.10311" fill="#F6AF49"/>
<circle cx="87.5235" cy="347.103" r="6.10311" fill="#F6AF49"/>
<circle cx="17.1031" cy="369.638" r="6.10311" fill="#F6AF49"/>
<circle cx="40.5767" cy="369.638" r="6.10311" fill="#F6AF49"/>
<circle cx="64.0504" cy="369.638" r="6.10311" fill="#F6AF49"/>
<circle cx="87.5235" cy="369.638" r="6.10311" fill="#F6AF49"/>
<circle cx="17.1031" cy="392.172" r="6.10311" fill="#F6AF49"/>
<circle cx="40.5767" cy="392.172" r="6.10311" fill="#F6AF49"/>
<circle cx="64.0504" cy="392.172" r="6.10311" fill="#F6AF49"/>
<circle cx="87.5235" cy="392.172" r="6.10311" fill="#F6AF49"/>
<circle cx="17.1031" cy="414.707" r="6.10311" fill="#F6AF49"/>
<circle cx="40.5767" cy="414.707" r="6.10311" fill="#F6AF49"/>
<circle cx="64.0504" cy="414.707" r="6.10311" fill="#F6AF49"/>
<circle cx="87.5235" cy="414.707" r="6.10311" fill="#F6AF49"/>
<path d="M421.729 225.381C392.563 271.002 330.322 412.098 345.632 464.462L122.34 464.515C122.34 464.515 90.0749 439.418 58.7302 395.783C53.0338 387.856 47.3686 379.308 41.9371 370.194C36.1695 360.537 30.6668 350.236 25.6663 339.339C11.1335 307.736 0.764047 271.109 0.344219 230.627C-1.11768 90.4921 114.977 -39.7481 272.91 12.8077C430.841 65.3635 450.885 179.759 421.729 225.381Z" fill="#674197"/>
<path d="M282.023 466.115C281.575 466.115 281.13 465.91 280.826 465.517L161.747 310.838C161.216 310.148 161.321 309.14 161.981 308.584C162.642 308.03 163.608 308.139 164.138 308.829L283.218 463.507C283.749 464.196 283.644 465.206 282.984 465.76C282.7 465.999 282.362 466.115 282.023 466.115Z" fill="#DF3E26"/>
<path d="M97.3056 466.115C96.9683 466.115 96.6284 465.999 96.346 465.76C95.6863 465.205 95.5813 464.196 96.1111 463.507L215.191 308.829C215.723 308.138 216.688 308.03 217.347 308.583C218.008 309.14 218.113 310.147 217.581 310.838L98.5026 465.517C98.199 465.91 97.7542 466.115 97.3056 466.115Z" fill="#F2632C"/>
<path d="M216.387 466.115C215.938 466.115 215.495 465.91 215.191 465.517L96.1111 310.838C95.5813 310.147 95.6863 309.14 96.346 308.583C97.007 308.03 97.9716 308.138 98.5026 308.829L217.581 463.507C218.112 464.196 218.007 465.205 217.348 465.76C217.064 465.999 216.724 466.115 216.387 466.115Z" fill="#F2632C"/>
<path d="M118.414 313.939H63.092C60.9204 313.939 59.1611 312.1 59.1611 309.833C59.1611 307.565 60.9204 305.727 63.092 305.727H118.414C120.585 305.727 122.345 307.565 122.345 309.833C122.345 312.1 120.585 313.939 118.414 313.939Z" fill="#DF3E26"/>
<path d="M277.592 313.939H119.472C117.302 313.939 115.542 312.1 115.542 309.833C115.542 307.565 117.302 305.727 119.472 305.727H277.592V313.939Z" fill="#F2632C"/>
<path d="M161.146 387.173C161.146 389.651 159.224 391.659 156.853 391.659C154.481 391.659 152.56 389.651 152.56 387.173C152.56 384.697 154.481 382.688 156.853 382.688C159.224 382.688 161.146 384.697 161.146 387.173Z" fill="#DF3E26"/>
<path d="M226.782 387.173C226.782 389.651 224.859 391.659 222.489 391.659C220.117 391.659 218.196 389.651 218.196 387.173C218.196 384.697 220.117 382.688 222.489 382.688C224.859 382.688 226.782 384.697 226.782 387.173Z" fill="#FFC948"/>
<path d="M169.65 183.128H113.916C111.163 183.128 108.933 180.797 108.933 177.922V134.618C108.933 131.743 111.163 129.412 113.916 129.412H169.65C172.403 129.412 174.633 131.743 174.633 134.618V177.922C174.633 180.797 172.403 183.128 169.65 183.128Z" fill="#2FBEC2"/>
<path d="M143.474 164.9C137.848 166.013 133.013 160.962 134.078 155.084C134.671 151.801 137.207 149.152 140.35 148.531C145.977 147.42 150.811 152.469 149.746 158.347C149.152 161.632 146.617 164.28 143.474 164.9ZM156.039 153.131H153.976C153.66 151.954 153.193 150.838 152.584 149.815L154.176 148.154C154.782 147.519 154.782 146.491 154.176 145.858L151.936 143.517C151.328 142.884 150.345 142.884 149.738 143.517L148.046 145.284C147.111 144.735 146.109 144.304 145.051 144.023V141.374C145.051 140.477 144.356 139.751 143.498 139.751H140.33C139.472 139.751 138.776 140.477 138.776 141.374V144.053C137.749 144.33 136.776 144.738 135.868 145.261L134.012 143.32C133.406 142.687 132.421 142.687 131.815 143.32L129.575 145.66C128.968 146.295 128.968 147.322 129.575 147.957L131.294 149.753C130.719 150.708 130.267 151.751 129.942 152.853H127.523C126.665 152.853 125.969 153.579 125.969 154.476V157.785C125.969 158.682 126.665 159.409 127.523 159.409H129.642C129.881 160.632 130.283 161.796 130.834 162.874L129.386 164.386C128.779 165.02 128.779 166.048 129.386 166.681L131.626 169.021C132.234 169.656 133.217 169.656 133.824 169.021L135.081 167.708C136.13 168.421 137.284 168.972 138.51 169.328V171.165C138.51 172.062 139.206 172.789 140.064 172.789H143.232C144.09 172.789 144.786 172.062 144.786 171.165V169.451C146.055 169.139 147.251 168.634 148.34 167.954L149.55 169.219C150.156 169.853 151.14 169.853 151.747 169.219L153.987 166.878C154.595 166.245 154.595 165.216 153.987 164.583L152.744 163.284C153.361 162.177 153.825 160.97 154.11 159.687H156.039C156.896 159.687 157.593 158.96 157.593 158.063V154.754C157.593 153.857 156.896 153.131 156.039 153.131Z" fill="white"/>
<path d="M253.555 153.455H197.819C195.068 153.455 192.836 151.125 192.836 148.249V104.946C192.836 102.07 195.068 99.7402 197.819 99.7402H253.555C256.307 99.7402 258.538 102.07 258.538 104.946V148.249C258.538 151.125 256.307 153.455 253.555 153.455Z" fill="#F6AF49"/>
<path d="M214.606 135.625C214.214 135.625 213.822 135.458 213.522 135.124L206.597 127.38C205.998 126.71 205.998 125.624 206.597 124.956L213.639 117.083C214.238 116.414 215.21 116.414 215.808 117.083C216.408 117.753 216.408 118.839 215.808 119.507L209.851 126.167L215.691 132.698C216.291 133.368 216.291 134.454 215.691 135.124C215.391 135.458 215 135.625 214.606 135.625Z" fill="white"/>
<path d="M236.792 135.625C236.399 135.625 236.007 135.458 235.707 135.124C235.107 134.454 235.107 133.368 235.707 132.698L241.548 126.167L235.59 119.507C234.991 118.839 234.991 117.753 235.59 117.083C236.189 116.414 237.16 116.414 237.759 117.083L244.802 124.956C245.091 125.277 245.251 125.713 245.251 126.167C245.251 126.623 245.091 127.059 244.802 127.38L237.876 135.124C237.576 135.458 237.183 135.625 236.792 135.625Z" fill="white"/>
<path d="M222.253 137.754C222.061 137.754 221.866 137.713 221.676 137.627C220.89 137.271 220.514 136.269 220.833 135.392L227.706 116.512C228.026 115.638 228.917 115.211 229.706 115.571C230.491 115.928 230.868 116.929 230.55 117.806L223.675 136.686C223.431 137.35 222.858 137.754 222.253 137.754Z" fill="white"/>
<path d="M303.872 163.774H165.584V159.34C165.584 158.143 166.511 157.173 167.657 157.173H301.799C302.945 157.173 303.872 158.143 303.872 159.34V163.774Z" fill="white"/>
<path d="M300.013 240.801H169.445C167.312 240.801 165.584 238.995 165.584 236.766V163.776H303.872V236.766C303.872 238.995 302.145 240.801 300.013 240.801Z" fill="#373873"/>
<path d="M297.24 160.476C297.24 161.037 296.804 161.491 296.268 161.491C295.731 161.491 295.295 161.037 295.295 160.476C295.295 159.914 295.731 159.46 296.268 159.46C296.804 159.46 297.24 159.914 297.24 160.476Z" fill="#F2632C"/>
<path d="M290.554 160.476C290.554 161.037 290.119 161.492 289.581 161.492C289.044 161.492 288.609 161.037 288.609 160.476C288.609 159.915 289.044 159.46 289.581 159.46C290.119 159.46 290.554 159.915 290.554 160.476Z" fill="#F2632C"/>
<path d="M283.868 160.476C283.868 161.037 283.432 161.492 282.895 161.492C282.359 161.492 281.924 161.037 281.924 160.476C281.924 159.915 282.359 159.46 282.895 159.46C283.432 159.46 283.868 159.915 283.868 160.476Z" fill="#F2632C"/>
<path d="M249.543 174.186H172.751C172.013 174.186 171.414 173.561 171.414 172.789C171.414 172.018 172.013 171.393 172.751 171.393H249.543C250.282 171.393 250.879 172.018 250.879 172.789C250.879 173.561 250.282 174.186 249.543 174.186Z" fill="#2FBEC2"/>
<path d="M249.543 183.073H172.751C172.013 183.073 171.414 182.448 171.414 181.677C171.414 180.905 172.013 180.28 172.751 180.28H249.543C250.282 180.28 250.879 180.905 250.879 181.677C250.879 182.448 250.282 183.073 249.543 183.073Z" fill="#2FBEC2"/>
<path d="M212.91 191.957H172.751C172.013 191.957 171.414 191.332 171.414 190.56C171.414 189.789 172.013 189.164 172.751 189.164H212.91C213.647 189.164 214.245 189.789 214.245 190.56C214.245 191.332 213.647 191.957 212.91 191.957Z" fill="#2FBEC2"/>
<path d="M249.543 209.728H172.751C172.013 209.728 171.414 209.103 171.414 208.331C171.414 207.56 172.013 206.934 172.751 206.934H249.543C250.282 206.934 250.879 207.56 250.879 208.331C250.879 209.103 250.282 209.728 249.543 209.728Z" fill="#F2632C"/>
<path d="M212.91 218.614H172.751C172.013 218.614 171.414 217.988 171.414 217.217C171.414 216.447 172.013 215.822 172.751 215.822H212.91C213.647 215.822 214.245 216.447 214.245 217.217C214.245 217.988 213.647 218.614 212.91 218.614Z" fill="#F2632C"/>
<path d="M212.91 227.501H172.751C172.013 227.501 171.414 226.876 171.414 226.104C171.414 225.334 172.013 224.709 172.751 224.709H212.91C213.647 224.709 214.245 225.334 214.245 226.104C214.245 226.876 213.647 227.501 212.91 227.501Z" fill="#2FBEC2"/>
<path d="M249.547 191.957H220.688C219.949 191.957 219.352 191.332 219.352 190.56C219.352 189.789 219.949 189.164 220.688 189.164H249.547C250.286 189.164 250.883 189.789 250.883 190.56C250.883 191.332 250.286 191.957 249.547 191.957Z" fill="white"/>
<path d="M287.665 172.003L267.26 193.322C266.737 193.867 265.892 193.867 265.369 193.322C264.847 192.776 264.847 191.891 265.369 191.346L285.775 170.028C286.297 169.483 287.144 169.483 287.665 170.028C288.187 170.573 288.187 171.458 287.665 172.003Z" fill="#F2632C"/>
<path d="M288.549 212.333C288.549 219.275 283.16 224.904 276.515 224.904C269.87 224.904 264.482 219.275 264.482 212.333C264.482 205.39 269.87 199.761 276.515 199.761C283.16 199.761 288.549 205.39 288.549 212.333Z" fill="#F2632C"/>
<path d="M274.935 221.094C274.935 225.025 271.886 228.211 268.124 228.211C264.362 228.211 261.312 225.025 261.312 221.094C261.312 217.164 264.362 213.977 268.124 213.977C271.886 213.977 274.935 217.164 274.935 221.094Z" fill="#2FBEC2"/>
<path d="M165.584 233.008V258.425L187.942 235.064" fill="#373873"/>
<path d="M141.788 265.292H190.845L208.586 300.963H159.528L141.788 265.292Z" fill="#87BFBC"/>
<path d="M160.514 298.325L145.825 268.79C145.517 268.17 145.947 267.431 146.616 267.431H189.056C189.388 267.431 189.692 267.623 189.846 267.931L204.534 297.466C204.843 298.086 204.413 298.825 203.745 298.825H161.305C160.972 298.825 160.667 298.633 160.514 298.325Z" fill="white"/>
<path d="M199.263 300.963H159.531V305.725H199.263V300.963Z" fill="#B8E2E2"/>
<path d="M233.39 300.963H194.183C192.924 300.963 191.905 302.03 191.905 303.343C191.905 304.659 192.924 305.725 194.183 305.725H233.39C234.65 305.725 235.669 304.659 235.669 303.343C235.669 302.03 234.65 300.963 233.39 300.963Z" fill="#9FCCC9"/>
<path d="M159.53 300.963L141.79 265.292L140.9 265.989C140.327 266.44 140.15 267.258 140.484 267.923L159.53 305.725V300.963Z" fill="#B8E2E2"/>
<path d="M177.381 303.188H173.007V303.982H177.381V303.188Z" fill="#9FCCC9"/>
<path d="M182.878 303.188H178.504V303.982H182.878V303.188Z" fill="#9FCCC9"/>
<path d="M188.375 303.188H184.002V303.982H188.375V303.188Z" fill="#9FCCC9"/>
<path d="M248.959 370.782C248.959 370.782 208.267 403.882 201.813 412.29C199.379 415.475 195.134 421.052 190.737 426.768C183.518 436.16 175.857 445.947 174.948 446.182C173.496 446.566 161.285 436.855 160.916 434.76C160.691 433.456 171.808 413.52 181.431 397.493C187.291 387.75 192.588 379.437 194.45 377.642C199.369 372.877 229.64 356.124 229.64 356.124L248.959 370.782Z" fill="#373873"/>
<path d="M291.379 225.626C290.951 226.652 290.458 227.72 289.907 228.81C286.931 234.751 289.13 240.702 285.734 242.219C285.53 242.305 285.304 242.39 285.049 242.443C280.672 243.459 270.589 237.368 270.148 234.324C269.709 231.278 273.257 226.065 270.148 225.434C267.04 224.804 265.362 230.263 265.362 230.263C262.806 230.541 261.896 226.065 257.702 226.065C257.109 226.065 256.527 226.151 255.965 226.3C253.991 226.813 252.263 228.084 251.157 229.067C250.34 229.782 249.869 230.349 249.869 230.349C249.869 230.349 246.136 227.881 246.31 223.019C246.606 215.316 249.326 209.697 255.882 208.553C256.608 199.985 263.358 195.412 272.377 195.123C280.284 194.866 281.469 202.293 281.653 204.141C281.583 202.762 281.215 198.231 279.333 195.123C283.29 194.941 286.777 197.891 285.866 207.506C286.777 204.644 289.968 202.837 292.422 204.931C290.152 204.931 287.963 208.926 287.963 208.926C287.963 208.926 290.633 210.711 292.454 214.012C293.967 216.738 293.395 220.765 291.379 225.626Z" fill="#382424"/>
<path d="M285.732 242.219L285.631 243.63L285.284 248.63C285.284 248.63 278.001 255.137 273.87 248.63L273.779 248.502C272.499 246.515 271.343 245.821 270.29 245.691C269.492 245.591 268.746 245.811 268.032 246.032C266.711 246.441 265.502 246.849 264.266 245.211C258.826 237.999 256.658 229.644 255.963 226.3C256.526 226.151 257.108 226.065 257.7 226.065C261.895 226.065 262.804 230.541 265.361 230.263C265.361 230.263 267.039 224.804 270.146 225.434C273.255 226.065 269.708 231.279 270.146 234.324C270.341 235.68 272.459 237.646 275.137 239.313C278.257 241.269 282.144 242.818 284.607 242.519C284.76 242.497 284.905 242.475 285.048 242.444C285.303 242.39 285.529 242.305 285.732 242.219Z" fill="#F9AC95"/>
<path d="M272.263 252.819C271.719 251.804 270.876 249.867 271.559 248.628C271.744 248.286 272.204 247.816 272.858 247.26C272.859 247.26 272.859 247.26 272.859 247.259C273.159 247.602 273.465 248.012 273.78 248.5L273.871 248.628C274.406 249.473 274.994 250.097 275.613 250.546C274.646 251.196 273.495 251.975 272.263 252.819Z" fill="#E6F4F5"/>
<path d="M275.603 250.549C274.984 250.1 274.396 249.476 273.861 248.631L273.77 248.504C273.455 248.015 273.149 247.605 272.849 247.262C274.169 246.13 276.296 244.679 278.494 243.482C278.494 243.482 278.495 243.482 278.495 243.48C277.947 244.334 277.672 244.932 277.583 245.138L277.573 245.213C277.419 245.907 277.266 246.634 277.123 247.393C276.967 248.179 276.811 248.994 276.657 249.842C276.338 250.054 275.985 250.292 275.603 250.549Z" fill="#F6967A"/>
<path d="M285.895 334.862C278.573 336.335 263.08 331.827 255.665 328.344C253.476 327.318 251.983 326.378 251.626 325.715C250.204 323.098 251.636 321.089 255.164 312.777C255.563 311.836 255.981 310.822 256.433 309.721C258.825 303.834 258.835 291.28 258.825 280.456C258.794 271.193 258.754 263.202 260.165 261.781C263.222 258.703 278.481 248.628 278.481 248.628L281.518 265.168C281.518 265.168 283.237 273.566 285.047 284.528C288.381 304.71 292.043 333.622 285.895 334.862Z" fill="#2FBEC2"/>
<path d="M291.002 342.223C291.002 342.981 283.71 360.749 277.594 363.291C271.479 365.834 234.622 363.036 234.622 363.036L216.398 375.482L220.211 412.985L222.87 439.117L222.953 439.963C217.379 443.765 203.338 444.791 201.824 441.511L201.814 441.489C200.351 438.187 177.996 367.864 186.75 355.673C195.494 343.494 251.628 325.715 251.628 325.715C253.091 326.687 254.788 327.563 256.64 328.344C262.877 331.015 270.804 332.692 276.838 333.675C279.158 334.05 281.194 334.328 282.748 334.518C284.712 334.765 285.898 334.862 285.898 334.862C285.898 334.862 291.002 341.454 291.002 342.223Z" fill="#373873"/>
<path d="M225.25 464.464H177.86C177.625 463.588 177.942 462.702 178.658 461.804C180.58 459.389 185.397 456.963 190.04 454.869C194.448 452.881 198.682 451.174 200.103 449.998C203.448 447.23 201.904 441.846 201.811 441.514C202.322 442.615 204.255 443.233 206.813 443.416C211.833 443.789 219.249 442.487 222.94 439.966L222.857 439.12C224.269 441.941 224.933 455.885 225.159 461.804C225.22 463.438 225.25 464.464 225.25 464.464Z" fill="#1E2657"/>
<path d="M206.816 443.415C206.672 445.777 206.345 449.6 205.69 450.628C204.719 452.155 194.267 457.486 192.814 456.974C191.875 456.653 190.729 455.584 190.043 454.869C194.451 452.881 198.686 451.173 200.106 449.997C203.451 447.23 201.907 441.845 201.814 441.513C202.325 442.614 204.258 443.233 206.816 443.415Z" fill="#2E4780"/>
<path d="M225.25 464.463H177.86C177.625 463.587 177.942 462.701 178.658 461.803H225.159C225.22 463.437 225.25 464.463 225.25 464.463Z" fill="#2E4780"/>
<path d="M174.956 446.182C174.956 446.182 171.356 456.096 168.236 461.343C166.999 463.436 165.824 464.794 164.994 464.462C162.08 463.319 132.791 437.303 135.592 435.401C136.002 435.124 136.657 434.931 137.475 434.824C140.022 434.482 144.245 434.855 148.152 435.273C151.506 435.636 154.625 436.031 156.251 436.031C160.382 436.031 160.924 434.76 160.924 434.76C161.017 435.262 161.794 436.214 162.95 437.367C166.57 440.956 173.852 446.47 174.956 446.182Z" fill="#1E2657"/>
<path d="M162.941 437.368C156.733 441.662 150.26 439.078 148.98 438.095C148.039 437.378 148.039 436.044 148.143 435.274C151.497 435.637 154.615 436.032 156.242 436.032C160.373 436.032 160.915 434.761 160.915 434.761C161.008 435.263 161.785 436.215 162.941 437.368Z" fill="#2E4780"/>
<path d="M168.236 461.342C166.999 463.436 165.824 464.793 164.994 464.462C162.08 463.318 132.791 437.302 135.592 435.4C136.002 435.123 136.657 434.93 137.475 434.823L168.236 461.342Z" fill="#2E4780"/>
<path d="M255.675 302.456C253.385 305.788 249.284 310.875 245.909 310.361C245.787 310.341 245.654 310.319 245.49 310.288C239.046 309.101 201.156 299.175 199.367 298.802C197.546 298.429 184.794 298.299 185.52 296.9C186.246 295.501 193.538 291.066 195.481 291.173C197.424 291.28 205.083 293.599 212.733 293.341C220.392 293.096 240.437 293.341 240.437 293.341L241.41 291.59L242.84 289.004C242.442 296.76 251.39 303.086 255.675 302.456Z" fill="#F9AC95"/>
<path d="M260.742 344.847C260.671 344.847 260.599 344.833 260.53 344.8C258.151 343.671 256.74 341.765 255.954 339.773C255.165 337.779 254.973 335.691 254.972 334.086C254.972 332.436 255.178 331.29 255.182 331.268C255.228 331.01 255.443 330.832 255.684 330.832C255.716 330.832 255.747 330.834 255.778 330.841C256.057 330.896 256.239 331.175 256.187 331.465C256.187 331.465 256.177 331.522 256.159 331.645C256.14 331.769 256.117 331.95 256.092 332.183C256.044 332.646 255.994 333.308 255.994 334.086C255.994 335.603 256.183 337.561 256.899 339.365C257.619 341.171 258.837 342.818 260.953 343.828C261.211 343.949 261.325 344.267 261.207 344.535C261.122 344.731 260.936 344.847 260.742 344.847Z" fill="#303062"/>
<path d="M216.389 439.653C216.153 439.653 215.94 439.48 215.889 439.228C215.889 439.225 209.317 406.659 206.027 384.675C204.93 377.34 204.197 371.2 204.195 367.765C204.199 366.668 204.26 365.856 204.458 365.27C204.636 364.764 204.981 364.281 205.456 363.762C205.931 363.244 206.543 362.695 207.277 362.112C208.742 360.946 210.69 359.645 212.964 358.261C217.507 355.494 223.344 352.399 229.114 349.499C240.649 343.701 251.906 338.686 251.909 338.683C251.974 338.654 252.043 338.64 252.109 338.64C252.308 338.64 252.498 338.763 252.58 338.965C252.692 339.236 252.57 339.55 252.311 339.666C252.307 339.667 250.922 340.285 248.621 341.339C246.318 342.394 243.102 343.884 239.451 345.625C232.149 349.106 223.101 353.596 216.142 357.608C211.506 360.275 207.78 362.763 206.194 364.501C205.771 364.959 205.511 365.362 205.42 365.634C205.3 365.963 205.214 366.728 205.217 367.765C205.214 373.548 207.446 387.969 209.962 402.281C212.476 416.604 215.271 430.866 216.389 436.496C216.708 438.106 216.89 439.007 216.89 439.009C216.949 439.298 216.771 439.581 216.495 439.642C216.46 439.65 216.424 439.653 216.389 439.653Z" fill="#303062"/>
<path d="M220.202 412.986C220.202 412.986 212.501 370.152 212.501 367.352C212.501 364.961 263.411 349.671 276.829 333.676C279.149 334.057 281.186 334.334 282.738 334.523C282.766 334.73 282.794 334.936 282.821 335.141C283.216 338.165 283.446 340.959 283.446 343.377C283.446 348.599 282.373 352.074 279.569 352.373C272.522 353.143 267.9 353.389 266.203 360.75L234.612 363.037L218.873 373.635L216.389 375.484L220.202 412.986Z" fill="#303062"/>
<path d="M255.167 312.78C255.566 311.839 255.985 310.825 256.436 309.724C257.357 307.457 257.925 304.2 258.275 300.433C264.703 293.965 270.306 284.25 270.034 275.632C270.457 280.594 270.813 291.129 267 296.775C263.839 301.455 258.746 307.394 255.167 312.78Z" fill="#0FB4B5"/>
<path d="M257.676 301.013C257.205 301.462 256.724 301.911 256.243 302.327C256.071 302.391 255.886 302.434 255.681 302.455C251.397 303.086 242.448 296.76 242.846 289.003C242.878 288.428 243.317 287.274 244.033 285.767C247.694 278.052 258.709 260.883 260.734 261.674C260.734 261.674 267.81 262.816 269.733 272.913C271.532 282.39 265.038 293.887 257.676 301.013Z" fill="#0E989A"/>
<path d="M282.746 334.521C281.192 334.329 279.158 334.052 276.839 333.678C270.805 332.695 262.878 331.017 256.641 328.346C262.142 328.143 273.914 324.361 275.335 296.208C275.979 301.475 276.951 306.934 278.301 312.523C280.106 319.944 281.815 327.777 282.746 334.521Z" fill="#0FB4B5"/>
<path d="M272.852 247.261C272.627 247.004 272.407 246.783 272.189 246.596C272.407 246.783 272.628 247.002 272.853 247.26C272.853 247.261 272.853 247.261 272.852 247.261Z" fill="#E6F4F5"/>
<path d="M272.849 247.259C272.625 247.002 272.403 246.782 272.186 246.596C271.516 246.019 270.884 245.763 270.282 245.69L275.125 239.317C276.598 240.238 278.24 241.07 279.823 241.661L279.828 241.657L279.823 241.661C279.379 242.203 279.013 242.704 278.713 243.148C278.636 243.262 278.563 243.373 278.495 243.478C276.297 244.675 274.17 246.127 272.849 247.259Z" fill="#F6967A"/>
<path d="M246.402 310.398C246.239 310.398 246.077 310.386 245.918 310.361C245.796 310.342 245.663 310.319 245.5 310.288C241.326 303.984 241.173 295.724 241.419 291.59L242.849 289.004C242.848 289.035 242.847 289.068 242.846 289.099C242.561 295.92 249.482 301.613 254.037 302.405C254.041 302.405 254.045 302.406 254.047 302.406C254.056 302.408 254.065 302.409 254.074 302.411C254.091 302.414 254.11 302.417 254.127 302.419C254.139 302.422 254.151 302.423 254.162 302.426C254.199 302.431 254.234 302.436 254.27 302.441C254.304 302.445 254.336 302.451 254.369 302.455C254.505 302.472 254.637 302.483 254.768 302.491H254.77C254.808 302.492 254.846 302.495 254.885 302.496C254.945 302.498 255.003 302.499 255.062 302.499C255.278 302.499 255.487 302.485 255.684 302.456C253.503 305.631 249.677 310.398 246.402 310.398Z" fill="#F6967A"/>
<path d="M254.881 302.499C254.842 302.498 254.805 302.495 254.766 302.494C254.805 302.495 254.842 302.498 254.881 302.499ZM254.765 302.494C254.633 302.486 254.501 302.474 254.365 302.457C254.501 302.474 254.633 302.486 254.765 302.494ZM254.159 302.429C254.147 302.426 254.135 302.425 254.124 302.422C254.135 302.425 254.147 302.426 254.159 302.429ZM254.07 302.414C254.061 302.412 254.052 302.41 254.044 302.409C254.052 302.41 254.061 302.412 254.07 302.414ZM254.034 302.408C249.478 301.615 242.557 295.923 242.842 289.102C242.557 295.923 249.478 301.615 254.034 302.408Z" fill="#107E80"/>
<path d="M288.204 234.982C288.35 233.773 288.564 232.485 288.966 231.167C288.565 232.483 288.354 233.77 288.208 234.979C288.207 234.98 288.205 234.98 288.204 234.982Z" fill="#292A56"/>
<path d="M279.843 241.652C278.997 241.337 278.133 240.957 277.288 240.528C276.55 240.153 275.825 239.742 275.138 239.311C273.944 238.568 272.861 237.766 272.011 236.984C270.956 236.012 270.257 235.074 270.147 234.322C270.121 234.138 270.108 233.945 270.11 233.746C270.112 231.681 271.437 228.92 271.437 227.144C271.437 226.265 271.113 225.628 270.147 225.432C269.977 225.397 269.812 225.381 269.651 225.381H269.646C268.198 225.385 267.098 226.702 266.375 227.967C265.708 229.137 265.362 230.261 265.362 230.261C265.285 230.27 265.209 230.274 265.135 230.274H265.13C263.797 230.271 262.903 228.954 261.663 227.794C260.685 226.88 259.493 226.063 257.701 226.063C257.109 226.063 256.527 226.149 255.964 226.298C253.99 226.811 252.262 228.082 251.156 229.065C251.156 229.065 255.056 223.344 261.326 223.344C261.959 223.344 262.617 223.402 263.296 223.53C263.296 223.53 262.33 221.608 258.026 221.608C257.77 221.608 257.502 221.614 257.222 221.628C261.376 220.215 264.934 219.584 267.916 219.584C272.436 219.584 275.631 221.033 277.573 223.402C279.305 225.522 282.576 227.971 286.039 227.973C287.83 227.973 289.67 227.319 291.378 225.624C290.95 226.65 290.458 227.718 289.907 228.808C289.51 229.598 289.207 230.386 288.969 231.164C288.567 232.481 288.353 233.77 288.207 234.979C287.606 235.304 287.039 235.634 286.5 235.967C283.34 237.933 281.214 239.973 279.843 241.652Z" fill="#291A1B"/>
<path d="M277.287 240.53C276.549 240.157 275.824 239.747 275.137 239.313L275.133 239.319C273.941 238.573 272.86 237.769 272.011 236.986C272.86 237.768 273.943 238.571 275.137 239.313C275.824 239.744 276.549 240.155 277.287 240.53ZM270.146 234.324C270.12 234.14 270.108 233.947 270.109 233.749C270.108 233.947 270.12 234.14 270.146 234.324ZM265.13 230.276C263.796 230.274 262.902 228.957 261.662 227.796C262.902 228.957 263.796 230.274 265.13 230.276ZM265.361 230.263C265.361 230.263 265.362 230.262 265.363 230.258C265.362 230.262 265.361 230.263 265.361 230.263ZM271.436 227.146C271.436 226.268 271.112 225.631 270.146 225.435C269.978 225.399 269.811 225.384 269.65 225.384C269.811 225.384 269.976 225.399 270.146 225.435C271.112 225.631 271.436 226.268 271.436 227.146ZM255.963 226.3C256.526 226.151 257.108 226.065 257.7 226.065C257.108 226.065 256.526 226.151 255.963 226.3ZM269.645 225.384H269.65H269.645Z" fill="#F6967A"/>
<path d="M287.993 237.033C287.637 236.747 287.276 236.479 286.912 236.233C287.276 236.477 287.636 236.74 287.994 237.024C287.993 237.028 287.993 237.031 287.993 237.033Z" fill="#291A1B"/>
<path d="M279.83 241.659C278.985 241.344 278.124 240.959 277.281 240.53C278.125 240.959 278.99 241.339 279.836 241.653L279.83 241.659Z" fill="#1F1314"/>
<path d="M279.832 241.663C278.249 241.072 276.607 240.24 275.134 239.318L275.138 239.313C275.825 239.747 276.549 240.156 277.288 240.53C278.131 240.959 278.992 241.344 279.837 241.659L279.832 241.663Z" fill="#F47C5D"/>
<path d="M312.627 375.484H276.17C276.17 375.484 305.091 366.594 305.091 306.677C305.091 305.907 305.091 305.148 305.081 304.39C304.784 264.348 296.592 242.262 286.498 235.969C289.658 234.014 293.861 232.144 299.414 230.852C301.839 230.275 304.507 229.815 307.463 229.494C332.427 226.834 352.369 237.059 354.741 248.63C357.104 260.202 342.51 375.484 312.627 375.484Z" fill="#B8E2E2"/>
<path d="M305.088 306.679C305.088 366.595 276.168 375.485 276.168 375.485H216.392L218.876 373.637L234.616 363.038L266.207 360.751C267.903 353.39 272.525 353.145 279.572 352.375C283.673 351.937 284.073 344.704 282.825 335.142C281.914 328.26 280.156 320.172 278.294 312.523C276.945 306.935 275.973 301.475 275.329 296.208C274.561 290.043 274.225 284.156 274.192 278.61C274.101 265.982 275.574 255.192 277.128 247.392C277.271 246.634 277.425 245.907 277.578 245.212L277.588 245.138C277.731 244.806 278.357 243.46 279.827 241.664L279.839 241.655C281.209 239.976 283.336 237.936 286.496 235.97C286.998 236.28 287.498 236.644 287.989 237.038C297.388 244.518 304.792 266.346 305.078 304.392C305.088 305.15 305.088 305.908 305.088 306.679Z" fill="#87BFBC"/>
<path d="M293.55 464.462H250.516C249.042 464.462 248.399 462.517 249.565 461.566L260.334 452.762C265.11 448.853 267.901 442.858 267.901 436.523V375.484H276.165V436.523C276.165 442.858 278.956 448.853 283.742 452.762L294.5 461.566C295.667 462.517 295.022 464.462 293.55 464.462Z" fill="#B8E2E2"/>
<path d="M327.206 234.85C326.99 234.85 326.788 234.705 326.718 234.478C326.464 233.643 326.257 233.019 326.117 232.603C325.976 232.188 325.901 231.99 325.901 231.99C325.799 231.714 325.929 231.405 326.191 231.298C326.252 231.273 326.315 231.261 326.377 231.261C326.582 231.261 326.775 231.389 326.853 231.601C326.857 231.611 327.174 232.46 327.693 234.153C327.779 234.434 327.631 234.735 327.362 234.824C327.311 234.842 327.257 234.85 327.206 234.85Z" fill="#A7DCDB"/>
<path d="M309.011 368.678C308.887 368.678 308.763 368.631 308.666 368.537C308.457 368.339 308.443 368 308.633 367.782C309.798 366.454 310.916 365.091 311.988 363.697C312.089 363.566 312.237 363.498 312.387 363.498C312.499 363.498 312.613 363.536 312.707 363.616C312.926 363.8 312.961 364.137 312.785 364.366C311.699 365.777 310.567 367.157 309.388 368.504C309.287 368.619 309.149 368.678 309.011 368.678ZM315.507 360.24C315.405 360.24 315.302 360.207 315.213 360.142C314.982 359.971 314.927 359.638 315.089 359.397C316.083 357.927 317.032 356.43 317.937 354.906C318.033 354.743 318.201 354.653 318.372 354.653C318.463 354.653 318.557 354.679 318.64 354.734C318.88 354.889 318.954 355.218 318.805 355.469C317.891 357.011 316.931 358.526 315.925 360.013C315.825 360.16 315.668 360.24 315.507 360.24ZM320.977 351.037C320.894 351.037 320.811 351.016 320.733 350.972C320.485 350.831 320.393 350.506 320.528 350.247C321.351 348.668 322.13 347.065 322.869 345.444C322.956 345.25 323.14 345.138 323.331 345.138C323.405 345.138 323.48 345.155 323.551 345.19C323.806 345.317 323.914 345.635 323.792 345.902C323.046 347.541 322.258 349.161 321.427 350.758C321.334 350.935 321.158 351.037 320.977 351.037ZM325.438 341.255C325.373 341.255 325.306 341.242 325.243 341.214C324.982 341.101 324.858 340.789 324.965 340.516C325.625 338.854 326.244 337.175 326.825 335.484C326.899 335.266 327.097 335.13 327.306 335.13C327.363 335.13 327.422 335.14 327.479 335.161C327.744 335.26 327.883 335.566 327.788 335.844C327.201 337.553 326.576 339.247 325.91 340.924C325.829 341.131 325.639 341.255 325.438 341.255ZM328.945 331.056C328.895 331.056 328.844 331.048 328.794 331.031C328.524 330.945 328.373 330.646 328.455 330.364C328.962 328.642 329.432 326.911 329.867 325.172C329.927 324.931 330.134 324.772 330.362 324.772C330.404 324.772 330.448 324.778 330.492 324.79C330.764 324.864 330.928 325.155 330.857 325.441C330.419 327.196 329.945 328.942 329.433 330.678C329.366 330.908 329.164 331.056 328.945 331.056ZM331.569 320.568C331.533 320.568 331.496 320.564 331.459 320.557C331.184 320.494 331.008 320.209 331.069 319.921C331.435 318.159 331.769 316.391 332.067 314.624C332.112 314.364 332.327 314.182 332.571 314.182C332.601 314.182 332.631 314.185 332.661 314.19C332.938 314.241 333.124 314.519 333.074 314.809C332.773 316.591 332.437 318.371 332.067 320.148C332.016 320.399 331.804 320.568 331.569 320.568ZM333.381 309.895C333.358 309.895 333.334 309.894 333.309 309.89C333.031 309.85 332.835 309.581 332.873 309.288C333.112 307.497 333.318 305.709 333.493 303.925H333.494C333.521 303.651 333.743 303.446 334.002 303.446C334.019 303.446 334.037 303.447 334.054 303.448C334.335 303.478 334.54 303.741 334.511 304.034C334.334 305.831 334.127 307.632 333.887 309.435C333.852 309.702 333.632 309.895 333.381 309.895ZM334.444 299.112C334.433 299.112 334.42 299.112 334.409 299.11C334.127 299.091 333.914 298.836 333.934 298.541C334.052 296.732 334.139 294.933 334.199 293.145C334.208 292.856 334.435 292.629 334.709 292.629H334.728C335.01 292.64 335.23 292.888 335.221 293.183C335.161 294.982 335.072 296.793 334.954 298.614C334.935 298.896 334.711 299.112 334.444 299.112ZM334.804 288.277C334.521 288.277 334.293 288.037 334.293 287.742L334.294 287.419C334.294 285.709 334.268 284.015 334.219 282.339C334.21 282.044 334.433 281.798 334.715 281.789H334.73C335.006 281.789 335.234 282.018 335.241 282.306C335.291 283.993 335.316 285.699 335.316 287.419V287.745C335.315 288.038 335.086 288.277 334.804 288.277ZM334.488 277.442C334.22 277.442 333.995 277.224 333.978 276.943C333.868 275.118 333.73 273.321 333.568 271.557C333.542 271.263 333.748 271.002 334.028 270.974C334.045 270.972 334.062 270.972 334.078 270.972C334.338 270.972 334.561 271.178 334.586 271.455C334.75 273.23 334.889 275.039 334.999 276.875C335.016 277.17 334.803 277.423 334.52 277.441C334.51 277.442 334.499 277.442 334.488 277.442ZM333.493 266.655C333.239 266.655 333.019 266.459 332.986 266.189C332.753 264.327 332.512 262.542 332.264 260.833C332.222 260.54 332.413 260.269 332.693 260.225C332.72 260.221 332.745 260.218 332.771 260.218C333.018 260.218 333.237 260.409 333.276 260.674C333.524 262.389 333.767 264.184 334 266.052C334.037 266.344 333.839 266.612 333.559 266.65C333.537 266.654 333.514 266.655 333.493 266.655ZM331.936 255.936C331.691 255.936 331.476 255.754 331.433 255.494C331.118 253.609 330.798 251.837 330.481 250.18C330.426 249.89 330.604 249.608 330.882 249.55C330.915 249.544 330.949 249.54 330.983 249.54C331.221 249.54 331.435 249.716 331.484 249.969C331.802 251.636 332.124 253.417 332.44 255.311C332.488 255.601 332.302 255.878 332.024 255.929C331.995 255.934 331.965 255.936 331.936 255.936ZM329.892 245.309C329.66 245.309 329.448 245.142 329.395 244.894C328.96 242.919 328.54 241.171 328.152 239.65C328.079 239.366 328.241 239.073 328.514 238.998C328.558 238.985 328.603 238.979 328.646 238.979C328.872 238.979 329.079 239.136 329.14 239.375C329.531 240.909 329.953 242.668 330.391 244.655C330.454 244.942 330.283 245.23 330.007 245.295C329.968 245.304 329.931 245.309 329.892 245.309Z" fill="#A7DCDB"/>
<path d="M267.907 395.784V375.484H276.171V392.152C273.307 393.711 270.402 394.908 267.907 395.784Z" fill="#AEDEDE"/>
<path d="M240.292 375.485H216.392L218.876 373.636L234.616 363.038L266.207 360.751C267.903 353.39 272.525 353.144 279.572 352.374C282.376 352.075 283.45 348.6 283.45 343.377C283.45 340.96 283.22 338.166 282.825 335.142C281.914 328.26 280.156 320.172 278.294 312.522C276.945 306.934 275.973 301.475 275.329 296.208C274.561 290.042 274.225 284.155 274.192 278.61C278.868 304.061 289.032 344.885 287.59 349.586C285.646 355.931 273.509 354.796 272.036 359.49C270.193 365.36 268.836 366.249 265.572 366.249C264.863 366.249 264.065 366.206 263.153 366.164C262.24 366.122 261.212 366.081 260.048 366.081C258.636 366.081 257.023 366.142 255.161 366.339C248.289 367.066 243.299 371.67 240.292 375.485Z" fill="#74B5B2"/>
<path d="M310.215 375.481H276.17C276.17 375.481 305.091 366.592 305.091 306.675C305.091 305.905 305.091 305.146 305.081 304.388C304.799 266.336 297.387 244.501 287.99 237.023C287.631 236.738 287.272 236.476 286.908 236.231C286.772 236.14 286.636 236.051 286.498 235.966C289.658 234.012 293.861 232.142 299.414 230.849C297.747 233.36 296.008 237.131 296.828 241.159C298.291 248.285 314.817 275.702 308.497 319.624C303.935 351.314 305.448 367.799 310.215 375.481ZM305.365 371.51C305.238 371.51 305.111 371.56 305.012 371.658C304.402 372.268 303.78 372.869 303.148 373.462C302.936 373.659 302.919 373.997 303.108 374.216C303.209 374.334 303.349 374.394 303.489 374.394C303.61 374.394 303.732 374.35 303.83 374.258C304.471 373.658 305.101 373.048 305.719 372.431C305.923 372.227 305.93 371.889 305.735 371.675C305.634 371.565 305.499 371.51 305.365 371.51Z" fill="#AEDEDE"/>
<path d="M305.083 306.678C305.083 305.908 305.083 305.15 305.073 304.391C305.083 305.15 305.083 305.908 305.083 306.678ZM286.9 236.235C286.764 236.144 286.628 236.055 286.49 235.97C286.628 236.055 286.764 236.144 286.9 236.235Z" fill="#74B5B2"/>
<path d="M303.483 374.397C303.343 374.397 303.203 374.337 303.101 374.219C302.913 374 302.93 373.662 303.141 373.465C303.774 372.872 304.396 372.27 305.006 371.661C305.104 371.563 305.232 371.513 305.359 371.513C305.493 371.513 305.628 371.568 305.729 371.678C305.924 371.892 305.917 372.23 305.713 372.433C305.094 373.051 304.465 373.661 303.824 374.261C303.726 374.352 303.604 374.397 303.483 374.397Z" fill="#98D6D5"/>
<path d="M123.738 225.381C122.43 230.349 116.426 239.987 110.944 250.307C104.952 261.568 99.5927 273.631 101.689 281.291C102.21 283.214 102.445 284.624 102.445 285.64C102.467 288.974 100.043 287.937 97.5985 286.046C95.1033 284.112 92.5769 281.291 92.5769 281.291L92.7605 266.44C92.7605 266.44 84.7026 258.704 91.3199 241.782C91.7385 240.712 92.2195 239.602 92.7605 238.448C101.873 219.217 115.536 199.033 102.599 193.317C120.465 192.175 126.479 214.985 123.738 225.381Z" fill="#33BF8D"/>
<path d="M96.0177 256.612C95.7741 256.422 95.5417 256.208 95.3218 255.973C96.1614 253.558 97.1285 251.202 98.1219 248.864C100.919 242.349 104.062 236.023 106.979 229.591C108.436 226.376 109.846 223.136 111.07 219.822C112.245 216.506 113.373 213.089 113.484 209.546L113.423 208.23L113.217 206.918C113.107 206.036 112.886 205.181 112.661 204.326C112.47 203.46 112.102 202.653 111.816 201.819C111.434 201.029 111.093 200.214 110.607 199.484C108.81 196.499 105.942 194.124 102.609 193.319C105.952 194.081 108.866 196.423 110.714 199.411C111.214 200.142 111.568 200.959 111.962 201.753C112.261 202.588 112.642 203.399 112.845 204.269C113.083 205.128 113.316 205.99 113.437 206.876L113.66 208.199L113.739 209.547C113.668 213.162 112.568 216.612 111.429 219.961C110.238 223.31 108.864 226.577 107.443 229.818C104.598 236.298 101.53 242.665 98.8241 249.186C97.8182 251.635 96.8437 254.102 96.0177 256.612Z" fill="#17A3A6"/>
<path d="M115.539 255.393C110.077 270.436 115.539 281.847 107.337 283.471C103.584 284.219 101.927 281.312 101.242 277.936C100.424 273.941 100.966 269.292 100.966 269.292C100.966 269.292 102.357 265.575 105.281 261.964C107.665 259.025 111.05 256.163 115.539 255.393Z" fill="#4CAD8B"/>
<path d="M96.4902 274.037C96.459 277.542 95.703 280.512 94.1487 282.071C93.995 282.233 93.8413 282.372 93.6976 282.489C89.8217 285.77 87.3477 279.765 87.3477 279.765C87.3477 279.765 77.0394 274.455 71.9252 263.675C68.0081 255.393 67.1384 243.876 76.3534 229.068C77.7041 239.613 83.2356 246.794 88.7171 253.609V253.621C89.4031 254.474 90.0778 255.309 90.7525 256.152C94.5472 260.907 96.5414 268.215 96.4902 274.037Z" fill="#33BF8D"/>
<path d="M93.1219 277.902H92.126C92.0998 276.157 91.7275 274.422 91.0352 272.811C90.1631 270.751 88.8636 268.89 87.4779 267.109C84.6966 263.554 81.5316 260.2 79.2751 256.147C76.9248 252.15 75.789 247.503 75.4079 242.892C75.0793 238.263 75.3817 233.589 76.3575 229.072C76.3575 229.072 76.3563 229.073 76.3575 229.072C75.4654 233.606 75.2517 238.278 75.6628 242.867C76.1276 247.445 77.3333 251.994 79.7136 255.87C82.0027 259.811 85.1839 263.055 88.069 266.598C89.5046 268.374 90.884 270.261 91.8499 272.426C92.6208 274.123 93.0619 276.006 93.1219 277.902Z" fill="#91D4D3"/>
<path d="M102.887 277.905H101.946C103.048 274.126 104.825 270.621 106.791 267.312C108.059 265.178 109.461 263.138 110.915 261.146C112.378 259.167 113.903 257.233 115.529 255.401V255.402C113.965 257.293 112.511 259.278 111.12 261.305C109.738 263.343 108.415 265.425 107.228 267.588C105.432 270.858 103.839 274.309 102.887 277.905Z" fill="#107E80"/>
<path d="M112.221 281.667L108.723 304.102C108.55 305.044 107.762 305.728 106.842 305.728H85.0481C84.1285 305.728 83.34 305.044 83.1664 304.102L80.3238 285.886L79.6691 281.667C79.4542 280.439 80.3538 279.304 81.5508 279.304H110.339C111.536 279.304 112.436 280.439 112.221 281.667Z" fill="#B8E2E2"/>
<path d="M115.541 286.238H76.3623L77.3956 280.126C77.6206 278.845 78.6839 277.903 79.9321 277.903H111.983C113.22 277.903 114.293 278.845 114.508 280.126L115.541 286.238Z" fill="#87BFBC"/>
<path d="M105.282 261.966C106.108 260.019 107.025 258.042 107.996 256.064C107.027 258.04 106.111 260.017 105.282 261.964V261.966Z" fill="#E6F4F5"/>
<path d="M101.22 277.904H96.0991C96.3453 276.735 96.4715 275.427 96.484 274.036C96.4852 273.968 96.4852 273.9 96.4852 273.831C96.4865 270.366 95.7743 266.397 94.3961 262.761C94.6085 261.542 94.8921 260.331 95.2357 259.132C95.4719 258.288 95.7305 257.447 96.0042 256.613C96.6014 257.08 97.2737 257.405 98.0283 257.55C98.347 257.613 98.6718 257.64 99.0042 257.64C102.766 257.64 107.363 253.92 110.934 250.307C109.92 252.211 108.925 254.138 107.982 256.063C107.011 258.041 106.094 260.019 105.268 261.965C102.344 265.574 100.953 269.292 100.953 269.292C100.951 269.31 100.412 273.926 101.22 277.904ZM93.7576 261.208C92.9329 259.357 91.9271 257.63 90.7463 256.151C90.0716 255.308 89.3969 254.473 88.7109 253.62V253.608C88.7934 250.328 89.5094 246.396 91.3099 241.781C91.5448 246.063 92.3919 252.856 95.3082 255.973C94.9759 256.926 94.6647 257.89 94.3786 258.863C94.1474 259.635 93.9388 260.417 93.7576 261.208Z" fill="#40A983"/>
<path d="M94.3983 262.762C94.1996 262.236 93.9859 261.717 93.7598 261.208C93.9409 260.417 94.1496 259.635 94.3808 258.864C94.6669 257.89 94.978 256.927 95.3104 255.974C95.5303 256.209 95.7627 256.423 96.0063 256.613C95.7327 257.447 95.4741 258.288 95.2379 259.133C94.8943 260.331 94.6107 261.542 94.3983 262.762Z" fill="#168D91"/>
<path d="M100.956 269.293C100.956 269.293 102.346 265.576 105.27 261.966V261.965C102.346 265.576 100.956 269.293 100.956 269.293Z" fill="#107E80"/>
<path d="M96.0991 277.903H96.0954C96.3403 276.74 96.464 275.426 96.484 274.035C96.4715 275.427 96.3453 276.735 96.0991 277.903ZM96.4852 273.83C96.4877 268.042 94.496 260.85 90.7463 256.15C90.0716 255.307 89.3969 254.473 88.7109 253.619C89.3969 254.473 90.0716 255.307 90.7463 256.15C91.9271 257.629 92.9329 259.356 93.7576 261.207C93.9838 261.716 94.1974 262.235 94.3961 262.761C95.7743 266.396 96.4865 270.366 96.4852 273.83Z" fill="#A7DCDB"/>
<path d="M85.0476 305.725C84.128 305.725 83.3396 305.041 83.1659 304.1L80.3745 286.237H80.3782L83.1659 304.1C83.3396 305.041 84.128 305.725 85.0476 305.725Z" fill="#E6F4F5"/>
<path d="M98.0522 305.725H85.0438C84.1242 305.725 83.3358 305.041 83.1621 304.1L80.3745 286.237H91.6099C91.3338 288.737 90.9964 293.406 91.8448 297.029C92.5095 299.902 94.9235 303.599 98.0522 305.725Z" fill="#A7DCDB"/>
<path d="M196.603 120.917H140.868C138.115 120.917 135.884 118.586 135.884 115.711V72.4065C135.884 69.5321 138.115 67.2007 140.868 67.2007H196.603C199.355 67.2007 201.586 69.5321 201.586 72.4065V115.711C201.586 118.586 199.355 120.917 196.603 120.917Z" fill="#8555C2"/>
<path d="M151.185 86.1974V91.9789C151.185 92.441 151.545 92.817 151.989 92.817H155.051C155.495 92.817 155.854 92.441 155.854 91.9789V86.1974C155.854 85.734 156.213 85.3594 156.657 85.3594H156.953C157.395 85.3594 157.755 85.734 157.755 86.1974V101.914C157.755 102.376 157.395 102.752 156.953 102.752H156.657C156.213 102.752 155.854 102.376 155.854 101.914V95.4617C155.854 94.9983 155.495 94.6236 155.051 94.6236H151.989C151.545 94.6236 151.185 94.9983 151.185 95.4617V101.914C151.185 102.376 150.827 102.752 150.383 102.752H150.086C149.642 102.752 149.284 102.376 149.284 101.914V86.1974C149.284 85.734 149.642 85.3594 150.086 85.3594H150.383C150.827 85.3594 151.185 85.734 151.185 86.1974Z" fill="white"/>
<path d="M161.871 87.1404H160.438C159.996 87.1404 159.636 86.7645 159.636 86.3023V86.1979C159.636 85.7345 159.996 85.3599 160.438 85.3599H166.812C167.255 85.3599 167.614 85.7345 167.614 86.1979V86.3023C167.614 86.7645 167.255 87.1404 166.812 87.1404H165.378C164.935 87.1404 164.576 87.515 164.576 87.9784V101.915C164.576 102.377 164.216 102.753 163.773 102.753H163.477C163.033 102.753 162.673 102.377 162.673 101.915V87.9784C162.673 87.515 162.315 87.1404 161.871 87.1404Z" fill="white"/>
<path d="M179.435 95.2685C179.31 92.971 179.186 90.4177 179.261 88.4557H179.163C178.791 90.3916 178.347 92.4554 177.828 94.4944L175.779 102.649H174.567L172.616 94.8299C172.073 92.6108 171.579 90.4686 171.258 88.4557H171.185C171.185 90.4947 171.085 92.9201 170.987 95.3977L170.701 101.952C170.681 102.4 170.327 102.752 169.899 102.752H169.813C169.35 102.752 168.984 102.346 169.012 101.865L169.904 86.1478C169.929 85.7053 170.28 85.3594 170.705 85.3594H171.376C171.743 85.3594 172.063 85.6178 172.153 85.9886L173.951 93.3065C174.518 95.604 174.939 97.3062 175.284 99.2943H175.358C175.68 97.3062 176.05 95.6549 176.594 93.3065L178.32 85.9964C178.409 85.6218 178.731 85.3594 179.1 85.3594H179.837C180.263 85.3594 180.614 85.7053 180.638 86.1491L181.509 101.866C181.535 102.346 181.169 102.752 180.708 102.752H180.544C180.116 102.752 179.764 102.401 179.742 101.955L179.435 95.2685Z" fill="white"/>
<path d="M184.957 85.3594H185.253C185.696 85.3594 186.056 85.734 186.056 86.1974V100.237C186.056 100.7 186.416 101.075 186.858 101.075H189.946C190.39 101.075 190.748 101.451 190.748 101.914C190.748 102.376 190.39 102.752 189.946 102.752H184.957C184.513 102.752 184.153 102.376 184.153 101.914V86.1974C184.153 85.734 184.513 85.3594 184.957 85.3594Z" fill="white"/>
<path d="M222.011 71.8004C224.097 71.8004 224.59 70.3345 224.59 69.0278C224.59 67.8804 224.476 66.7695 224.364 65.6612C224.25 64.472 224.134 63.4029 224.134 62.1746C224.134 58.6096 226.222 57.1045 228.913 57.1045H229.368V59.1644H228.798C227.207 59.1644 226.562 60.3523 226.562 62.1354C226.562 63.2045 226.676 64.1953 226.789 65.1456C226.864 66.1756 226.978 67.1259 226.978 68.0775C227.018 71.1673 225.992 72.2364 224.364 72.7129V72.7912C225.992 73.3068 227.018 74.376 226.978 77.5062C226.978 78.4957 226.864 79.4865 226.789 80.476C226.676 81.4668 226.562 82.4575 226.562 83.5267C226.562 85.3098 227.13 86.5369 228.838 86.5369H229.368V88.5981H228.876C226.373 88.5981 224.134 87.2901 224.134 83.5267C224.134 82.3388 224.25 81.1496 224.364 80.0008C224.476 78.8521 224.59 77.7034 224.59 76.5938C224.59 75.3276 224.097 73.782 222.011 73.782V71.8004Z" fill="#373873"/>
<path d="M260.677 73.782C258.592 73.782 258.1 75.3276 258.1 76.5938C258.1 77.7034 258.213 78.8521 258.326 80.0008C258.439 81.1496 258.554 82.3388 258.554 83.5267C258.554 87.2901 256.317 88.5981 253.814 88.5981H253.32V86.5369H253.851C255.559 86.3397 256.128 85.3098 256.128 83.5267C256.128 82.4575 256.013 81.4668 255.937 80.476C255.823 79.4865 255.711 78.4957 255.711 77.5062C255.672 74.376 256.695 73.3068 258.326 72.7912V72.7129C256.695 72.2364 255.672 71.1673 255.711 68.0775C255.711 67.1259 255.823 66.1756 255.937 65.1456C256.013 64.1953 256.128 63.2045 256.128 62.1354C256.128 60.3523 255.482 59.3628 253.89 59.1644H253.32V57.1045H253.776C256.468 57.1045 258.554 58.6096 258.554 62.1746C258.554 63.4029 258.439 64.472 258.326 65.6612C258.213 66.7695 258.1 67.8804 258.1 69.0278C258.1 70.3345 258.592 71.8004 260.677 71.8004V73.782Z" fill="#373873"/>
<path d="M247.656 76.6619V69.0411L241.338 65.2307L235.022 69.0411V76.6619L241.338 80.4723L247.656 76.6619Z" fill="#F6AF49"/>
<path d="M295.179 114.631C289.243 111.542 282.101 112.761 277.409 117.664C271.616 123.716 271.424 133.416 276.796 139.733L274.481 139.446C274.201 139.411 273.946 139.621 273.914 139.913C273.88 140.206 274.081 140.472 274.36 140.507L277.887 140.945C278.028 140.963 278.161 140.918 278.265 140.835C278.367 140.75 278.44 140.625 278.456 140.477L278.862 136.912C278.896 136.62 278.696 136.355 278.415 136.32C278.135 136.284 277.88 136.493 277.846 136.787L277.587 139.057C272.543 133.159 272.713 124.082 278.132 118.42C282.514 113.842 289.181 112.704 294.724 115.586C294.976 115.719 295.284 115.61 295.41 115.346C295.535 115.082 295.433 114.762 295.179 114.631Z" fill="#F2632C"/>
<path d="M281.907 144.193C287.844 147.283 294.986 146.063 299.679 141.16C305.471 135.107 305.664 125.408 300.29 119.09L302.606 119.379C302.886 119.414 303.14 119.204 303.174 118.912C303.207 118.618 303.007 118.353 302.726 118.318L299.199 117.88C299.059 117.862 298.925 117.906 298.822 117.99C298.719 118.075 298.648 118.2 298.632 118.348L298.226 121.913C298.192 122.205 298.393 122.47 298.672 122.505C298.953 122.54 299.208 122.33 299.24 122.038L299.499 119.768C304.544 125.666 304.374 134.743 298.955 140.405C294.575 144.981 287.906 146.121 282.362 143.237C282.11 143.105 281.803 143.214 281.677 143.477C281.551 143.742 281.655 144.062 281.907 144.193Z" fill="#F2632C"/>
<path d="M418.678 174.186H326.125C324.438 174.186 323.071 172.756 323.071 170.994C323.071 169.232 324.438 167.802 326.125 167.802H418.678C420.366 167.802 421.735 169.232 421.735 170.994C421.735 172.756 420.366 174.186 418.678 174.186Z" fill="#F6AF49"/>
<path d="M385.629 188.059H326.125C324.438 188.059 323.071 186.63 323.071 184.868C323.071 183.105 324.438 181.677 326.125 181.677H385.629C387.317 181.677 388.683 183.105 388.683 184.868C388.683 186.63 387.317 188.059 385.629 188.059Z" fill="#2FBEC2"/>
<path d="M385.629 202.953H326.125C324.438 202.953 323.071 201.524 323.071 199.762C323.071 197.999 324.438 196.571 326.125 196.571H385.629C387.317 196.571 388.683 197.999 388.683 199.762C388.683 201.524 387.317 202.953 385.629 202.953Z" fill="#2FBEC2"/>
<path d="M90.5065 121.162H42.43C40.7432 121.162 39.375 119.734 39.375 117.972C39.375 116.208 40.7432 114.78 42.43 114.78H90.5065C92.1933 114.78 93.5602 116.208 93.5602 117.972C93.5602 119.734 92.1933 121.162 90.5065 121.162Z" fill="#2FBEC2"/>
<path d="M72.3552 135.033H42.43C40.7432 135.033 39.375 133.605 39.375 131.843C39.375 130.079 40.7432 128.651 42.43 128.651H72.3552C74.042 128.651 75.4102 130.079 75.4102 131.843C75.4102 133.605 74.042 135.033 72.3552 135.033Z" fill="#F6AF49"/>
<path d="M72.3552 149.929H42.43C40.7432 149.929 39.375 148.499 39.375 146.737C39.375 144.975 40.7432 143.545 42.43 143.545H72.3552C74.042 143.545 75.4102 144.975 75.4102 146.737C75.4102 148.499 74.042 149.929 72.3552 149.929Z" fill="#F6AF49"/>
<path d="M376.983 352.501C373.986 361.583 370.407 369.51 366.663 376.668C353.727 401.359 338.703 417.067 338.141 440.09C338.141 440.09 333.478 418.401 337.221 393.689C339.318 379.81 344.062 364.979 353.768 352.501C380.776 317.799 376.778 286.238 376.778 286.238C376.778 286.238 390.318 312.125 376.983 352.501Z" fill="#33BF8D"/>
<path d="M376.877 286.447C376.826 286.342 376.794 286.279 376.78 286.253C376.814 286.317 376.846 286.382 376.877 286.447Z" fill="#E6F4F5"/>
<path d="M349.122 388.035C350.067 385.504 351.137 383.025 352.308 380.604C353.473 378.076 354.863 375.678 356.223 373.266L360.571 366.251C363.342 361.535 365.68 356.532 367.648 351.375C369.632 346.224 371.303 340.937 372.705 335.575C374.122 330.213 375.28 324.776 376.191 319.295C377.108 313.817 377.776 308.286 378.108 302.733C378.266 299.956 378.34 297.17 378.225 294.39C378.159 293.001 378.076 291.609 377.859 290.236C377.639 288.871 377.397 287.479 376.776 286.238C376.778 286.242 376.781 286.246 376.782 286.251C376.796 286.277 376.829 286.342 376.882 286.449C377.447 287.627 377.698 288.939 377.924 290.226C378.163 291.598 378.267 292.992 378.357 294.382C378.516 297.168 378.485 299.961 378.37 302.746C378.139 308.321 377.508 313.871 376.649 319.377C375.794 324.884 374.689 330.35 373.323 335.748C371.971 341.149 370.35 346.48 368.405 351.688C366.479 356.904 364.173 361.977 361.414 366.791L357.105 373.831C355.767 376.221 354.396 378.6 353.253 381.1C352.285 383.114 351.387 385.168 350.576 387.257C350.09 387.521 349.604 387.781 349.122 388.035Z" fill="#2FB183"/>
<path d="M336.099 423.758C335.898 420.71 335.765 417.334 335.767 413.723C335.767 407.584 336.15 400.761 337.221 393.69C340.736 392.19 344.849 390.293 349.124 388.036C348.118 390.732 347.253 393.487 346.562 396.295C345.872 399.012 345.39 401.788 345.124 404.592C344.982 406.173 344.885 407.751 344.898 409.341C341.508 413.999 338.505 418.805 336.099 423.758ZM345.976 407.883C346.016 406.821 346.096 405.758 346.201 404.708C346.492 401.971 346.96 399.249 347.627 396.577C348.399 393.405 349.397 390.294 350.578 387.258C356.058 384.282 361.72 380.729 366.663 376.669C362.677 384.277 358.494 391.031 354.595 397.409C351.566 400.811 348.664 404.3 345.976 407.883Z" fill="#40A983"/>
<path d="M344.902 409.342C344.889 407.752 344.986 406.174 345.128 404.593C345.394 401.789 345.877 399.013 346.566 396.296C347.257 393.489 348.122 390.733 349.128 388.037C349.61 387.783 350.096 387.523 350.582 387.259C349.401 390.296 348.403 393.406 347.631 396.578C346.964 399.25 346.496 401.972 346.205 404.71C346.1 405.759 346.02 406.822 345.98 407.884C345.618 408.367 345.257 408.857 344.902 409.342Z" fill="#349471"/>
<path d="M345.644 464.465C345.644 464.465 336.198 447.59 358.555 426.768C380.912 405.945 398.409 378.405 395.006 356.124C373.622 382.081 316.757 418.886 332.795 464.462L345.644 464.465Z" fill="#33BF8D"/>
<path d="M339.723 465.049C339.527 465.049 339.34 464.93 339.256 464.73L339.254 464.725C339.217 464.639 339.182 464.551 339.147 464.464H340.232C340.253 464.687 340.137 464.908 339.93 465.003C339.862 465.035 339.792 465.049 339.723 465.049Z" fill="white"/>
<path d="M340.225 464.464H339.141C337.146 459.46 336.556 453.993 336.747 448.663C336.934 443.215 337.996 437.851 339.512 432.671C342.613 422.314 347.689 412.662 354.137 404.203C357.365 399.975 360.977 396.057 364.953 392.592C368.942 389.16 372.933 385.751 376.571 381.918C380.237 378.127 383.684 374.103 386.826 369.825C389.935 365.53 392.828 361.022 395 356.124C392.866 361.041 390.006 365.58 386.928 369.906C383.816 374.215 380.394 378.277 376.749 382.106C373.141 385.977 369.151 389.44 365.2 392.9C361.272 396.378 357.712 400.306 354.537 404.536C348.195 412.997 343.233 422.63 340.246 432.905C338.786 438.043 337.783 443.348 337.642 448.695C337.492 454.018 338.144 459.437 340.184 464.299C340.207 464.353 340.22 464.409 340.225 464.464Z" fill="#31AF82"/>
<path d="M24.7723 342.222C24.7723 342.222 13.1071 331.116 6.90967 303.345C42.6337 334.987 51.3826 363.166 51.3826 363.166L24.7723 342.222Z" fill="#40A983"/>
<path d="M31.8669 343.671C31.3408 343.308 30.8148 342.944 30.2875 342.579C29.4591 340.978 28.5995 339.393 27.7323 337.817C25.5657 333.899 23.3267 330.021 21.0376 326.174C16.4557 318.483 11.7389 310.876 6.90967 303.345C11.8789 310.776 16.7394 318.285 21.4699 325.888C23.8327 329.689 26.1467 333.526 28.3946 337.411C29.5816 339.477 30.7548 341.554 31.8669 343.671Z" fill="#107E80"/>
<path d="M50.6557 357.833C44.2333 351.785 34.7223 345.792 25.671 339.338C13.6334 330.758 2.41551 321.336 0.338863 309.827C-4.38545 351.358 41.8506 370.055 41.8506 370.055L41.9418 370.193L58.7349 395.783C58.7349 395.783 65.5971 371.924 50.6557 357.833Z" fill="#33BF8D"/>
<path d="M58.7392 396.321C58.4594 396.321 58.232 396.083 58.2295 395.791V395.783C58.232 395.545 58.232 395.308 58.232 395.072C58.4019 395.309 58.5718 395.547 58.7417 395.783C58.8454 395.927 58.9467 396.069 59.0504 396.212C58.9654 396.28 58.8592 396.321 58.7442 396.321H58.7392Z" fill="white"/>
<path d="M59.0492 396.211C58.9454 396.068 58.8442 395.925 58.7405 395.782C58.7405 395.782 58.9504 395.053 59.2153 393.777C59.2403 394.445 59.2516 395.115 59.2516 395.783C59.2528 395.957 59.1729 396.113 59.0492 396.211ZM58.7405 395.782C58.5706 395.545 58.4007 395.308 58.2307 395.07C58.2307 395.048 58.2295 395.026 58.2295 395.004L58.7405 395.782Z" fill="#E6F4F5"/>
<path d="M58.7418 395.783L58.2308 395.005C58.1858 386.129 56.0254 377.193 51.3586 369.714C46.6268 361.959 39.7659 355.894 32.5451 350.662C28.9241 348.031 25.1894 345.563 21.5071 343.004C17.8261 340.455 14.2026 337.744 11.0727 334.457C7.94019 331.185 5.32252 327.373 3.41081 323.201C1.57656 319.008 0.332071 314.458 0.345816 309.827C0.375804 314.456 1.66152 318.986 3.52576 323.144C5.46996 327.282 8.10888 331.046 11.2526 334.268C14.3938 337.503 18.0186 340.162 21.7195 342.669C25.418 345.187 29.1777 347.618 32.835 350.222C40.1257 355.398 47.1141 361.439 52.0033 369.281C56.6064 376.5 58.9092 385.144 59.2166 393.777C58.9517 395.054 58.7418 395.783 58.7418 395.783Z" fill="#0FB4B5"/>
<path d="M379.809 482.997H69.1741C64.2748 482.997 60.3027 478.85 60.3027 473.732C60.3027 468.614 64.2748 464.464 69.1741 464.464H379.809C384.708 464.464 388.679 468.614 388.679 473.732C388.679 478.85 384.708 482.997 379.809 482.997Z" fill="#523478"/>
<circle cx="387" cy="74" r="29" fill="#33BF8D"/>
</svg>
