<svg width="182" height="185" viewBox="0 0 182 185" fill="none" xmlns="http://www.w3.org/2000/svg">
<path d="M90.9833 55.0565V184.299H77.919C77.2969 183.522 76.0527 181.655 69.5206 177.301C62.9884 172.946 56.1452 173.257 51.3239 173.102H-1.52588e-05V55.0565H90.9833Z" fill="#E14558"/>
<path d="M20.5295 151.869V27.2914C72.7866 25.0519 88.9614 39.7336 90.5167 47.3544V162.6C69.6139 148.416 35.1491 149.536 20.5295 151.869Z" fill="#D5E8FE"/>
<path d="M90.5167 55.0565V184.299H103.581C104.203 183.522 105.447 181.655 111.979 177.301C118.512 172.946 125.355 173.257 130.176 173.102H181.5V55.0565H90.5167Z" fill="#E94F63"/>
<path d="M129.243 38.2596C98.4486 38.2596 92.8496 46.347 88.6504 50.3907L90.0501 162.37H95.1825C95.3381 162.059 98.5419 160.037 110.113 154.438C121.684 148.839 147.906 149.617 159.571 150.706V38.2596H129.243Z" fill="#BDDFFF"/>
<path d="M36 0.12533V124.236C77.0591 119.383 88.5681 147.409 89.1902 162.029V46.3168C83.5913 6.37752 51.3972 -1.11889 36 0.12533Z" fill="#E6F1FF"/>
</svg>
