<svg width="32" height="32" viewBox="0 0 32 32" fill="none" xmlns="http://www.w3.org/2000/svg">
<path d="M31.8328 31.027L25.9188 25.113C25.6181 25.3539 25.3054 25.5789 24.9816 25.7874L31.027 31.827C31.1696 31.9723 31.3792 32.0304 31.5761 31.9786C31.7731 31.927 31.9274 31.7739 31.9805 31.5773C32.0334 31.3806 31.9769 31.1706 31.8327 31.0271L31.8328 31.027ZM19.4277 10.2852C15.6409 10.2852 12.5709 13.3552 12.5709 17.142C12.5709 20.9289 15.6409 23.9988 19.4277 23.9988C23.2145 23.9988 26.2845 20.9289 26.2845 17.142C26.2816 13.3563 23.2134 10.2881 19.4277 10.2852ZM19.4277 7.99965C14.3784 7.99965 10.2853 12.0927 10.2853 17.142C10.2853 22.1913 14.3784 26.2844 19.4277 26.2844C24.477 26.2844 28.5701 22.1913 28.5701 17.142C28.5634 12.0957 24.4741 8.0065 19.4277 7.99965ZM19.4277 25.1416C15.0096 25.1416 11.4281 21.5601 11.4281 17.142C11.4281 12.724 15.0096 9.14244 19.4277 9.14244C23.8457 9.14244 27.4273 12.724 27.4273 17.142C27.4224 21.5581 23.8437 25.1365 19.4277 25.1416ZM9.74247 20.5704H2.28571V21.7132H10.2282C10.0429 21.3427 9.88063 20.961 9.74247 20.5704ZM10.8794 22.856H1.7142C1.39904 22.8551 1.14369 22.5998 1.1428 22.2846V1.71425H0.571399C0.256238 1.71515 0.000891383 1.97049 0 2.28565V23.4274C0.000892811 23.7426 0.256238 23.9979 0.571399 23.9988H11.7822C11.4548 23.6397 11.153 23.2578 10.8794 22.856H10.8794ZM9.74247 20.5704H2.28571V21.7132H10.2282C10.0429 21.3427 9.88063 20.961 9.74247 20.5704ZM12.5709 5.71399e-05H9.1425V9.14244C9.14138 9.3844 8.98804 9.59956 8.75971 9.67947C8.69922 9.70201 8.63538 9.71362 8.5711 9.71384C8.39656 9.71563 8.23161 9.63505 8.12536 9.49666L6.28552 7.1997L4.44567 9.49666C4.29612 9.6884 4.04011 9.76227 3.8113 9.67946C3.58296 9.59956 3.42962 9.38439 3.42851 9.14244V5.48543e-05H2.85711C2.54195 0.000947665 2.2866 0.256293 2.28571 0.571454V19.4276H9.40534C8.44488 15.2716 10.1613 10.9555 13.7136 8.5939V1.14285C13.7118 0.512543 13.2011 0.00182619 12.5708 5.48543e-05L12.5709 5.71399e-05ZM4.57131 5.71399e-05V7.51396L5.83976 5.93124C5.94712 5.79419 6.11139 5.71406 6.28549 5.71406C6.45959 5.71406 6.62387 5.79419 6.73123 5.93124L7.99968 7.51396V5.71399e-05H4.57131ZM25.7131 5.71399e-05H15.9993C15.369 0.00184276 14.8583 0.512534 14.8565 1.14286V7.94251C18.6213 6.05129 23.1612 6.66869 26.2845 9.49665V0.571399C26.2836 0.256238 26.0282 0.000891383 25.7131 0V5.71399e-05ZM27.9987 1.71425H27.4273V10.6909C27.8676 11.2367 28.2507 11.8264 28.5701 12.4507V2.28548C28.5692 1.97032 28.3138 1.71497 27.9987 1.71408V1.71425Z" fill="white"/>
</svg>
