<svg width="34" height="27" viewBox="0 0 34 27" fill="none" xmlns="http://www.w3.org/2000/svg">
<path d="M32.7081 0.000269723H1.29585C0.581909 0.000269723 0 0.582179 0 1.29612V21.5661C0 22.2764 0.577956 22.8546 1.2885 22.8546H12.4983C12.5133 22.8773 12.5172 22.881 12.5286 22.9036L11.1307 25.8846C10.972 26.2172 11.2177 26.6026 11.584 26.6026H22.4159C22.7825 26.6026 23.0279 26.2133 22.8693 25.8846L21.4714 22.9036C21.4827 22.8847 21.4864 22.881 21.4977 22.8546H32.7041C33.4183 22.8546 34 22.2767 34 21.5625V1.29585C34.0037 0.581909 33.4218 0 32.7078 0L32.7081 0.000269723ZM31.9939 17.7045C31.9939 17.8821 31.8429 18.0331 31.6653 18.0331L2.33505 18.0334C2.15373 18.0334 2.00641 17.8824 2.00641 17.7047L2.00615 2.4712C2.00615 2.28988 2.15347 2.14256 2.33479 2.14256H31.665C31.8427 2.14256 31.9937 2.28988 31.9937 2.4712L31.9939 17.7045Z" fill="white"/>
<path d="M18.136 13.6285C18.257 13.5415 18.291 13.3752 18.219 13.2432L17.9697 12.8126C17.898 12.6803 17.7394 12.6312 17.6031 12.6879L15.1361 13.6928C15.0378 13.7305 14.9284 13.7078 14.8565 13.6325L12.1512 10.8745C11.9358 10.6365 11.6599 10.4702 11.354 10.3909C10.8893 10.2775 10.5604 10.2359 10.5604 10.2359C10.1448 10.1906 9.85017 10.0583 9.6309 9.88827C9.54788 9.82028 9.4306 9.85427 9.37764 9.94862L8.08914 13.5908H7.82453L6.54373 9.93358C6.49471 9.84291 6.37374 9.81261 6.29046 9.87322C6.0675 10.0509 5.76521 10.1905 5.34591 10.2359C5.34591 10.2359 5.17962 10.2548 4.91897 10.3115C3.64579 10.3832 2.89022 11.6 3.01483 12.9562C3.01483 12.9562 3.12815 14.6563 3.27548 16.2584C3.28312 16.3604 3.36982 16.436 3.46813 16.436H11.7046C11.8066 16.436 11.8936 16.3567 11.9009 16.251L11.9613 15.2535C11.965 15.0948 12.135 14.9928 12.3392 15.1025L14.4097 15.9866C14.6136 16.0886 14.8063 16.0697 14.965 15.9716L16.2155 15.0497V15.0611H29.3791V14.1995L17.3617 14.199L18.136 13.6285Z" fill="white"/>
<path d="M5.83372 7.24337C6.22297 8.07457 6.59327 8.72449 7.70014 9.12484H7.70383C7.86249 9.18151 8.04012 9.18151 8.19877 9.12484H8.20246C9.31331 8.72426 9.63062 8.14258 10.0689 7.24337C10.1972 7.2547 10.4581 7.19804 10.6205 6.64275C10.7942 6.05346 10.4505 5.92483 10.2805 5.89454V5.86054C10.4089 3.88077 9.04504 3.12891 7.95686 3.12891C6.78197 3.12891 5.44814 3.92982 5.62949 5.86054V5.89454C5.45951 5.92484 5.11557 6.05688 5.28951 6.64275C5.44448 7.19805 5.70144 7.25471 5.83373 7.24337H5.83372Z" fill="white"/>
<path d="M7.38677 11.5876L7.92335 12.9328C7.93468 12.9554 7.96868 12.9554 7.9837 12.9328L8.50895 11.5876C8.51264 11.58 8.51264 11.5726 8.50895 11.5649L8.18769 10.5864C8.184 10.5714 8.16871 10.5637 8.15738 10.5637H7.73808C7.72306 10.5637 7.71173 10.5714 7.70777 10.5864L7.38282 11.5649C7.37913 11.5726 7.38309 11.5802 7.38678 11.5876H7.38677Z" fill="white"/>
<path d="M7.75319 10.3752H8.15378C8.17276 10.3752 8.18778 10.3639 8.19542 10.3488L8.35408 9.93323C8.3691 9.90292 8.34644 9.86523 8.31244 9.86523H7.58689C7.55289 9.86523 7.53023 9.89923 7.54525 9.93323L7.71155 10.3488C7.71919 10.3676 7.73816 10.3752 7.75319 10.3752H7.75319Z" fill="white"/>
<path d="M16.2129 4.2052H25.1368V6.94054H16.2129V4.2052Z" fill="white"/>
<path d="M16.2129 8.84094H29.3725V9.70251H16.2129V8.84094Z" fill="white"/>
<path d="M16.2129 11.4675H27.1319V12.3291H16.2129V11.4675Z" fill="white"/>
</svg>
