<svg width="33" height="31" viewBox="0 0 33 31" fill="none" xmlns="http://www.w3.org/2000/svg">
<path fill-rule="evenodd" clip-rule="evenodd" d="M16.5009 27.166C19.3012 27.166 21.5703 24.8974 21.5703 22.0965C21.5703 19.2941 19.3032 17.027 16.5009 17.027C13.6994 17.027 11.4314 19.2941 11.4314 22.0965C11.4314 24.855 13.6602 27.166 16.5009 27.166ZM15.2189 7.08083C16.4808 6.65228 16.5194 6.65171 17.7821 7.08083C18.2388 5.82386 18.2422 5.8059 19.3722 5.08107C18.6804 3.95371 18.6705 3.9039 18.8056 2.58956C17.4884 2.42719 17.4466 2.40486 16.5002 1.47497C15.5393 2.41327 15.5312 2.42456 14.1943 2.58956C14.3323 3.91868 14.3302 3.93931 13.6291 5.08107C14.744 5.79725 14.7695 5.8373 15.2189 7.08083H15.2189ZM19.1715 3.25583C19.1312 3.88067 19.2345 4.04189 19.7352 4.85839C19.8207 4.99873 19.8161 5.16864 19.7375 5.30027H21.5001C22.0647 5.30027 22.5222 4.84215 22.5222 4.27817C22.5222 3.71392 22.0647 3.25606 21.5001 3.25606H19.1716L19.1715 3.25583ZM11.5002 5.30027H13.2637C13.1851 5.16863 13.1807 4.99843 13.266 4.85838C13.7757 4.02912 13.8737 3.88534 13.8296 3.25582H11.5002C10.9359 3.25582 10.4784 3.71394 10.4784 4.27793C10.4784 4.84217 10.9359 5.30004 11.5002 5.30004L11.5002 5.30027ZM17.3444 19.0828L17.7233 20.2567L18.9583 20.2544C19.8174 20.2544 20.1616 21.3563 19.4767 21.8535L18.479 22.5781L18.8623 23.7509C19.1378 24.5994 18.1238 25.268 17.4494 24.7008L16.5024 24.0105L15.5047 24.7379C14.8106 25.2436 13.8842 24.5559 14.1449 23.7512L14.5265 22.5778L13.527 21.8547C12.8044 21.3307 13.2318 20.1918 14.1112 20.2542L15.282 20.2565L15.6604 19.0825C15.9231 18.2622 17.0841 18.2736 17.3445 19.0825L17.3444 19.0828ZM3.56409 13.5424C2.75687 13.5424 2.75687 12.315 3.56409 12.315H29.436C30.2432 12.315 30.2432 13.5424 29.436 13.5424H3.56409ZM3.56409 9.38536C2.75687 9.38536 2.75687 8.15801 3.56409 8.15801H29.436C30.2432 8.15801 30.2432 9.38536 29.436 9.38536H3.56409ZM4.46929 23.6704C4.18746 21.3441 2.32628 19.4829 0 19.2011V23.6704H4.46929ZM0 4.46929C2.32799 4.18746 4.18775 2.32769 4.46929 0H0V4.46929ZM28.5307 0C28.8117 2.32858 30.6714 4.18834 33 4.46929V0H28.5307ZM33 19.2011C30.6714 19.4821 28.8125 21.3421 28.5307 23.6704H33V19.2011ZM27.2967 23.6704C27.5884 20.6662 29.9958 18.2591 33 17.9671V5.70399C29.9984 5.41201 27.5881 3.00227 27.2967 0.000668244H5.70399C5.41201 3.00397 3.00487 5.41257 0.000668244 5.70399V17.9671C3.00538 18.2588 5.41257 20.6659 5.70399 23.6704H10.4021C10.2724 23.167 10.2037 22.6399 10.2037 22.0968C10.2037 18.6194 13.0247 15.7997 16.5009 15.7997C19.9759 15.7997 22.798 18.6218 22.798 22.0968C22.798 22.6402 22.7287 23.1676 22.5991 23.6704H27.2972H27.2967ZM24.8597 29.263L21.509 25.9123C21.0424 26.5235 20.4657 27.0494 19.8113 27.454L23.2402 30.8829L22.8523 29.6422C22.709 29.1756 23.1434 28.7274 23.6192 28.8753L24.8599 29.2632L24.8597 29.263ZM11.4913 25.9132L8.14153 29.263L9.38284 28.8747C9.85894 28.7268 10.2941 29.1777 10.1492 29.6416L9.7612 30.8829L13.1896 27.4545C12.5326 27.0486 11.9597 26.5267 11.4914 25.9134L11.4913 25.9132Z" fill="white"/>
</svg>
