<svg width="633" height="519" viewBox="0 0 633 519" fill="none" xmlns="http://www.w3.org/2000/svg">
<path d="M583.77 363.143C560.64 483.484 419.663 493.216 275.608 465.528C131.553 437.841 4.91 387.655 28.0399 267.313C51.1698 146.972 275.037 38.2365 419.091 65.9241C563.146 93.6117 606.9 242.801 583.77 363.143Z" fill="#6288E9" fill-opacity="0.12"/>
<path d="M487.846 355.253H258.462C255.829 355.253 253.694 353.119 253.694 350.485V206.186C253.694 203.553 255.829 201.419 258.462 201.419H487.846C490.479 201.419 492.614 203.553 492.614 206.186V350.485C492.614 353.119 490.479 355.253 487.846 355.253Z" fill="#674197"/>
<path d="M483.535 349.345H262.77C260.38 349.345 258.443 347.408 258.443 345.017V211.653C258.443 209.262 260.38 207.326 262.77 207.326H483.535C485.924 207.326 487.862 209.262 487.862 211.653V345.017C487.862 347.408 485.924 349.345 483.535 349.345Z" fill="white"/>
<g opacity="0.36">
<g opacity="0.36">
<path opacity="0.36" d="M258.442 223.756V211.653C258.442 209.263 260.379 207.326 262.769 207.326H483.534C485.923 207.326 487.861 209.263 487.861 211.653V223.756H258.442Z" fill="#B2A1F5"/>
</g>
</g>
<path d="M268.807 216.356C268.807 217.473 267.9 218.381 266.782 218.381C265.664 218.381 264.757 217.473 264.757 216.356C264.757 215.238 265.664 214.331 266.782 214.331C267.9 214.331 268.807 215.238 268.807 216.356Z" fill="#B2A1F5"/>
<g opacity="0.36">
<g opacity="0.36">
<path opacity="0.36" d="M275.59 216.356C275.59 217.474 274.684 218.381 273.565 218.381C272.449 218.381 271.54 217.474 271.54 216.356C271.54 215.238 272.449 214.331 273.565 214.331C274.684 214.331 275.59 215.238 275.59 216.356Z" fill="#B2A1F5"/>
</g>
</g>
<path d="M282.095 216.356C282.095 217.473 281.189 218.381 280.07 218.381C278.953 218.381 278.045 217.473 278.045 216.356C278.045 215.238 278.953 214.331 280.07 214.331C281.189 214.331 282.095 215.238 282.095 216.356Z" fill="white"/>
<g opacity="0.2">
<g opacity="0.2">
<path opacity="0.2" d="M397.547 332.522H273.841C272.303 332.522 271.056 331.275 271.056 329.738V244.198C271.056 242.66 272.303 241.413 273.841 241.413H397.547C399.084 241.413 400.331 242.66 400.331 244.198V329.738C400.331 331.275 399.084 332.522 397.547 332.522Z" fill="#B2A1F5"/>
</g>
</g>
<path d="M300.309 270.365H280.224C279.552 270.365 279.006 269.82 279.006 269.148V250.731C279.006 250.059 279.552 249.514 280.224 249.514H300.309C300.981 249.514 301.526 250.059 301.526 250.731V269.148C301.526 269.82 300.981 270.365 300.309 270.365Z" fill="white"/>
<path d="M296.276 260.039C296.276 263.358 293.585 266.05 290.266 266.05C286.947 266.05 284.255 263.358 284.255 260.039C284.255 256.72 286.947 254.028 290.266 254.028C293.585 254.028 296.276 256.72 296.276 260.039Z" fill="#B2A1F5"/>
<path d="M319.441 253.879H305.645C305.276 253.879 304.977 253.579 304.977 253.209C304.977 252.839 305.276 252.54 305.645 252.54H319.441C319.811 252.54 320.11 252.839 320.11 253.209C320.11 253.579 319.811 253.879 319.441 253.879Z" fill="white"/>
<path d="M324.607 257.677H305.647C305.277 257.677 304.977 257.378 304.977 257.008C304.977 256.638 305.277 256.338 305.647 256.338H324.607C324.977 256.338 325.276 256.638 325.276 257.008C325.276 257.378 324.977 257.677 324.607 257.677Z" fill="#223663"/>
<path d="M324.607 260.897H305.647C305.277 260.897 304.977 260.598 304.977 260.228C304.977 259.858 305.277 259.558 305.647 259.558H324.607C324.977 259.558 325.276 259.858 325.276 260.228C325.276 260.598 324.977 260.897 324.607 260.897Z" fill="#223663"/>
<path d="M324.607 264.118H305.647C305.277 264.118 304.977 263.819 304.977 263.449C304.977 263.078 305.277 262.779 305.647 262.779H324.607C324.977 262.779 325.276 263.078 325.276 263.449C325.276 263.819 324.977 264.118 324.607 264.118Z" fill="#223663"/>
<path d="M314.69 267.339H305.647C305.276 267.339 304.977 267.039 304.977 266.67C304.977 266.299 305.276 266 305.647 266H314.69C315.06 266 315.36 266.299 315.36 266.67C315.36 267.039 315.06 267.339 314.69 267.339Z" fill="#223663"/>
<path d="M367.405 283.654H337.338C336.331 283.654 335.516 282.838 335.516 281.832V254.262C335.516 253.257 336.331 252.44 337.338 252.44H367.405C368.41 252.44 369.227 253.257 369.227 254.262V281.832C369.227 282.838 368.41 283.654 367.405 283.654Z" fill="white"/>
<path d="M344.375 260.145H360.368V276.139H344.375V260.145Z" fill="#FFA331"/>
<path d="M367.405 320.358H337.338C336.331 320.358 335.516 319.542 335.516 318.537V290.967C335.516 289.961 336.331 289.145 337.338 289.145H367.405C368.41 289.145 369.227 289.961 369.227 290.967V318.537C369.227 319.542 368.41 320.358 367.405 320.358Z" fill="white"/>
<path d="M352.371 312.841C347.954 312.841 344.375 309.26 344.375 304.845C344.375 300.428 347.954 296.848 352.371 296.848C356.787 296.848 360.367 300.428 360.367 304.845C360.367 309.26 356.787 312.841 352.371 312.841Z" fill="#FFC077"/>
<path d="M386.547 267.404H372.753C372.383 267.404 372.083 267.104 372.083 266.734C372.083 266.364 372.383 266.065 372.753 266.065H386.547C386.917 266.065 387.217 266.364 387.217 266.734C387.217 267.104 386.917 267.404 386.547 267.404Z" fill="white"/>
<path d="M391.712 271.202H372.751C372.381 271.202 372.081 270.903 372.081 270.533C372.081 270.163 372.381 269.863 372.751 269.863H391.712C392.082 269.863 392.381 270.163 392.381 270.533C392.381 270.903 392.082 271.202 391.712 271.202Z" fill="#223663"/>
<path d="M391.712 274.422H372.751C372.381 274.422 372.081 274.123 372.081 273.753C372.081 273.383 372.381 273.083 372.751 273.083H391.712C392.082 273.083 392.381 273.383 392.381 273.753C392.381 274.123 392.082 274.422 391.712 274.422Z" fill="#223663"/>
<path d="M391.712 277.643H372.751C372.381 277.643 372.081 277.344 372.081 276.974C372.081 276.603 372.381 276.304 372.751 276.304H391.712C392.082 276.304 392.381 276.603 392.381 276.974C392.381 277.344 392.082 277.643 391.712 277.643Z" fill="#223663"/>
<path d="M381.796 280.864H372.753C372.382 280.864 372.083 280.565 372.083 280.195C372.083 279.824 372.382 279.525 372.753 279.525H381.796C382.166 279.525 382.465 279.824 382.465 280.195C382.465 280.565 382.166 280.864 381.796 280.864Z" fill="#223663"/>
<path d="M386.547 304.365H372.753C372.383 304.365 372.083 304.066 372.083 303.696C372.083 303.326 372.383 303.026 372.753 303.026H386.547C386.917 303.026 387.217 303.326 387.217 303.696C387.217 304.066 386.917 304.365 386.547 304.365Z" fill="white"/>
<path d="M391.712 308.163H372.751C372.381 308.163 372.081 307.864 372.081 307.493C372.081 307.123 372.381 306.824 372.751 306.824H391.712C392.082 306.824 392.381 307.123 392.381 307.493C392.381 307.864 392.082 308.163 391.712 308.163Z" fill="#223663"/>
<path d="M391.712 311.384H372.751C372.381 311.384 372.081 311.084 372.081 310.715C372.081 310.344 372.381 310.045 372.751 310.045H391.712C392.082 310.045 392.381 310.344 392.381 310.715C392.381 311.084 392.082 311.384 391.712 311.384Z" fill="#223663"/>
<path d="M391.712 314.605H372.751C372.381 314.605 372.081 314.306 372.081 313.935C372.081 313.565 372.381 313.266 372.751 313.266H391.712C392.082 313.266 392.381 313.565 392.381 313.935C392.381 314.306 392.082 314.605 391.712 314.605Z" fill="#223663"/>
<path d="M381.796 317.825H372.753C372.382 317.825 372.083 317.526 372.083 317.156C372.083 316.785 372.382 316.486 372.753 316.486H381.796C382.166 316.486 382.465 316.785 382.465 317.156C382.465 317.526 382.166 317.825 381.796 317.825Z" fill="#223663"/>
<path d="M300.309 297.393H280.224C279.552 297.393 279.006 296.848 279.006 296.175V277.758C279.006 277.086 279.552 276.541 280.224 276.541H300.309C300.981 276.541 301.526 277.086 301.526 277.758V296.175C301.526 296.848 300.981 297.393 300.309 297.393Z" fill="white"/>
<path d="M284.925 281.596H295.61V292.279H284.925V281.596Z" fill="#CAC3FB"/>
<path d="M319.441 280.908H305.645C305.276 280.908 304.977 280.607 304.977 280.238C304.977 279.868 305.276 279.569 305.645 279.569H319.441C319.811 279.569 320.11 279.868 320.11 280.238C320.11 280.607 319.811 280.908 319.441 280.908Z" fill="white"/>
<path d="M324.607 284.704H305.647C305.277 284.704 304.977 284.405 304.977 284.035C304.977 283.665 305.277 283.365 305.647 283.365H324.607C324.977 283.365 325.276 283.665 325.276 284.035C325.276 284.405 324.977 284.704 324.607 284.704Z" fill="#223663"/>
<path d="M324.607 287.925H305.647C305.277 287.925 304.977 287.626 304.977 287.256C304.977 286.885 305.277 286.586 305.647 286.586H324.607C324.977 286.586 325.276 286.885 325.276 287.256C325.276 287.626 324.977 287.925 324.607 287.925Z" fill="#223663"/>
<path d="M324.607 291.147H305.647C305.277 291.147 304.977 290.847 304.977 290.478C304.977 290.107 305.277 289.808 305.647 289.808H324.607C324.977 289.808 325.276 290.107 325.276 290.478C325.276 290.847 324.977 291.147 324.607 291.147Z" fill="#223663"/>
<path d="M314.69 294.368H305.647C305.276 294.368 304.977 294.068 304.977 293.699C304.977 293.328 305.276 293.029 305.647 293.029H314.69C315.06 293.029 315.36 293.328 315.36 293.699C315.36 294.068 315.06 294.368 314.69 294.368Z" fill="#223663"/>
<path d="M300.309 324.421H280.224C279.552 324.421 279.006 323.876 279.006 323.203V304.787C279.006 304.114 279.552 303.569 280.224 303.569H300.309C300.981 303.569 301.526 304.114 301.526 304.787V323.203C301.526 323.876 300.981 324.421 300.309 324.421Z" fill="white"/>
<path d="M293.455 308.607H287.076L283.885 314.132L287.076 319.658H293.455L296.645 314.132L293.455 308.607Z" fill="#B2A1F5"/>
<path d="M319.441 307.934H305.645C305.276 307.934 304.977 307.635 304.977 307.265C304.977 306.894 305.276 306.595 305.645 306.595H319.441C319.811 306.595 320.11 306.894 320.11 307.265C320.11 307.635 319.811 307.934 319.441 307.934Z" fill="white"/>
<path d="M324.607 311.733H305.647C305.277 311.733 304.977 311.433 304.977 311.063C304.977 310.693 305.277 310.393 305.647 310.393H324.607C324.977 310.393 325.276 310.693 325.276 311.063C325.276 311.433 324.977 311.733 324.607 311.733Z" fill="#223663"/>
<path d="M324.607 314.954H305.647C305.277 314.954 304.977 314.654 304.977 314.284C304.977 313.914 305.277 313.615 305.647 313.615H324.607C324.977 313.615 325.276 313.914 325.276 314.284C325.276 314.654 324.977 314.954 324.607 314.954Z" fill="#223663"/>
<path d="M324.607 318.173H305.647C305.277 318.173 304.977 317.874 304.977 317.504C304.977 317.135 305.277 316.834 305.647 316.834H324.607C324.977 316.834 325.276 317.135 325.276 317.504C325.276 317.874 324.977 318.173 324.607 318.173Z" fill="#223663"/>
<path d="M314.69 321.395H305.647C305.276 321.395 304.977 321.096 304.977 320.725C304.977 320.355 305.276 320.056 305.647 320.056H314.69C315.06 320.056 315.36 320.355 315.36 320.725C315.36 321.096 315.06 321.395 314.69 321.395Z" fill="#223663"/>
<path d="M456.34 334.808L415.357 334.515C415.357 334.515 406.849 384.252 406.402 401.68L455.249 402.901C455.249 402.901 458.162 381.286 458.506 375.22C459.056 365.534 456.34 334.808 456.34 334.808Z" fill="#223663"/>
<path d="M454.793 283.292C457.287 290.283 464.477 321.738 462.83 350.592L411.165 349.362C411.165 349.362 414.421 319.335 421.372 299.622C424.464 290.851 433.917 282.609 435.697 280.598L452.425 281.606C453.513 281.665 454.451 282.331 454.793 283.292Z" fill="#FFA331"/>
<path d="M479.717 319.546C479.246 306.166 459.889 278.204 451.117 282.244C440.996 286.907 460.426 315.698 463.978 322.865C464.379 323.677 454.853 353.05 454.853 353.05C455.674 357.861 464.228 358.766 464.228 358.766C464.228 358.766 480.402 338.975 479.717 319.546Z" fill="#FFA331"/>
<path d="M462.637 320.469C462.524 320.469 462.414 320.404 462.36 320.295L454.741 304.779C454.667 304.627 454.73 304.442 454.882 304.367C455.034 304.289 455.22 304.353 455.295 304.507L462.914 320.024C462.989 320.177 462.927 320.361 462.773 320.436C462.729 320.458 462.683 320.469 462.637 320.469Z" fill="#223663"/>
<path d="M455.187 352.128C455.156 352.128 455.124 352.123 455.093 352.113C454.931 352.062 454.842 351.888 454.893 351.726L462.874 326.718C462.926 326.553 463.1 326.468 463.263 326.517C463.425 326.569 463.514 326.742 463.462 326.906L455.481 351.914C455.439 352.045 455.318 352.128 455.187 352.128Z" fill="#223663"/>
<path d="M426.194 247.558C426.194 247.558 423.211 259.344 423.966 266.538C424.677 273.335 428.992 277.715 435.069 277.72L435.634 282.397C435.634 282.397 443.73 284.558 451.592 282.245L451.713 271.479L451.642 248.693L448.73 244.189L428.458 241.199L426.194 247.558Z" fill="#F9B89C"/>
<path d="M443.904 275.621C443.096 276.457 435.75 280.69 435.448 280.816C435.448 280.816 435.004 277.053 435.04 277.525C435.055 277.72 436.645 277.817 438.628 277.241C440.407 276.726 442.255 275.889 443.39 275.337L443.904 275.621Z" fill="#223663"/>
<path d="M435.793 277.989C433.561 277.989 431.191 277.398 428.83 275.829C428.688 275.735 428.65 275.542 428.745 275.4C428.839 275.259 429.03 275.221 429.172 275.315C434.459 278.83 439.829 277.18 443.402 275.173C443.553 275.091 443.74 275.142 443.823 275.291C443.907 275.44 443.853 275.628 443.705 275.711C441.565 276.912 438.805 277.989 435.793 277.989Z" fill="#223663"/>
<path d="M441.144 258.616C440.926 259.528 440.008 260.09 439.096 259.871C438.184 259.653 437.62 258.734 437.839 257.823C438.058 256.91 438.976 256.347 439.889 256.567C440.801 256.786 441.363 257.703 441.144 258.616Z" fill="#223663"/>
<path d="M429.134 256.769C429.459 255.889 430.436 255.436 431.316 255.76C432.196 256.084 432.648 257.061 432.325 257.941C432.001 258.821 431.024 259.273 430.143 258.95C429.262 258.626 428.811 257.648 429.134 256.769Z" fill="#223663"/>
<path d="M438.625 253.307C439.103 252.916 439.959 253.046 440.585 253.171C441.171 253.288 442.24 253.46 442.654 253.91C442.873 254.149 442.908 254.487 442.777 254.74C442.594 255.091 442.156 255.252 441.724 255.279C441.346 255.302 440.956 255.235 440.571 255.169C440.054 255.078 439.536 254.987 439.02 254.878C438.893 254.85 438.762 254.821 438.652 254.753C438.36 254.571 438.313 254.006 438.364 253.756C438.403 253.56 438.495 253.414 438.625 253.307Z" fill="#223663"/>
<path d="M432.556 252.735C432.195 252.234 431.334 252.14 430.697 252.1C430.101 252.062 429.024 251.953 428.508 252.282C428.235 252.457 428.115 252.775 428.176 253.053C428.262 253.439 428.645 253.707 429.054 253.844C429.414 253.964 429.808 254 430.196 254.034C430.72 254.08 431.244 254.125 431.771 254.151C431.901 254.159 432.034 254.163 432.158 254.126C432.487 254.025 432.679 253.491 432.694 253.237C432.706 253.038 432.655 252.872 432.556 252.735Z" fill="#223663"/>
<path d="M434.451 262.347C434.436 262.347 434.422 262.346 434.406 262.344C434.239 262.32 434.121 262.164 434.145 261.995C434.163 261.869 434.185 261.685 434.209 261.482C434.254 261.113 434.305 260.685 434.352 260.429C434.384 260.26 434.544 260.154 434.712 260.181C434.88 260.212 434.99 260.374 434.96 260.541C434.914 260.788 434.865 261.2 434.822 261.556C434.798 261.763 434.775 261.952 434.757 262.082C434.734 262.236 434.602 262.347 434.451 262.347Z" fill="#223663"/>
<path d="M434.369 263.901C434.049 263.901 433.667 263.834 433.35 263.587C432.918 263.25 432.773 262.648 433.022 262.215C433.132 262.021 433.316 261.864 433.551 261.76C433.899 261.608 434.302 261.595 434.657 261.727C434.816 261.786 434.898 261.964 434.839 262.123C434.78 262.283 434.602 262.366 434.442 262.305C434.24 262.231 433.999 262.237 433.801 262.324C433.688 262.374 433.601 262.445 433.557 262.522C433.463 262.685 433.544 262.955 433.729 263.1C433.985 263.298 434.356 263.293 434.553 263.275C434.716 263.258 434.875 263.381 434.892 263.55C434.909 263.719 434.786 263.871 434.616 263.888C434.54 263.896 434.457 263.901 434.369 263.901Z" fill="#223663"/>
<path d="M434.943 268.315C434.277 268.315 433.612 268.159 433.022 267.84C432.873 267.759 432.817 267.571 432.898 267.421C432.978 267.271 433.165 267.215 433.317 267.297C434.524 267.952 436.108 267.797 437.168 266.922C437.3 266.814 437.495 266.833 437.603 266.963C437.711 267.094 437.693 267.29 437.561 267.398C436.831 268.002 435.886 268.315 434.943 268.315Z" fill="#223663"/>
<path d="M425.1 240.441C425.1 240.441 421.81 243.531 423.23 247.853C423.862 249.78 426.024 250.979 427.837 251.211C430.858 251.596 433.826 250.027 433.836 250.023C433.785 250.041 435.312 252.62 439.176 253.127C441.816 253.473 443.353 253.286 444.888 251.621C444.888 251.621 445.185 255.613 449.216 256.337C449.216 256.337 448.277 269.465 450.991 273.4C451.235 273.753 458.694 277.272 459.163 270.159C459.163 270.159 465.839 270.943 466.048 263.902C466.048 263.902 472.535 258.917 469.02 251.381C469.02 251.381 471.998 244.007 466.05 241.399C466.05 241.399 467.697 231.591 456.428 231.067C456.428 231.067 454.447 228.437 451.37 227.777C448.222 227.101 446.229 227.388 443.379 229.207C443.379 229.207 441.214 227.415 437.354 228.113C433.861 228.745 433.215 231.349 433.215 231.349C433.215 231.349 429.286 230.593 426.691 234.362C425.745 235.737 425.016 237.642 425.1 240.441Z" fill="#223663"/>
<path d="M448.7 260.071C450.709 259.318 454.509 257.993 456.289 259.522C457.799 260.819 457.76 263.203 456.321 264.658C453.974 267.033 449.602 267.901 448.302 268.248" fill="#F9B89C"/>
<path d="M454.909 262.046C454.867 262.046 454.824 262.037 454.783 262.019C453.355 261.38 452.315 261.842 452.304 261.846C452.148 261.915 451.966 261.848 451.896 261.693C451.824 261.538 451.894 261.356 452.048 261.284C452.1 261.261 453.357 260.705 455.035 261.455C455.191 261.525 455.261 261.707 455.191 261.863C455.14 261.978 455.027 262.046 454.909 262.046Z" fill="#223663"/>
<path d="M452.9 263.905C452.835 263.905 452.769 263.885 452.713 263.842C452.577 263.74 452.551 263.546 452.654 263.411C452.658 263.404 453.1 262.814 453.585 261.665C453.651 261.508 453.831 261.434 453.99 261.5C454.146 261.566 454.219 261.747 454.154 261.904C453.635 263.135 453.165 263.758 453.145 263.784C453.085 263.864 452.993 263.905 452.9 263.905Z" fill="#223663"/>
<path d="M443.802 283.753C438.769 283.753 434.898 282.467 434.84 282.447C434.679 282.393 434.592 282.218 434.648 282.056C434.702 281.896 434.877 281.81 435.039 281.863C435.122 281.892 443.458 284.658 451.494 281.953C451.655 281.897 451.832 281.986 451.884 282.147C451.938 282.308 451.852 282.484 451.69 282.538C448.99 283.446 446.258 283.753 443.802 283.753Z" fill="#223663"/>
<path d="M379.658 302.528C379.658 302.528 378.019 300.813 376.483 299.428C374.595 297.728 372.034 295.166 370.345 293.834C369.484 293.155 367.939 291.421 367.157 292.226C366.197 293.215 370.005 296.291 370.005 296.291C369.181 295.981 368.704 295.624 368.085 296.349C367.406 297.146 368.572 298.263 368.572 298.263C368.572 298.263 367.699 297.64 366.967 298.53C366.212 299.447 367.578 300.542 367.843 300.956C367.843 300.956 367.241 300.912 366.923 301.222C366.656 301.483 366.633 302.061 366.918 302.466C367.083 302.701 367.854 303.622 370.116 305.238C372.066 306.633 374.207 307.849 374.207 307.849L379.658 302.528Z" fill="#F9B89C"/>
<path d="M374.536 294.786C375.642 294.384 376.27 295.826 376.891 297.654C377.185 298.519 378.118 300.447 378.029 301.081C377.896 302.014 374.917 299.07 374.917 299.07C374.917 299.07 372.312 295.596 374.536 294.786Z" fill="#F9B89C"/>
<path d="M373.806 302.131C373.715 302.131 373.625 302.09 373.564 302.013C372.451 300.597 373.232 299.026 373.902 298.26C373.739 297.887 373.401 297.088 373.331 296.677C373.302 296.509 373.415 296.35 373.583 296.321C373.743 296.292 373.91 296.404 373.94 296.573C374.003 296.944 374.401 297.869 374.549 298.194C374.602 298.312 374.577 298.449 374.486 298.54C374.421 298.605 372.896 300.164 374.049 301.631C374.155 301.765 374.131 301.96 373.996 302.064C373.94 302.108 373.872 302.131 373.806 302.131Z" fill="#223663"/>
<path d="M371.556 300.006C370.628 300.006 369.446 299.185 369.305 299.084C369.166 298.985 369.133 298.792 369.232 298.653C369.331 298.515 369.522 298.481 369.663 298.581C370.023 298.837 371.094 299.478 371.682 299.379C371.799 299.36 371.88 299.311 371.938 299.227C371.968 299.183 371.999 299.119 371.974 298.992C371.837 298.297 370.364 297.115 369.466 296.532C369.324 296.439 369.283 296.248 369.375 296.106C369.468 295.963 369.659 295.922 369.803 296.015C370.062 296.183 372.349 297.696 372.58 298.873C372.63 299.135 372.584 299.379 372.444 299.58C372.293 299.799 372.065 299.94 371.788 299.987C371.712 300 371.635 300.006 371.556 300.006Z" fill="#223663"/>
<path d="M370.383 301.906C369.439 301.907 368.283 301.232 368.108 301.126C367.961 301.039 367.914 300.848 368.003 300.702C368.09 300.557 368.281 300.51 368.426 300.597C369.058 300.978 370.48 301.603 370.856 301.116C370.885 301.079 370.915 301.023 370.895 300.907C370.782 300.204 369.239 298.921 368.292 298.277C368.151 298.182 368.115 297.99 368.211 297.849C368.306 297.708 368.499 297.671 368.64 297.767C368.913 297.953 371.312 299.613 371.506 300.809C371.546 301.065 371.492 301.301 371.346 301.491C371.113 301.795 370.765 301.906 370.383 301.906Z" fill="#223663"/>
<path d="M369.932 303.902C369.1 303.902 368.01 303.175 367.742 302.988C367.603 302.889 367.569 302.697 367.667 302.557C367.766 302.418 367.956 302.385 368.097 302.482C368.894 303.041 369.943 303.477 370.17 303.21C370.213 303.16 370.224 303.113 370.212 303.043C370.1 302.476 368.611 301.474 367.589 300.943C367.438 300.864 367.379 300.678 367.457 300.528C367.535 300.376 367.72 300.318 367.872 300.395C368.328 300.63 370.609 301.862 370.818 302.926C370.867 303.179 370.805 303.416 370.64 303.611C370.46 303.821 370.211 303.902 369.932 303.902Z" fill="#223663"/>
<path d="M436.202 280.665C416.822 279.002 398.912 311.451 398.912 311.451L378.062 300.268L371.518 307.357C371.518 307.357 385.713 329.81 405.245 326.046C413.047 324.542 421.856 310.58 421.856 310.58" fill="#FFA331"/>
<path d="M414.709 326.745C414.687 326.745 414.663 326.742 414.641 326.737C414.474 326.699 414.371 326.535 414.408 326.367C416.056 319.118 418.788 305.067 418.815 304.926C418.848 304.757 419.012 304.645 419.177 304.682C419.344 304.714 419.454 304.876 419.422 305.043C419.394 305.185 416.66 319.245 415.01 326.505C414.977 326.648 414.85 326.745 414.709 326.745Z" fill="#223663"/>
<path d="M209.772 247.586C209.772 247.586 215.45 270.025 214.016 283.723C212.661 296.662 204.445 305.002 192.874 305.013L191.797 313.917C191.797 313.917 176.385 318.031 161.416 313.629L161.184 293.13L161.322 249.746L166.865 241.172L205.462 235.478L209.772 247.586Z" fill="#F9B89C"/>
<path d="M176.051 301.016C177.589 302.607 191.578 310.664 192.149 310.905C192.149 310.905 192.996 303.742 192.927 304.643C192.901 305.013 189.873 305.196 186.096 304.101C182.712 303.119 179.191 301.528 177.031 300.474L176.051 301.016Z" fill="#223663"/>
<path d="M191.496 305.734C185.718 305.734 180.43 303.669 176.328 301.369C175.945 301.154 175.808 300.669 176.024 300.285C176.239 299.903 176.724 299.767 177.107 299.981C183.861 303.772 194.005 306.897 203.985 300.26C204.35 300.015 204.843 300.114 205.086 300.481C205.33 300.846 205.231 301.34 204.865 301.582C200.332 304.599 195.779 305.734 191.496 305.734Z" fill="#223663"/>
<path d="M165.095 271.41C161.272 269.976 154.037 267.453 150.648 270.365C147.774 272.834 147.849 277.375 150.586 280.144C155.056 284.665 163.38 286.317 165.854 286.978" fill="#F9B89C"/>
<path d="M153.275 275.377C152.97 275.377 152.681 275.201 152.548 274.906C152.369 274.506 152.548 274.036 152.95 273.856C156.232 272.388 158.704 273.483 158.808 273.53C159.208 273.713 159.383 274.185 159.2 274.585C159.018 274.982 158.551 275.16 158.151 274.979C158.063 274.941 156.187 274.15 153.599 275.307C153.494 275.354 153.384 275.377 153.275 275.377Z" fill="#223663"/>
<path d="M157.1 278.918C156.861 278.918 156.625 278.81 156.469 278.606C156.43 278.554 155.52 277.348 154.522 274.98C154.352 274.576 154.542 274.109 154.946 273.938C155.353 273.769 155.817 273.959 155.988 274.362C156.899 276.524 157.725 277.631 157.734 277.643C157.999 277.992 157.93 278.491 157.581 278.756C157.437 278.865 157.268 278.918 157.1 278.918Z" fill="#223663"/>
<path d="M186.547 225.882C183.644 225.939 165.835 226.695 158.875 228.898C155.167 230.072 151.497 231.921 149.193 235.054C147.481 237.383 146.651 240.252 146.233 243.113C145.124 250.684 149.054 271.546 149.054 271.546C149.054 271.546 151.892 269.295 156.888 269.532C158.217 269.595 160.75 270.117 161.895 270.398C162.421 270.526 162.534 281.135 163.016 281.116L169.367 280.376C169.826 280.358 169.008 252.558 169.277 252.201C170.486 250.591 175.37 246.117 183.052 246.961C192.462 247.993 204.006 251.594 211.77 246.67C216.723 243.528 219.113 236.548 217.353 230.234C217.224 229.771 214.079 222.191 204.668 222.426C200.307 222.535 193.308 225.751 186.547 225.882Z" fill="#223663"/>
<path d="M181.309 268.638C181.727 270.375 183.473 271.444 185.21 271.028C186.947 270.611 188.017 268.864 187.601 267.127C187.184 265.39 185.437 264.32 183.699 264.737C181.962 265.154 180.893 266.901 181.309 268.638Z" fill="#223663"/>
<path d="M204.174 265.123C203.557 263.446 201.697 262.586 200.021 263.202C198.343 263.819 197.484 265.678 198.101 267.355C198.717 269.032 200.577 269.891 202.254 269.275C203.93 268.659 204.79 266.799 204.174 265.123Z" fill="#223663"/>
<path d="M186.101 258.532C185.192 257.787 183.562 258.036 182.371 258.273C181.255 258.494 179.221 258.821 178.432 259.68C178.015 260.134 177.948 260.779 178.198 261.26C178.545 261.927 179.381 262.235 180.201 262.285C180.922 262.331 181.665 262.203 182.397 262.075C183.383 261.903 184.368 261.731 185.35 261.521C185.592 261.47 185.841 261.413 186.051 261.283C186.607 260.938 186.697 259.862 186.6 259.385C186.526 259.015 186.35 258.736 186.101 258.532Z" fill="#223663"/>
<path d="M197.661 257.444C198.349 256.489 199.987 256.311 201.199 256.234C202.335 256.161 204.384 255.953 205.367 256.581C205.888 256.913 206.118 257.518 206 258.047C205.835 258.782 205.108 259.293 204.33 259.554C203.643 259.783 202.893 259.85 202.153 259.915C201.156 260.003 200.158 260.089 199.156 260.14C198.909 260.153 198.654 260.162 198.417 260.091C197.791 259.898 197.428 258.882 197.398 258.398C197.374 258.02 197.473 257.705 197.661 257.444Z" fill="#223663"/>
<path d="M194.049 275.782C193.743 275.782 193.475 275.557 193.43 275.245C193.395 274.996 193.352 274.632 193.304 274.233C193.224 273.559 193.132 272.78 193.046 272.313C192.981 271.973 193.206 271.647 193.546 271.584C193.891 271.522 194.212 271.746 194.276 272.085C194.365 272.572 194.463 273.383 194.547 274.086C194.593 274.473 194.635 274.825 194.67 275.068C194.718 275.41 194.481 275.726 194.139 275.775C194.109 275.779 194.079 275.782 194.049 275.782Z" fill="#223663"/>
<path d="M194.206 278.739C194.038 278.739 193.879 278.73 193.734 278.715C193.39 278.679 193.138 278.373 193.174 278.029C193.209 277.686 193.511 277.436 193.86 277.47C194.232 277.509 194.926 277.516 195.401 277.145C195.74 276.881 195.89 276.39 195.72 276.094C195.639 275.952 195.481 275.825 195.275 275.734C194.905 275.571 194.459 275.556 194.082 275.699C193.758 275.82 193.398 275.654 193.276 275.332C193.157 275.007 193.321 274.647 193.645 274.526C194.332 274.269 195.11 274.293 195.78 274.589C196.234 274.79 196.59 275.094 196.806 275.472C197.287 276.312 197.008 277.479 196.17 278.132C195.558 278.609 194.824 278.739 194.206 278.739Z" fill="#223663"/>
<path d="M193.114 287.143C191.31 287.143 189.503 286.544 188.103 285.387C187.837 285.167 187.799 284.773 188.019 284.507C188.239 284.24 188.632 284.202 188.901 284.423C190.905 286.081 193.904 286.372 196.193 285.134C196.495 284.968 196.876 285.081 197.04 285.385C197.206 285.689 197.092 286.069 196.788 286.233C195.66 286.845 194.388 287.143 193.114 287.143Z" fill="#223663"/>
<path d="M169.024 271.701C169.024 279.204 162.942 285.288 155.438 285.288C147.934 285.288 141.851 279.204 141.851 271.701C141.851 264.197 147.934 258.115 155.438 258.115C162.942 258.115 169.024 264.197 169.024 271.701Z" fill="#FFC077"/>
<path d="M161.895 271.701C161.895 275.266 159.004 278.157 155.438 278.157C151.872 278.157 148.982 275.266 148.982 271.701C148.982 268.135 151.872 265.244 155.438 265.244C159.004 265.244 161.895 268.135 161.895 271.701Z" fill="#223663"/>
<path d="M155.44 263.333C150.826 263.333 147.072 267.087 147.072 271.701C147.072 276.315 150.826 280.069 155.44 280.069C160.054 280.069 163.808 276.315 163.808 271.701C163.808 267.087 160.054 263.333 155.44 263.333ZM155.44 281.391C150.097 281.391 145.75 277.044 145.75 271.701C145.75 266.358 150.097 262.011 155.44 262.011C160.783 262.011 165.13 266.358 165.13 271.701C165.13 277.044 160.783 281.391 155.44 281.391Z" fill="#223663"/>
<path d="M149.702 260.711C149.702 260.711 148.84 249.561 156.136 238.616C161.548 230.5 175.252 223.531 186.801 226.033C186.801 226.033 172.008 229.071 163.568 239.698C156.272 248.885 157.395 260.151 157.395 260.151L149.702 260.711Z" fill="#FFC077"/>
<path d="M126.12 369.168C126.12 369.168 128.933 402.34 129.911 405.863C130.889 409.385 132.458 418.871 142.789 420.838C156.729 423.519 211.465 421.633 211.465 421.633L205.221 406.646L153.233 396.431L150.849 370.622L126.12 369.168Z" fill="#F9B89C"/>
<path d="M296.171 406.953L298.898 419.461C298.898 419.461 261.62 421.004 237.444 418.448C229.861 417.645 206.48 381.677 206.48 381.677L229.714 364.597L243.04 392.717L296.171 406.953Z" fill="#F9B89C"/>
<path d="M220.692 320.647C206.884 311.569 192.06 311.633 192.06 311.633C192.06 311.633 184.583 316.142 176.814 315.485C169.046 314.827 162.158 312.414 161.655 310.305C161.655 310.305 139.798 312.607 129.787 325.654C121.61 336.31 123.045 376.438 123.045 376.438L151.368 375.543L139.977 418.916H215.571L214.766 384.042L239.682 369.058C239.682 369.058 227.91 325.393 220.692 320.647Z" fill="#674197"/>
<path d="M215.094 392.508C214.757 392.508 214.483 392.234 214.483 391.898V372.915C214.483 372.578 214.757 372.304 215.094 372.304C215.43 372.304 215.704 372.578 215.704 372.915V391.898C215.704 392.234 215.43 392.508 215.094 392.508Z" fill="#223663"/>
<path d="M175.978 359.837L168.175 421.77L217.952 428.042C219.93 428.292 221.728 426.955 221.967 425.055L228.903 369.997C229.143 368.098 227.733 366.359 225.755 366.109L175.978 359.837Z" fill="#F0EDF0"/>
<path d="M176.154 358.032L168.146 421.591L215.148 427.514C217.126 427.764 218.931 426.362 219.18 424.385L226.286 367.986C226.535 366.009 225.134 364.202 223.156 363.954L176.154 358.032Z" fill="#FE753E"/>
<g opacity="0.08">
<g opacity="0.08">
<path opacity="0.08" d="M215.15 427.515L168.148 421.593L171.452 395.369C171.452 395.369 182.237 408.992 194.179 416.914C206.123 424.835 215.15 427.515 215.15 427.515Z" fill="#223663"/>
</g>
</g>
<path d="M209.093 378.014C209.061 378.014 209.029 378.012 208.995 378.007L190.59 375.654C190.177 375.602 189.884 375.224 189.936 374.809C189.99 374.396 190.359 374.104 190.783 374.156L209.188 376.509C209.601 376.562 209.894 376.94 209.842 377.354C209.793 377.735 209.468 378.014 209.093 378.014Z" fill="#223663"/>
<path d="M208.763 382.487C208.731 382.487 208.699 382.485 208.666 382.48L190.261 380.126C189.847 380.074 189.554 379.696 189.607 379.281C189.661 378.868 190.034 378.574 190.453 378.628L208.858 380.982C209.271 381.035 209.564 381.413 209.511 381.828C209.463 382.208 209.138 382.487 208.763 382.487Z" fill="#223663"/>
<path d="M171.11 419.372C171.078 419.372 171.045 419.37 171.013 419.366C170.599 419.313 170.307 418.935 170.358 418.521L177.682 360.872C177.735 360.457 178.112 360.164 178.528 360.218C178.942 360.269 179.235 360.648 179.183 361.062L171.859 418.712C171.81 419.093 171.485 419.372 171.11 419.372Z" fill="#223663"/>
<path d="M128.51 394.943C129.065 400.308 129.588 404.7 129.911 405.863C130.888 409.385 132.458 418.871 142.788 420.837C156.729 423.519 211.464 421.633 211.464 421.633L205.221 406.646L153.231 396.431L151.374 375.601L128.51 394.943Z" fill="#F9B89C"/>
<path d="M202.593 406.347C202.593 406.347 204.861 405.688 208.714 405.785C213.864 405.915 220.157 403.972 224.51 403.695C226.728 403.554 227.562 404.33 227.764 405.066C228.271 406.916 226.456 408.041 226.456 408.041C228.189 408.474 229.398 408.427 229.594 410.349C229.809 412.459 226.574 412.982 226.574 412.982C226.574 412.982 228.751 412.948 228.948 415.274C229.151 417.677 225.612 417.926 224.689 418.313C224.689 418.313 225.745 418.935 225.918 419.819C226.065 420.563 225.439 421.552 224.495 421.9C223.949 422.101 218.648 422.841 213.038 422.308C208.023 421.83 201.356 421.509 201.356 421.509L202.593 406.347Z" fill="#F9B89C"/>
<path d="M216.69 422.905C214.556 422.905 212.35 422.832 210.553 422.635C210.21 422.597 209.962 422.288 210 421.944C210.038 421.602 210.35 421.362 210.69 421.391C215.827 421.955 223.665 421.473 224.302 421.305C224.949 421.066 225.388 420.361 225.305 419.941C225.207 419.435 224.545 418.954 224.372 418.853C224.169 418.732 224.051 418.508 224.067 418.272C224.082 418.034 224.23 417.828 224.448 417.736C224.68 417.639 224.986 417.563 225.372 417.468C226.99 417.068 228.433 416.605 228.325 415.326C228.186 413.692 226.85 413.607 226.581 413.607H226.58C226.237 413.607 225.955 413.33 225.952 412.987C225.949 412.643 226.221 412.362 226.565 412.357C226.577 412.356 226.59 412.356 226.601 412.356C227.566 412.356 229.38 412.95 229.572 415.221C229.764 417.501 227.457 418.23 225.98 418.606C226.229 418.903 226.45 419.272 226.533 419.699C226.743 420.769 225.909 422.046 224.711 422.487C224.239 422.661 220.586 422.905 216.69 422.905Z" fill="#223663"/>
<path d="M217.31 400.283C215.928 398.337 213.221 400.018 210.079 402.353C208.59 403.459 205.506 405.144 204.926 406.304C204.072 408.013 211.74 406.99 211.74 406.99C211.74 406.99 220.089 404.194 217.31 400.283Z" fill="#F9B89C"/>
<path d="M226.575 413.608C226.273 413.608 226.008 413.39 225.958 413.083C225.902 412.741 226.133 412.421 226.474 412.364C226.501 412.36 229.124 411.909 228.973 410.413C228.85 409.215 228.355 409.106 227.031 408.816C226.801 408.764 226.559 408.711 226.305 408.648C226.062 408.587 225.878 408.386 225.839 408.137C225.8 407.888 225.914 407.641 226.128 407.509C226.182 407.474 227.536 406.598 227.161 405.232C226.979 404.567 226 404.229 224.551 404.319C222.794 404.43 220.693 404.823 218.468 405.239C217.532 405.413 216.576 405.593 215.615 405.755C215.324 405.807 215.039 405.645 214.93 405.371C214.82 405.098 214.916 404.785 215.161 404.62C216.368 403.807 217.079 402.965 217.221 402.186C217.313 401.68 217.175 401.175 216.799 400.645C216.561 400.312 216.287 400.13 215.936 400.075C214.679 399.864 212.553 401.293 210.45 402.855C210.005 403.185 209.42 403.568 208.801 403.972C207.609 404.749 206.26 405.629 205.676 406.315C205.572 406.438 205.423 406.515 205.263 406.531C203.535 406.704 199.834 406.208 199.678 406.188C199.336 406.142 199.096 405.827 199.143 405.483C199.188 405.142 199.494 404.894 199.846 404.948C199.881 404.952 203.225 405.401 204.904 405.304C205.643 404.538 206.899 403.718 208.117 402.923C208.712 402.535 209.275 402.169 209.704 401.851C212.464 399.8 214.507 398.582 216.131 398.838C216.818 398.947 217.386 399.312 217.819 399.921C218.393 400.729 218.605 401.565 218.452 402.409C218.347 402.994 218.062 403.568 217.606 404.127C217.818 404.087 218.028 404.049 218.239 404.009C220.501 403.586 222.639 403.186 224.472 403.071C227.488 402.869 228.2 404.286 228.368 404.9C228.682 406.045 228.279 407.014 227.746 407.694C228.961 407.982 230.026 408.415 230.217 410.286C230.434 412.414 228.092 413.37 226.675 413.6C226.641 413.605 226.608 413.608 226.575 413.608Z" fill="#223663"/>
<path d="M223.854 418.907C222.319 418.907 220.865 418.819 219.694 418.733C219.35 418.707 219.09 418.408 219.116 418.063C219.14 417.72 219.444 417.46 219.784 417.485C221.283 417.594 223.259 417.71 225.235 417.629C225.593 417.644 225.873 417.884 225.886 418.229C225.901 418.574 225.632 418.866 225.287 418.88C224.806 418.899 224.326 418.907 223.854 418.907Z" fill="#223663"/>
<path d="M219.93 413.978C219.585 413.978 219.305 413.698 219.305 413.353C219.304 413.008 219.583 412.727 219.929 412.726C221.874 412.722 223.536 412.603 225.46 412.464C226.125 412.416 226.825 412.366 227.581 412.316C227.936 412.299 228.223 412.556 228.247 412.9C228.268 413.245 228.007 413.543 227.662 413.564C226.91 413.614 226.213 413.664 225.549 413.712C223.603 413.853 221.921 413.974 219.931 413.978H219.93Z" fill="#223663"/>
<path d="M219.942 409.012C219.601 409.012 219.322 408.739 219.317 408.397C219.31 408.052 219.586 407.766 219.931 407.761C222.825 407.711 224.179 407.627 227.008 407.202C227.348 407.155 227.669 407.387 227.72 407.728C227.771 408.069 227.536 408.388 227.194 408.44C224.294 408.874 222.909 408.96 219.952 409.011C219.949 409.011 219.945 409.012 219.942 409.012Z" fill="#223663"/>
<path d="M126.103 376.664C125.767 376.664 125.489 376.396 125.478 376.057C125.469 375.711 125.74 375.422 126.085 375.413L155.083 374.559L154.67 362.772C154.658 362.426 154.928 362.136 155.274 362.125C155.597 362.109 155.908 362.383 155.92 362.728L156.356 375.145C156.362 375.31 156.301 375.474 156.187 375.595C156.073 375.715 155.916 375.788 155.749 375.792L126.123 376.663C126.116 376.663 126.11 376.664 126.103 376.664Z" fill="#223663"/>
<path d="M176.69 316.576C165.767 316.576 161.216 311.23 161.025 310.999C160.805 310.734 160.843 310.341 161.108 310.12C161.374 309.901 161.767 309.937 161.988 310.2C162.032 310.253 166.485 315.469 177.023 315.323C188.079 315.209 191.849 311.113 191.885 311.073C192.114 310.814 192.509 310.79 192.767 311.017C193.025 311.245 193.053 311.637 192.826 311.896C192.664 312.082 188.723 316.454 177.035 316.574C176.921 316.576 176.803 316.576 176.69 316.576Z" fill="#223663"/>
<path d="M311.999 406.399C308.743 405.601 299.31 406.451 296.126 407.274C293.406 407.978 291.916 410.817 291.916 410.817L293.926 418.947C293.926 418.947 298.127 420.138 301.87 419.504C304.364 419.08 315.111 417.091 316.203 417.831C317.677 418.833 319.172 417.564 319.149 417.026C319.141 416.847 319.025 416.395 318.785 415.85C318.896 415.851 319.003 415.852 319.096 415.842C320.995 415.633 319.948 413.53 319.948 413.53C319.843 413.455 319.737 413.395 319.632 413.323C320.554 413.498 320.243 412.998 320.435 412.546C321.516 410.006 315.255 407.197 311.999 406.399Z" fill="#F9B89C"/>
<path d="M443.134 342.043H344.138C339.564 342.043 335.855 345.217 335.855 349.13L312.889 411.45L263.929 419.973C262.554 419.973 290.11 420.318 309.533 420.56L309.448 420.789H425.011L451.418 349.13C451.418 345.217 447.709 342.043 443.134 342.043Z" fill="#8DBCEC"/>
<path d="M443.134 342.043H344.138C339.564 342.043 335.855 345.217 335.855 349.13L312.889 411.45L263.929 419.973C262.554 419.973 290.11 420.318 309.533 420.56L309.448 420.789H425.011L451.418 349.13C451.418 345.217 447.709 342.043 443.134 342.043Z" fill="#223663"/>
<path d="M397.208 379.557C397.208 386.321 391.724 391.805 384.959 391.805C378.194 391.805 372.71 386.321 372.71 379.557C372.71 372.792 378.194 367.308 384.959 367.308C391.724 367.308 397.208 372.792 397.208 379.557Z" fill="white"/>
<path d="M467.411 428.933H121.344C119.093 428.933 117.268 427.109 117.268 424.857V423.091C117.268 420.84 119.093 419.015 121.344 419.015H467.411C469.661 419.015 471.487 420.84 471.487 423.091V424.857C471.487 427.109 469.661 428.933 467.411 428.933Z" fill="#674197"/>
<g opacity="0.14">
<g opacity="0.14">
<path opacity="0.14" d="M455.244 398.505C455.244 398.505 447.591 386.8 449.816 377.492C450.986 372.597 454.942 369.216 458.454 365.925C462.86 361.797 464.179 359.438 464.419 353.218C464.522 350.565 464.75 347.814 466.051 345.498C467.352 343.181 470.015 341.426 472.612 341.991C474.963 342.504 476.619 344.786 477.052 347.153C477.483 349.521 476.914 351.954 476.172 354.244C474.581 359.151 472.128 363.866 468.648 367.704C465.503 371.175 460.18 373.641 457.984 377.834C452.968 387.414 455.244 398.505 455.244 398.505Z" fill="#FFC077"/>
</g>
</g>
<path d="M440.546 394.487L443.415 419.757C443.415 419.757 460.814 421.036 464.627 419.328L468.328 394.546L440.546 394.487Z" fill="#FFC077"/>
<path d="M439.725 401.578C437.745 401.578 436.118 403.174 436.088 405.161C436.074 406.132 436.438 407.05 437.114 407.748C437.79 408.446 438.698 408.838 439.669 408.853C440.631 408.872 441.561 408.504 442.258 407.828C442.955 407.152 443.349 406.244 443.363 405.273C443.378 404.301 443.014 403.381 442.338 402.683C441.661 401.986 440.754 401.594 439.783 401.579C439.763 401.578 439.744 401.578 439.725 401.578ZM439.729 411.579C439.695 411.579 439.661 411.578 439.628 411.578C437.929 411.552 436.341 410.865 435.158 409.646C433.975 408.425 433.337 406.817 433.364 405.118C433.418 401.643 436.262 398.853 439.724 398.853C439.757 398.853 439.791 398.854 439.824 398.854C441.523 398.881 443.111 399.567 444.294 400.787C445.477 402.007 446.114 403.615 446.088 405.314C446.063 407.014 445.375 408.601 444.155 409.785C442.958 410.944 441.391 411.579 439.729 411.579Z" fill="#FFC077"/>
<g opacity="0.14">
<g opacity="0.14">
<path opacity="0.14" d="M469.393 376.349C467.461 375.543 465.097 376.78 463.448 378.067C461.798 379.355 461.1 382.086 462.608 383.538C463.752 384.64 465.623 384.546 467.085 383.926C468.776 383.208 470.261 381.764 470.565 379.953C470.87 378.142 470.267 376.714 469.393 376.349Z" fill="#FFC077"/>
</g>
</g>
<path d="M467.902 397.863H441.084C440.739 397.863 440.458 397.582 440.458 397.237C440.458 396.891 440.739 396.61 441.084 396.61H467.902C468.247 396.61 468.528 396.891 468.528 397.237C468.528 397.582 468.247 397.863 467.902 397.863Z" fill="#223663"/>
<path d="M464.855 417.795H443.064C442.719 417.795 442.438 417.514 442.438 417.169C442.438 416.824 442.719 416.543 443.064 416.543H464.855C465.2 416.543 465.481 416.824 465.481 417.169C465.481 417.514 465.2 417.795 464.855 417.795Z" fill="#223663"/>
<path d="M530.165 292.781H487.367C484.68 292.781 482.5 290.601 482.5 287.912V274.398C482.5 271.708 484.68 269.528 487.367 269.528H530.165C532.855 269.528 535.035 271.708 535.035 274.398V287.912C535.035 290.601 532.855 292.781 530.165 292.781Z" fill="#FFC077"/>
<path d="M505.949 278.831H491.102C490.413 278.831 489.854 278.272 489.854 277.583C489.854 276.894 490.413 276.335 491.102 276.335H505.949C506.639 276.335 507.197 276.894 507.197 277.583C507.197 278.272 506.639 278.831 505.949 278.831Z" fill="white"/>
<path d="M520.83 285.552H491.103C490.413 285.552 489.855 284.993 489.855 284.304C489.855 283.614 490.413 283.055 491.103 283.055H520.83C521.519 283.055 522.078 283.614 522.078 284.304C522.078 284.993 521.519 285.552 520.83 285.552Z" fill="white"/>
<path d="M526.325 262.187H486.38C484.236 262.187 482.5 260.451 482.5 258.307V239.113C482.5 236.97 484.236 235.233 486.38 235.233H526.325C528.467 235.233 530.205 236.97 530.205 239.113V258.307C530.205 260.451 528.467 262.187 526.325 262.187Z" fill="#CAC3FB"/>
<path d="M507.027 243.593H489.355C488.806 243.593 488.36 243.147 488.36 242.598C488.36 242.049 488.806 241.603 489.355 241.603H507.027C507.577 241.603 508.022 242.049 508.022 242.598C508.022 243.147 507.577 243.593 507.027 243.593Z" fill="white"/>
<path d="M518.884 248.947H489.354C488.806 248.947 488.36 248.502 488.36 247.953C488.36 247.403 488.806 246.959 489.354 246.959H518.884C519.434 246.959 519.879 247.403 519.879 247.953C519.879 248.502 519.434 248.947 518.884 248.947Z" fill="#223663"/>
<path d="M518.884 254.611H489.354C488.806 254.611 488.36 254.165 488.36 253.616C488.36 253.068 488.806 252.622 489.354 252.622H518.884C519.434 252.622 519.879 253.068 519.879 253.616C519.879 254.165 519.434 254.611 518.884 254.611Z" fill="#223663"/>
<path d="M306.396 191.736H260.814C258.124 191.736 255.945 189.556 255.945 186.867V173.352C255.945 170.663 258.124 168.483 260.814 168.483H306.396C309.086 168.483 311.266 170.663 311.266 173.352V186.867C311.266 189.556 309.086 191.736 306.396 191.736Z" fill="#CAC3FB"/>
<path d="M282.182 177.786H264.549C263.86 177.786 263.301 177.227 263.301 176.538C263.301 175.849 263.86 175.29 264.549 175.29H282.182C282.871 175.29 283.43 175.849 283.43 176.538C283.43 177.227 282.871 177.786 282.182 177.786Z" fill="#223663"/>
<path d="M297.062 184.507H264.549C263.86 184.507 263.301 183.948 263.301 183.259C263.301 182.569 263.86 182.01 264.549 182.01H297.062C297.751 182.01 298.31 182.569 298.31 183.259C298.31 183.948 297.751 184.507 297.062 184.507Z" fill="white"/>
<path d="M243.928 209.005H206.406C204.264 209.005 202.527 207.267 202.527 205.125V185.931C202.527 183.787 204.264 182.051 206.406 182.051H243.928C246.071 182.051 247.808 183.787 247.808 185.931V205.125C247.808 207.267 246.071 209.005 243.928 209.005Z" fill="#33BF8D"/>
<path d="M224.63 190.41H209.381C208.832 190.41 208.388 189.965 208.388 189.416C208.388 188.866 208.832 188.421 209.381 188.421H224.63C225.179 188.421 225.625 188.866 225.625 189.416C225.625 189.965 225.179 190.41 224.63 190.41Z" fill="white"/>
<path d="M236.488 195.765H209.383C208.833 195.765 208.388 195.32 208.388 194.77C208.388 194.221 208.833 193.777 209.383 193.777H236.488C237.037 193.777 237.483 194.221 237.483 194.77C237.483 195.32 237.037 195.765 236.488 195.765Z" fill="#223663"/>
<path d="M236.488 201.43H209.383C208.833 201.43 208.388 200.984 208.388 200.435C208.388 199.887 208.833 199.441 209.383 199.441H236.488C237.037 199.441 237.483 199.887 237.483 200.435C237.483 200.984 237.037 201.43 236.488 201.43Z" fill="#223663"/>
<path d="M486.358 464.628L476.657 460.9L468.578 467.435L470.198 477.7L479.898 481.431L487.979 474.893L486.358 464.628Z" fill="#6288E9"/>
<path d="M379.094 130.936L369.753 135.492L369.029 145.86L377.645 151.67L386.985 147.114L387.71 136.747L379.094 130.936Z" fill="#FE753E"/>
<path d="M522.438 107.786L513.8 127.071L534.544 123.045L522.438 107.786Z" fill="#33BF8D"/>
<path d="M224.897 453.348L203.983 450.316L213.532 469.168L224.897 453.348Z" fill="#33BF8D"/>
<path d="M291.982 73.3691C291.982 77.2106 288.868 80.3245 285.026 80.3245C281.185 80.3245 278.07 77.2106 278.07 73.3691C278.07 69.5275 281.185 66.4126 285.026 66.4126C288.868 66.4126 291.982 69.5275 291.982 73.3691Z" fill="#6288E9"/>
<path d="M397.621 126.72C397.276 126.72 396.996 126.44 396.996 126.095V118.875C396.996 118.53 397.276 118.25 397.621 118.25C397.966 118.25 398.246 118.53 398.246 118.875V126.095C398.246 126.44 397.966 126.72 397.621 126.72Z" fill="#223663"/>
<path d="M401.231 123.111H394.013C393.668 123.111 393.388 122.831 393.388 122.486C393.388 122.14 393.668 121.86 394.013 121.86H401.231C401.576 121.86 401.856 122.14 401.856 122.486C401.856 122.831 401.576 123.111 401.231 123.111Z" fill="#223663"/>
<path d="M116.813 295.035C116.467 295.035 116.188 294.755 116.188 294.41V287.192C116.188 286.846 116.467 286.566 116.813 286.566C117.158 286.566 117.438 286.846 117.438 287.192V294.41C117.438 294.755 117.158 295.035 116.813 295.035Z" fill="#223663"/>
<path d="M120.421 291.427H113.202C112.857 291.427 112.577 291.147 112.577 290.802C112.577 290.455 112.857 290.175 113.202 290.175H120.421C120.766 290.175 121.046 290.455 121.046 290.802C121.046 291.147 120.766 291.427 120.421 291.427Z" fill="#223663"/>
<path d="M293.227 484.954C292.882 484.954 292.602 484.673 292.602 484.328V477.11C292.602 476.765 292.882 476.484 293.227 476.484C293.572 476.484 293.852 476.765 293.852 477.11V484.328C293.852 484.673 293.572 484.954 293.227 484.954Z" fill="#223663"/>
<path d="M296.838 481.346H289.62C289.275 481.346 288.995 481.065 288.995 480.719C288.995 480.374 289.275 480.093 289.62 480.093H296.838C297.183 480.093 297.463 480.374 297.463 480.719C297.463 481.065 297.183 481.346 296.838 481.346Z" fill="#223663"/>
<path d="M502.048 407.546C501.703 407.546 501.422 407.265 501.422 406.92V399.702C501.422 399.357 501.703 399.076 502.048 399.076C502.393 399.076 502.674 399.357 502.674 399.702V406.92C502.674 407.265 502.393 407.546 502.048 407.546Z" fill="#223663"/>
<path d="M505.659 403.938H498.439C498.094 403.938 497.813 403.657 497.813 403.311C497.813 402.966 498.094 402.685 498.439 402.685H505.659C506.004 402.685 506.285 402.966 506.285 403.311C506.285 403.657 506.004 403.938 505.659 403.938Z" fill="#223663"/>
<path d="M528.133 196.026C527.788 196.026 527.507 195.746 527.507 195.401V188.183C527.507 187.836 527.788 187.556 528.133 187.556C528.478 187.556 528.759 187.836 528.759 188.183V195.401C528.759 195.746 528.478 196.026 528.133 196.026Z" fill="#223663"/>
<path d="M531.743 192.417H524.525C524.179 192.417 523.898 192.137 523.898 191.792C523.898 191.446 524.179 191.166 524.525 191.166H531.743C532.088 191.166 532.369 191.446 532.369 191.792C532.369 192.137 532.088 192.417 531.743 192.417Z" fill="#223663"/>
</svg>
