<svg width="23" height="23" viewBox="0 0 23 23" fill="none" xmlns="http://www.w3.org/2000/svg">
<path fill-rule="evenodd" clip-rule="evenodd" d="M11.5 23C17.8513 23 23 17.8513 23 11.5C23 5.14873 17.8513 0 11.5 0C5.14873 0 0 5.14873 0 11.5C0 17.8513 5.14873 23 11.5 23ZM17.0047 9.176C17.5074 8.51759 17.3813 7.57626 16.7229 7.07347C16.0645 6.57069 15.1231 6.69685 14.6203 7.35525L10.1984 13.1459L8.27388 11.1246C7.70265 10.5246 6.75319 10.5012 6.1532 11.0725C5.55321 11.6437 5.52989 12.5932 6.10112 13.1932L9.23749 16.4874C9.54019 16.8054 9.96698 16.9748 10.4053 16.9509C10.8437 16.9271 11.2496 16.7124 11.516 16.3635L17.0047 9.176Z" fill="#3CC086"/>
</svg>
