<svg width="125" height="64" viewBox="0 0 125 64" fill="none" xmlns="http://www.w3.org/2000/svg">
<path d="M125 63.5C125 46.6588 118.415 30.5073 106.694 18.5987C94.9732 6.69018 79.076 1.50976e-05 62.5 1.09278e-05C45.924 6.75813e-06 30.0269 6.69016 18.3058 18.5987C6.5848 30.5073 -5.65516e-06 46.6587 -1.11027e-05 63.5L62.5 63.5L125 63.5Z" fill="#F6AF49"/>
<path d="M125 63.5C125 46.6588 118.415 30.5073 106.694 18.5987C94.9732 6.69018 79.076 1.50976e-05 62.5 1.09278e-05C45.924 6.75813e-06 30.0269 6.69016 18.3058 18.5987C6.5848 30.5073 -5.65516e-06 46.6587 -1.11027e-05 63.5L62.5 63.5L125 63.5Z" fill="#F6AF49"/>
</svg>
